<svg width="16" height="16" viewBox="0 0 16 16" fill="none" xmlns="http://www.w3.org/2000/svg">
<path fill-rule="evenodd" clip-rule="evenodd" d="M15.2512 5.95634C16.2336 7.16543 16.2543 8.84604 15.2844 10.0652C13.9086 11.7947 11.4805 13.9822 8.00003 13.9822C4.51955 13.9822 2.09141 11.7947 0.715606 10.0652C-0.254266 8.84604 -0.233528 7.16543 0.748895 5.95634C2.15686 4.22353 4.61418 2.01758 8.00003 2.01758C11.3859 2.01758 13.8432 4.22353 15.2512 5.95634ZM11.9646 7.99991C11.9646 10.2025 10.179 11.9881 7.97639 11.9881C5.77376 11.9881 3.98817 10.2025 3.98817 7.99991C3.98817 5.79728 5.77376 4.01169 7.97639 4.01169C10.179 4.01169 11.9646 5.79728 11.9646 7.99991ZM7.97653 9.99402C9.07785 9.99402 9.97064 9.10123 9.97064 7.99991C9.97064 6.89859 9.07785 6.0058 7.97653 6.0058C6.87522 6.0058 5.98242 6.89859 5.98242 7.99991C5.98242 9.10123 6.87522 9.99402 7.97653 9.99402Z" fill="#737D8C"/>
</svg>
