<svg width="22" height="21" viewBox="0 0 22 21" fill="none" xmlns="http://www.w3.org/2000/svg">
<path d="M3.63013 13.0435C3.64248 12.9655 3.67763 12.8929 3.73116 12.8349L15.1405 0.462333C15.2903 0.299929 15.5434 0.289681 15.7058 0.439442L18.0582 2.60876C18.2206 2.75852 18.2309 3.01158 18.0811 3.17399L6.67174 15.5465C6.6182 15.6046 6.54868 15.6455 6.47192 15.6641L3.66863 16.3437C3.39123 16.411 3.13469 16.1744 3.1793 15.8925L3.63013 13.0435Z" fill="#737D8C"/>
<path d="M1.83301 17.2204C1.00458 17.2204 0.333008 17.892 0.333008 18.7204C0.333008 19.5488 1.00458 20.2204 1.83301 20.2204L19.833 20.2204C20.6614 20.2204 21.333 19.5488 21.333 18.7204C21.333 17.892 20.6614 17.2204 19.833 17.2204L1.83301 17.2204Z" fill="#737D8C"/>
</svg>
