<svg width="50" height="50" viewBox="0 0 50 50" fill="none" xmlns="http://www.w3.org/2000/svg">
<path fill-rule="evenodd" clip-rule="evenodd" d="M25 50C38.8071 50 50 38.8071 50 25C50 11.1929 38.8071 0 25 0C11.1929 0 0 11.1929 0 25C0 38.8071 11.1929 50 25 50Z" fill="#7E69FF"/>
<path fill-rule="evenodd" clip-rule="evenodd" d="M20.4296 11.649C20.4296 10.6399 21.2493 9.82187 22.2605 9.82187C29.1144 9.82187 34.6705 15.3664 34.6705 22.206C34.6705 23.2151 33.8507 24.0332 32.8395 24.0332C31.8283 24.0332 31.0085 23.2151 31.0085 22.206C31.0085 17.3847 27.0919 13.4762 22.2605 13.4762C21.2493 13.4762 20.4296 12.6582 20.4296 11.649Z" fill="white"/>
<path fill-rule="evenodd" clip-rule="evenodd" d="M38.3473 20.3788C39.3585 20.3788 40.1783 21.1968 40.1783 22.206C40.1783 29.0455 34.6222 34.5901 27.7684 34.5901C26.7571 34.5901 25.9374 33.7721 25.9374 32.7629C25.9374 31.7538 26.7571 30.9358 27.7684 30.9358C32.5997 30.9358 36.5163 27.0273 36.5163 22.206C36.5163 21.1968 37.3361 20.3788 38.3473 20.3788Z" fill="white"/>
<path fill-rule="evenodd" clip-rule="evenodd" d="M29.5995 38.3523C29.5995 39.3614 28.7797 40.1795 27.7685 40.1795C20.9147 40.1795 15.3586 34.6349 15.3586 27.7953C15.3586 26.7862 16.1783 25.9681 17.1896 25.9681C18.2008 25.9681 19.0205 26.7862 19.0205 27.7953C19.0205 32.6167 22.9371 36.5251 27.7685 36.5251C28.7797 36.5251 29.5995 37.3432 29.5995 38.3523Z" fill="white"/>
<path fill-rule="evenodd" clip-rule="evenodd" d="M11.6532 29.6223C10.642 29.6223 9.82222 28.8043 9.82221 27.7951C9.82221 20.9556 15.3783 15.411 22.2321 15.411C23.2434 15.411 24.0631 16.229 24.0631 17.2382C24.0631 18.2473 23.2434 19.0653 22.2321 19.0653C17.4008 19.0653 13.4842 22.9738 13.4842 27.7951C13.4842 28.8043 12.6644 29.6223 11.6532 29.6223Z" fill="white"/>
</svg>
