<svg width="24" height="24" viewBox="0 0 24 24" fill="none" xmlns="http://www.w3.org/2000/svg">
<path d="M22.5011 12.2336C22.5011 11.3702 22.4296 10.7402 22.2749 10.0869H12.2154V13.9835H18.1201C18.0011 14.9519 17.3582 16.4102 15.9296 17.3902L15.9096 17.5206L19.0903 19.9354L19.3106 19.9569C21.3344 18.1252 22.5011 15.4302 22.5011 12.2336Z" fill="#4285F4"/>
<path d="M12.2147 22.4996C15.1075 22.4996 17.536 21.5662 19.3099 19.9562L15.9289 17.3895C15.0242 18.0078 13.8099 18.4395 12.2147 18.4395C9.38139 18.4395 6.97666 16.6079 6.11944 14.0762L5.99379 14.0866L2.68653 16.595L2.64328 16.7128C4.40516 20.1428 8.0242 22.4996 12.2147 22.4996Z" fill="#34A853"/>
<path d="M6.12019 14.0765C5.894 13.4232 5.7631 12.7231 5.7631 11.9998C5.7631 11.2764 5.894 10.5765 6.10829 9.92313L6.1023 9.78398L2.75358 7.23535L2.64402 7.28642C1.91786 8.70978 1.50119 10.3081 1.50119 11.9998C1.50119 13.6915 1.91786 15.2897 2.64402 16.7131L6.12019 14.0765Z" fill="#FBBC05"/>
<path d="M12.2148 5.55997C14.2266 5.55997 15.5837 6.41163 16.3576 7.12335L19.3814 4.23C17.5243 2.53834 15.1076 1.5 12.2148 1.5C8.02423 1.5 4.40517 3.85665 2.64328 7.28662L6.10756 9.92332C6.97668 7.39166 9.38143 5.55997 12.2148 5.55997Z" fill="#EB4335"/>
</svg>
