<svg width="38" height="38" viewBox="0 0 38 38" fill="none" xmlns="http://www.w3.org/2000/svg">
<path d="M0 14C0 6.26801 6.26801 0 14 0H24C31.732 0 38 6.26801 38 14V24C38 31.732 31.732 38 24 38H14C6.26801 38 0 31.732 0 24V14Z" fill="white"/>
<path d="M0 14C0 6.26801 6.26801 0 14 0H24C31.732 0 38 6.26801 38 14V24C38 31.732 31.732 38 24 38H14C6.26801 38 0 31.732 0 24V14Z" fill="#AC3BA8" fill-opacity="0.15"/>
<path fill-rule="evenodd" clip-rule="evenodd" d="M30.0668 19.0004C30.0668 25.0892 25.1308 30.0252 19.042 30.0252C17.026 30.0252 15.1365 29.4841 13.5106 28.5393L9.25692 29.852C8.47193 30.0942 7.73693 29.3572 7.98132 28.5729L9.33432 24.2306C8.49408 22.6744 8.01715 20.8931 8.01715 19.0004C8.01715 12.9116 12.9531 7.97559 19.042 7.97559C25.1308 7.97559 30.0668 12.9116 30.0668 19.0004ZM15.367 19.0004C15.367 19.6769 14.8186 20.2254 14.142 20.2254C13.4655 20.2254 12.9171 19.6769 12.9171 19.0004C12.9171 18.3239 13.4655 17.7754 14.142 17.7754C14.8186 17.7754 15.367 18.3239 15.367 19.0004ZM19.042 20.2254C19.7185 20.2254 20.2669 19.6769 20.2669 19.0004C20.2669 18.3239 19.7185 17.7754 19.042 17.7754C18.3654 17.7754 17.817 18.3239 17.817 19.0004C17.817 19.6769 18.3654 20.2254 19.042 20.2254ZM25.1668 19.0004C25.1668 19.6769 24.6184 20.2254 23.9419 20.2254C23.2653 20.2254 22.7169 19.6769 22.7169 19.0004C22.7169 18.3239 23.2653 17.7754 23.9419 17.7754C24.6184 17.7754 25.1668 18.3239 25.1668 19.0004Z" fill="#1E1E1E"/>
</svg>
