<svg width="24" height="24" viewBox="0 0 24 24" fill="none" xmlns="http://www.w3.org/2000/svg">
<path d="M13 6H4C3.45 6 3 6.45 3 7C3 7.55 3.45 8 4 8H13.3414C13.1203 7.37444 13 6.70127 13 6Z" fill="#17191C"/>
<path d="M15.6822 11C16.3676 11.4557 17.1521 11.7743 17.9965 11.9165C17.9988 11.944 18 11.9719 18 12C18 12.55 17.55 13 17 13H7C6.45 13 6 12.55 6 12C6 11.45 6.45 11 7 11H15.6822Z" fill="#17191C"/>
<path d="M11 18H13C13.55 18 14 17.55 14 17C14 16.45 13.55 16 13 16H11C10.45 16 10 16.45 10 17C10 17.55 10.45 18 11 18Z" fill="#17191C"/>
<path d="M19 9C20.6569 9 22 7.65685 22 6C22 4.34315 20.6569 3 19 3C17.3431 3 16 4.34315 16 6C16 7.65685 17.3431 9 19 9Z" fill="#17191C"/>
</svg>
