<svg width="24" height="24" viewBox="0 0 24 24" fill="none" xmlns="http://www.w3.org/2000/svg">
<path d="M20.4421 7.10595C19.5702 5.6121 18.3876 4.42941 16.8939 3.55763C15.3999 2.6858 13.769 2.25 11.9999 2.25C10.231 2.25 8.59957 2.68594 7.10595 3.55763C5.6121 4.42937 4.4295 5.6121 3.55763 7.10595C2.68589 8.59975 2.25 10.231 2.25 11.9996C2.25 14.1242 2.86984 16.0346 4.10984 17.7315C5.34971 19.4284 6.95143 20.6027 8.91488 21.2543C9.14343 21.2967 9.31262 21.2669 9.42262 21.1656C9.53268 21.0641 9.58763 20.937 9.58763 20.7848C9.58763 20.7594 9.58546 20.531 9.58123 20.0993C9.57687 19.6676 9.57483 19.291 9.57483 18.9696L9.28283 19.0202C9.09665 19.0543 8.86179 19.0687 8.57823 19.0646C8.29481 19.0607 8.00059 19.031 7.69595 18.9757C7.39119 18.921 7.10773 18.794 6.84534 18.5952C6.58308 18.3963 6.39691 18.1359 6.28686 17.8145L6.15991 17.5224C6.07529 17.3279 5.94207 17.1118 5.76008 16.875C5.57808 16.638 5.39404 16.4773 5.20786 16.3927L5.11898 16.329C5.05975 16.2867 5.00479 16.2357 4.95397 16.1766C4.90319 16.1174 4.86517 16.0582 4.83978 15.9988C4.81435 15.9395 4.83542 15.8908 4.90323 15.8526C4.97104 15.8144 5.09359 15.7959 5.2714 15.7959L5.52521 15.8338C5.69449 15.8677 5.90388 15.969 6.15364 16.1384C6.40326 16.3076 6.60847 16.5277 6.7693 16.7984C6.96406 17.1455 7.1987 17.4099 7.4739 17.5919C7.74887 17.7739 8.02611 17.8648 8.30535 17.8648C8.58459 17.8648 8.82577 17.8436 9.02897 17.8015C9.23196 17.7592 9.4224 17.6955 9.60022 17.611C9.67639 17.0437 9.88377 16.6079 10.2222 16.3032C9.73984 16.2526 9.30617 16.1762 8.92097 16.0747C8.53599 15.973 8.13816 15.8081 7.72775 15.5794C7.31711 15.3509 6.97646 15.0673 6.70572 14.7289C6.43492 14.3904 6.21269 13.9459 6.03932 13.3959C5.86586 12.8457 5.77911 12.211 5.77911 11.4916C5.77911 10.4674 6.11349 9.59577 6.78211 8.87633C6.4689 8.10628 6.49846 7.24303 6.8709 6.28668C7.11635 6.21042 7.48034 6.26765 7.9627 6.458C8.44515 6.64845 8.79838 6.81159 9.02275 6.94685C9.24712 7.08207 9.42689 7.19666 9.56233 7.28959C10.3496 7.06962 11.162 6.95961 11.9998 6.95961C12.8376 6.95961 13.6502 7.06962 14.4375 7.28959L14.9199 6.98505C15.2498 6.78184 15.6394 6.59562 16.0877 6.42634C16.5362 6.25715 16.8792 6.21055 17.1163 6.28681C17.497 7.24321 17.531 8.10641 17.2177 8.87646C17.8862 9.5959 18.2208 10.4677 18.2208 11.4918C18.2208 12.2111 18.1337 12.8478 17.9605 13.4023C17.7871 13.9568 17.5629 14.4008 17.288 14.7353C17.0127 15.0697 16.6699 15.3511 16.2594 15.5795C15.8489 15.808 15.451 15.973 15.066 16.0746C14.6808 16.1763 14.2472 16.2527 13.7648 16.3035C14.2048 16.6842 14.4248 17.2851 14.4248 18.106V20.7845C14.4248 20.9366 14.4777 21.0637 14.5836 21.1652C14.6894 21.2665 14.8564 21.2964 15.085 21.2539C17.0487 20.6024 18.6504 19.4281 19.8902 17.7311C21.1299 16.0343 21.75 14.1238 21.75 11.9993C21.7496 10.2309 21.3134 8.59975 20.4421 7.10595Z" fill="black"/>
</svg>
