<svg width="16" height="16" viewBox="0 0 16 16" fill="none" xmlns="http://www.w3.org/2000/svg">
<path d="M13.4589 2.7911C13.2328 2.50046 12.814 2.44811 12.5234 2.67415C12.233 2.89995 12.1805 3.31813 12.4057 3.60872L12.4062 3.60937L12.4068 3.61023L12.4159 3.62234C12.4248 3.6342 12.439 3.65358 12.4578 3.68014C12.4956 3.73328 12.5517 3.81499 12.6202 3.92259C12.7574 4.13815 12.9427 4.45557 13.1285 4.85374C13.502 5.6541 13.866 6.756 13.866 8.00039C13.866 9.24478 13.502 10.3467 13.1285 11.147C12.9427 11.5452 12.7574 11.8626 12.6202 12.0782C12.5517 12.1858 12.4956 12.2675 12.4578 12.3206C12.439 12.3472 12.4248 12.3666 12.4159 12.3784L12.4068 12.3905L12.4062 12.3914L12.4056 12.3922C12.1805 12.6828 12.2331 13.1009 12.5234 13.3266C12.814 13.5527 13.2328 13.5003 13.4589 13.2097L12.962 12.8232C13.4589 13.2097 13.4589 13.2097 13.4589 13.2097L13.4602 13.208L13.4621 13.2055L13.4677 13.1983L13.4853 13.1748C13.4999 13.1552 13.5201 13.1277 13.5449 13.0926C13.5947 13.0226 13.6636 12.9221 13.7451 12.794C13.9079 12.5381 14.1226 12.1699 14.3368 11.7109C14.7633 10.797 15.1993 9.49886 15.1993 8.00039C15.1993 6.50192 14.7633 5.20382 14.3368 4.28989C14.1226 3.83092 13.9079 3.46263 13.7451 3.20676C13.6636 3.07865 13.5947 2.97821 13.5449 2.90814C13.5201 2.87309 13.4999 2.84559 13.4853 2.82598L13.4677 2.80251L13.4621 2.79528L13.4602 2.79281L13.4595 2.79185C13.4595 2.79185 13.4589 2.7911 12.9326 3.20039L13.4589 2.7911Z" fill="#737D8C"/>
<path d="M11.7261 5.19124C11.5001 4.90061 11.0812 4.84825 10.7906 5.0743C10.5007 5.29976 10.4479 5.71701 10.6719 6.00755L10.6742 6.0106C10.6772 6.0146 10.6828 6.02225 10.6907 6.03341C10.7066 6.05575 10.7315 6.09192 10.7625 6.1406C10.8246 6.2383 10.91 6.38429 10.9958 6.56817C11.1693 6.93996 11.3332 7.44186 11.3332 8.00054C11.3332 8.55921 11.1693 9.06111 10.9958 9.4329C10.91 9.61678 10.8246 9.76277 10.7625 9.86047C10.7315 9.90915 10.7066 9.94532 10.6907 9.96766C10.6828 9.97881 10.6772 9.98647 10.6742 9.99047L10.6719 9.99353C10.4479 10.2841 10.5007 10.7013 10.7906 10.9268C11.0812 11.1528 11.5001 11.1005 11.7261 10.8098L11.1999 10.4005C11.7261 10.8098 11.7261 10.8098 11.7261 10.8098L11.7273 10.8083L11.7288 10.8064L11.7326 10.8014L11.7436 10.7868C11.7523 10.7751 11.7639 10.7593 11.7778 10.7397C11.8057 10.7004 11.8433 10.6455 11.8873 10.5763C11.9752 10.4383 12.0898 10.2414 12.204 9.99674C12.4305 9.51139 12.6666 8.81329 12.6666 8.00054C12.6666 7.18778 12.4305 6.48968 12.204 6.00433C12.0898 5.75964 11.9752 5.56278 11.8873 5.42476C11.8433 5.35558 11.8057 5.30068 11.7778 5.26141C11.7639 5.24176 11.7523 5.22598 11.7436 5.21424L11.7326 5.19967L11.7288 5.19468L11.7273 5.19276L11.7267 5.19195C11.7267 5.19195 11.7261 5.19124 11.1999 5.60054L11.7261 5.19124Z" fill="#737D8C"/>
<path d="M2.40733 13.2096C2.63337 13.5003 3.05223 13.5526 3.34286 13.3266C3.63317 13.1008 3.68572 12.6826 3.46054 12.392L3.46004 12.3914L3.45939 12.3905L3.45029 12.3784C3.44145 12.3665 3.42722 12.3472 3.40836 12.3206C3.37062 12.2674 3.31448 12.1857 3.246 12.0781C3.10883 11.8626 2.9235 11.5452 2.73768 11.147C2.36418 10.3466 2.00023 9.24473 2.00023 8.00034C2.00023 6.75596 2.36418 5.65406 2.73768 4.8537C2.9235 4.45553 3.10883 4.13811 3.246 3.92255C3.31448 3.81495 3.37062 3.73324 3.40836 3.6801C3.42722 3.65354 3.44145 3.63416 3.45029 3.6223L3.45939 3.61019L3.46004 3.60933L3.46064 3.60855C3.68571 3.31797 3.63313 2.89988 3.34286 2.67411C3.05223 2.44806 2.63337 2.50042 2.40733 2.79105L2.90417 3.17748C2.40732 2.79106 2.40733 2.79105 2.40733 2.79105L2.406 2.79276L2.40409 2.79524L2.39856 2.80247L2.3809 2.82594C2.3663 2.84555 2.34615 2.87305 2.32126 2.9081C2.2715 2.97817 2.20265 3.0786 2.12112 3.20671C1.95829 3.46259 1.74363 3.83088 1.52944 4.28985C1.10294 5.20378 0.666896 6.50188 0.666896 8.00034C0.666896 9.49881 1.10294 10.7969 1.52944 11.7108C1.74363 12.1698 1.95829 12.5381 2.12112 12.794C2.20265 12.9221 2.2715 13.0225 2.32126 13.0926C2.34615 13.1276 2.3663 13.1551 2.3809 13.1747L2.39856 13.1982L2.40409 13.2054L2.406 13.2079L2.40674 13.2089C2.40674 13.2089 2.40733 13.2096 2.93356 12.8003L2.40733 13.2096Z" fill="#737D8C"/>
<path d="M4.14008 10.8095C4.36612 11.1001 4.78497 11.1525 5.0756 10.9264C5.36548 10.701 5.41832 10.2837 5.19431 9.99318L5.19202 9.99013C5.18904 9.98614 5.18341 9.97848 5.17549 9.96732C5.15962 9.94498 5.13473 9.90881 5.10375 9.86014C5.04158 9.76244 4.95625 9.61644 4.87043 9.43256C4.69693 9.06077 4.53298 8.55887 4.53298 8.0002C4.53298 7.44152 4.69693 6.93963 4.87043 6.56784C4.95625 6.38395 5.04158 6.23796 5.10375 6.14026C5.13473 6.09158 5.15962 6.05542 5.17549 6.03307C5.18341 6.02192 5.18904 6.01426 5.19202 6.01026L5.19432 6.0072C5.41832 5.71667 5.36547 5.29942 5.0756 5.07396C4.78497 4.84792 4.36612 4.90027 4.14008 5.19091L4.66631 5.6002C4.14008 5.19091 4.14008 5.19091 4.14008 5.19091L4.13889 5.19243L4.13742 5.19434L4.1336 5.19933L4.12263 5.21391C4.11389 5.22565 4.10234 5.24143 4.08838 5.26107C4.0605 5.30034 4.02289 5.35524 3.97887 5.42442C3.89104 5.56244 3.77638 5.7593 3.66219 6.00399C3.43569 6.48934 3.19964 7.18745 3.19964 8.0002C3.19964 8.81295 3.43569 9.51105 3.66219 9.99641C3.77638 10.2411 3.89104 10.438 3.97887 10.576C4.02289 10.6452 4.0605 10.7001 4.08838 10.7393C4.10234 10.759 4.11389 10.7747 4.12263 10.7865L4.1336 10.8011L4.13742 10.8061L4.13889 10.808L4.13952 10.8088C4.13952 10.8088 4.14008 10.8095 4.66631 10.4002L4.14008 10.8095Z" fill="#737D8C"/>
<circle cx="8.00033" cy="8.00008" r="1.33333" fill="#737D8C"/>
</svg>
