<?xml version="1.0" encoding="UTF-8" standalone="no"?>
<!DOCTYPE svg PUBLIC "-//W3C//DTD SVG 1.1//EN" "http://www.w3.org/Graphics/SVG/1.1/DTD/svg11.dtd">
<svg width="100%" height="100%" viewBox="0 0 70 70" version="1.1" xmlns="http://www.w3.org/2000/svg" xmlns:xlink="http://www.w3.org/1999/xlink" xml:space="preserve" xmlns:serif="http://www.serif.com/" style="fill-rule:evenodd;clip-rule:evenodd;stroke-linejoin:round;stroke-miterlimit:2;">
    <path d="M35,70C54.33,70 70,54.33 70,35C70,15.67 54.33,0 35,0C15.67,0 0,15.67 0,35C0,54.33 15.67,70 35,70ZM34.863,42.213L37.589,50.392C37.725,50.801 38.107,51.076 38.538,51.076C38.968,51.076 39.35,50.801 39.487,50.392L42.213,42.213C42.213,42.213 50.392,39.487 50.392,39.487C50.8,39.351 51.076,38.969 51.076,38.538C51.076,38.108 50.8,37.726 50.392,37.589L42.213,34.863C42.213,34.863 39.487,26.684 39.487,26.684C39.35,26.276 38.968,26 38.538,26C38.107,26 37.725,26.276 37.589,26.684L34.863,34.863C34.863,34.863 26.684,37.589 26.684,37.589C26.275,37.726 26,38.108 26,38.538C26,38.969 26.275,39.351 26.684,39.487L34.863,42.213ZM19.882,23L18.106,26.553C17.913,26.938 17.989,27.403 18.293,27.707C18.597,28.011 19.062,28.087 19.447,27.894L23,26.118C23,26.118 26.553,27.894 26.553,27.894C26.938,28.087 27.403,28.011 27.707,27.707C28.011,27.403 28.087,26.938 27.894,26.553L26.118,23C26.118,23 27.894,19.447 27.894,19.447C28.087,19.062 28.011,18.597 27.707,18.293C27.403,17.989 26.938,17.913 26.553,18.106L23,19.882C23,19.882 19.447,18.106 19.447,18.106C19.062,17.913 18.597,17.989 18.293,18.293C17.989,18.597 17.913,19.062 18.106,19.447L19.882,23Z" style="fill:rgb(13,189,139);"/>
</svg>
