<svg width="38" height="38" viewBox="0 0 38 38" fill="none" xmlns="http://www.w3.org/2000/svg">
<path d="M0 14C0 6.26801 6.26801 0 14 0H24C31.732 0 38 6.26801 38 14V24C38 31.732 31.732 38 24 38H14C6.26801 38 0 31.732 0 24V14Z" fill="white"/>
<path d="M0 14C0 6.26801 6.26801 0 14 0H24C31.732 0 38 6.26801 38 14V24C38 31.732 31.732 38 24 38H14C6.26801 38 0 31.732 0 24V14Z" fill="#AC3BA8" fill-opacity="0.3"/>
<path fill-rule="evenodd" clip-rule="evenodd" d="M30.0666 19C30.0666 25.0889 25.1307 30.0248 19.0418 30.0248C17.0259 30.0248 15.1364 29.4838 13.5105 28.5389L9.2568 29.8516C8.47181 30.0938 7.73681 29.3568 7.9812 28.5725L9.3342 24.2302C8.49396 22.674 8.01702 20.8927 8.01702 19C8.01702 12.9112 12.953 7.97522 19.0418 7.97522C25.1307 7.97522 30.0666 12.9112 30.0666 19ZM15.3669 19C15.3669 19.6766 14.8185 20.225 14.1419 20.225C13.4654 20.225 12.9169 19.6766 12.9169 19C12.9169 18.3235 13.4654 17.775 14.1419 17.775C14.8185 17.775 15.3669 18.3235 15.3669 19ZM19.0418 20.225C19.7184 20.225 20.2668 19.6766 20.2668 19C20.2668 18.3235 19.7184 17.775 19.0418 17.775C18.3653 17.775 17.8169 18.3235 17.8169 19C17.8169 19.6766 18.3653 20.225 19.0418 20.225ZM25.1667 19C25.1667 19.6766 24.6183 20.225 23.9417 20.225C23.2652 20.225 22.7168 19.6766 22.7168 19C22.7168 18.3235 23.2652 17.775 23.9417 17.775C24.6183 17.775 25.1667 18.3235 25.1667 19Z" fill="#1E1E1E"/>
</svg>
