<?xml version="1.0" encoding="UTF-8" standalone="no"?>
<!-- Created with Inkscape (http://www.inkscape.org/) -->

<svg
   xmlns:dc="http://purl.org/dc/elements/1.1/"
   xmlns:cc="http://creativecommons.org/ns#"
   xmlns:rdf="http://www.w3.org/1999/02/22-rdf-syntax-ns#"
   xmlns:svg="http://www.w3.org/2000/svg"
   xmlns="http://www.w3.org/2000/svg"
   xmlns:sodipodi="http://sodipodi.sourceforge.net/DTD/sodipodi-0.dtd"
   xmlns:inkscape="http://www.inkscape.org/namespaces/inkscape"
   width="223.8931mm"
   height="96.183876mm"
   viewBox="0 0 793.322 340.80901"
   id="svg2"
   version="1.1"
   inkscape:version="0.91 r13725"
   sodipodi:docname="icon.svg">
  <defs
     id="defs4" />
  <sodipodi:namedview
     id="base"
     pagecolor="#ffffff"
     bordercolor="#666666"
     borderopacity="1.0"
     inkscape:pageopacity="0.0"
     inkscape:pageshadow="2"
     inkscape:zoom="0.98994949"
     inkscape:cx="405.9467"
     inkscape:cy="81.833025"
     inkscape:document-units="px"
     inkscape:current-layer="layer1"
     showgrid="false"
     fit-margin-top="0"
     fit-margin-left="0"
     fit-margin-right="0"
     fit-margin-bottom="0"
     inkscape:window-width="1873"
     inkscape:window-height="1035"
     inkscape:window-x="25"
     inkscape:window-y="0"
     inkscape:window-maximized="0" />
  <metadata
     id="metadata7">
    <rdf:RDF>
      <cc:Work
         rdf:about="">
        <dc:format>image/svg+xml</dc:format>
        <dc:type
           rdf:resource="http://purl.org/dc/dcmitype/StillImage" />
        <dc:title></dc:title>
      </cc:Work>
    </rdf:RDF>
  </metadata>
  <g
     inkscape:label="Layer 1"
     inkscape:groupmode="layer"
     id="layer1"
     transform="translate(30.9467,-273.38623)">
    <path
       style="opacity:0.5;fill:#ffffff"
       inkscape:connector-curvature="0"
       d="m 3.0573,614.19523 -32.004,0 c -1.104,0 -2,-0.896 -2,-2 l 0,-336.809 c 0,-1.104 0.896,-2 2,-2 l 32.004,0 c 1.104,0 2,0.896 2,2 l 0,7.71 c 0,1.104 -0.896,2 -2,2 l -21.13,0 0,317.386 21.13,0 c 1.104,0 2,0.896 2,2.001 l 0,7.712 c 0,1.104 -0.896,2 -2,2 l 0,0 z"
       id="path3430" />
    <path
       style="opacity:0.5;fill:#ffffff"
       inkscape:connector-curvature="0"
       d="m -20.0717,283.09723 0,321.386 23.13,0 0,7.711 -32.006,0 0,-336.807 32.006,0 0,7.71 -23.13,0 z"
       id="path3432" />
    <path
       style="opacity:0.5;fill:#ffffff"
       inkscape:connector-curvature="0"
       d="m 221.4553,507.09723 -32.993,0 c -1.104,0 -2,-0.896 -2,-2 l 0,-68.073 c 0,-3.949 -0.154,-7.722 -0.457,-11.213 -0.289,-3.282 -1.074,-6.153 -2.332,-8.53 -1.204,-2.276 -3.017,-4.119 -5.384,-5.476 -2.393,-1.362 -5.775,-2.056 -10.042,-2.056 -4.238,0 -7.674,0.798 -10.213,2.371 -2.565,1.596 -4.604,3.701 -6.053,6.258 -1.498,2.643 -2.51,5.694 -3.013,9.067 -0.526,3.513 -0.793,7.125 -0.793,10.741 l 0,66.91 c 0,1.104 -0.896,2 -2,2 l -32.991,0 c -1.104,0 -2,-0.896 -2,-2 l 0,-67.373 c 0,-3.435 -0.078,-6.964 -0.228,-10.485 -0.148,-3.251 -0.767,-6.278 -1.841,-8.995 -1.018,-2.571 -2.667,-4.584 -5.047,-6.153 -2.372,-1.552 -6.029,-2.341 -10.865,-2.341 -1.372,0 -3.265,0.328 -5.629,0.976 -2.28,0.624 -4.536,1.826 -6.705,3.577 -2.152,1.732 -4.036,4.306 -5.605,7.655 -1.569,3.356 -2.367,7.877 -2.367,13.438 l 0,69.701 c 0,1.104 -0.895,2 -2,2 l -32.987,0 c -1.104,0 -2,-0.896 -2,-2 l 0,-120.116 c 0,-1.104 0.896,-1.999 2,-1.999 l 31.13,0 c 1.104,0 2,0.896 2,1.999 l 0,11.007 c 3.834,-4.499 8.248,-8.152 13.173,-10.896 6.396,-3.559 13.799,-5.362 22.002,-5.362 7.846,0 15.127,1.548 21.642,4.604 5.794,2.722 10.424,7.26 13.791,13.52 3.449,-4.362 7.833,-8.306 13.071,-11.752 6.422,-4.228 14.102,-6.371 22.824,-6.371 6.499,0 12.625,0.807 18.209,2.399 5.686,1.628 10.635,4.271 14.712,7.857 4.088,3.605 7.318,8.357 9.601,14.123 2.25,5.719 3.391,12.649 3.391,20.604 l 0,80.384 c -0.001,1.104 -0.896,2 -2.001,2 l 0,0 z"
       id="path3434" />
    <path
       style="opacity:0.5;fill:#ffffff"
       inkscape:connector-curvature="0"
       d="m 69.0413,384.98123 0,16.264 0.463,0 c 4.338,-6.191 9.563,-10.998 15.684,-14.406 6.117,-3.402 13.129,-5.11 21.027,-5.11 7.588,0 14.521,1.475 20.793,4.415 6.274,2.945 11.038,8.131 14.291,15.567 3.56,-5.265 8.4,-9.913 14.521,-13.94 6.117,-4.025 13.358,-6.042 21.724,-6.042 6.351,0 12.234,0.776 17.66,2.325 5.418,1.549 10.065,4.027 13.938,7.434 3.869,3.41 6.889,7.863 9.062,13.357 2.167,5.504 3.253,12.122 3.253,19.869 l 0,80.385 -32.994,0 0,-68.074 c 0,-4.025 -0.154,-7.82 -0.465,-11.385 -0.313,-3.56 -1.161,-6.656 -2.555,-9.293 -1.395,-2.631 -3.45,-4.724 -6.157,-6.274 -2.711,-1.543 -6.391,-2.322 -11.037,-2.322 -4.646,0 -8.403,0.896 -11.269,2.671 -2.868,1.784 -5.112,4.109 -6.737,6.971 -1.626,2.869 -2.711,6.12 -3.252,9.762 -0.545,3.638 -0.814,7.318 -0.814,11.035 l 0,66.91 -32.991,0 0,-67.375 c 0,-3.562 -0.081,-7.087 -0.23,-10.57 -0.158,-3.487 -0.814,-6.7 -1.978,-9.645 -1.162,-2.94 -3.099,-5.304 -5.809,-7.088 -2.711,-1.775 -6.699,-2.671 -11.965,-2.671 -1.551,0 -3.603,0.349 -6.156,1.048 -2.556,0.697 -5.036,2.016 -7.435,3.949 -2.404,1.938 -4.454,4.726 -6.158,8.363 -1.705,3.642 -2.556,8.402 -2.556,14.287 l 0,69.701 -32.99,0 0,-120.118 31.132,0 z"
       id="path3436" />
    <path
       style="opacity:0.5;fill:#ffffff"
       inkscape:connector-curvature="0"
       d="m 273.9623,510.11923 c -5.883,0 -11.46,-0.729 -16.574,-2.163 -5.192,-1.464 -9.806,-3.774 -13.713,-6.871 -3.944,-3.117 -7.068,-7.111 -9.282,-11.871 -2.205,-4.733 -3.324,-10.412 -3.324,-16.876 0,-7.13 1.293,-13.117 3.846,-17.797 2.542,-4.674 5.877,-8.464 9.912,-11.263 3.97,-2.752 8.556,-4.842 13.63,-6.209 4.901,-1.322 9.937,-2.394 14.961,-3.184 4.986,-0.775 9.949,-1.404 14.754,-1.872 4.679,-0.452 8.88,-1.139 12.489,-2.039 3.412,-0.854 6.118,-2.09 8.042,-3.672 1.666,-1.37 2.416,-3.384 2.292,-6.151 -0.002,-3.289 -0.502,-5.816 -1.492,-7.595 -0.998,-1.798 -2.283,-3.15 -3.927,-4.138 -1.703,-1.02 -3.725,-1.713 -6.012,-2.062 -2.47,-0.37 -5.146,-0.557 -7.947,-0.557 -6.034,0 -10.789,1.271 -14.135,3.783 -3.233,2.424 -5.155,6.64 -5.714,12.527 -0.098,1.026 -0.961,1.812 -1.992,1.812 l -32.992,0 c -0.552,0 -1.079,-0.229 -1.457,-0.629 -0.376,-0.402 -0.572,-0.941 -0.54,-1.491 0.485,-8.073 2.55,-14.894 6.142,-20.272 3.548,-5.331 8.147,-9.682 13.661,-12.931 5.424,-3.191 11.612,-5.498 18.392,-6.857 6.684,-1.335 13.5,-2.013 20.26,-2.013 6.096,0 12.365,0.437 18.626,1.296 6.377,0.88 12.285,2.622 17.562,5.177 5.376,2.604 9.845,6.29 13.282,10.951 3.498,4.744 5.271,11.048 5.271,18.731 l 0,62.494 c 0,5.307 0.306,10.462 0.915,15.319 0.576,4.64 1.572,8.116 2.963,10.338 0.385,0.616 0.407,1.395 0.055,2.031 -0.353,0.635 -1.022,1.03 -1.75,1.03 l -33.457,0 c -0.861,0 -1.624,-0.55 -1.898,-1.367 -0.646,-1.941 -1.176,-3.939 -1.572,-5.936 -0.141,-0.696 -0.267,-1.402 -0.38,-2.12 -4.825,4.184 -10.349,7.24 -16.474,9.105 -7.299,2.218 -14.843,3.342 -22.423,3.342 l 0,0 z m 37.032,-60.072 c -0.809,0.409 -1.676,0.768 -2.596,1.074 -2.161,0.72 -4.511,1.326 -6.988,1.807 -2.442,0.475 -5.033,0.872 -7.699,1.186 -2.631,0.311 -5.251,0.697 -7.784,1.146 -2.329,0.433 -4.705,1.035 -7.051,1.792 -2.194,0.711 -4.114,1.667 -5.699,2.842 -1.531,1.128 -2.785,2.587 -3.731,4.335 -0.917,1.709 -1.385,3.97 -1.385,6.719 0,2.598 0.465,4.778 1.385,6.481 0.928,1.722 2.142,3.035 3.716,4.018 1.644,1.026 3.601,1.757 5.816,2.17 2.344,0.439 4.799,0.663 7.297,0.663 6.105,0 10.836,-0.996 14.063,-2.961 3.244,-1.973 5.666,-4.349 7.199,-7.062 1.568,-2.78 2.542,-5.62 2.892,-8.436 0.376,-3.019 0.565,-5.436 0.565,-7.187 l 0,-8.587 0,0 z"
       id="path3438" />
    <path
       style="opacity:0.5;fill:#ffffff"
       inkscape:connector-curvature="0"
       d="m 242.5973,402.64123 c 3.405,-5.113 7.744,-9.215 13.012,-12.316 5.264,-3.097 11.186,-5.303 17.771,-6.621 6.582,-1.315 13.205,-1.976 19.865,-1.976 6.042,0 12.158,0.428 18.354,1.277 6.195,0.855 11.85,2.522 16.962,4.997 5.111,2.477 9.292,5.926 12.546,10.338 3.253,4.414 4.879,10.262 4.879,17.543 l 0,62.494 c 0,5.428 0.31,10.611 0.931,15.567 0.615,4.959 1.701,8.676 3.251,11.153 l -33.455,0 c -0.621,-1.86 -1.126,-3.755 -1.511,-5.693 -0.39,-1.933 -0.661,-3.908 -0.813,-5.923 -5.267,5.422 -11.465,9.217 -18.585,11.386 -7.127,2.163 -14.407,3.251 -21.842,3.251 -5.733,0 -11.077,-0.698 -16.033,-2.09 -4.958,-1.395 -9.293,-3.562 -13.01,-6.51 -3.718,-2.938 -6.622,-6.656 -8.713,-11.147 -2.091,-4.491 -3.138,-9.84 -3.138,-16.033 0,-6.813 1.199,-12.43 3.604,-16.84 2.399,-4.417 5.495,-7.939 9.295,-10.575 3.793,-2.632 8.129,-4.607 13.01,-5.923 4.878,-1.315 9.795,-2.358 14.752,-3.137 4.957,-0.772 9.835,-1.393 14.638,-1.857 4.801,-0.466 9.062,-1.164 12.779,-2.093 3.718,-0.929 6.658,-2.282 8.829,-4.065 2.165,-1.781 3.172,-4.375 3.02,-7.785 0,-3.56 -0.58,-6.389 -1.742,-8.479 -1.161,-2.09 -2.711,-3.719 -4.646,-4.88 -1.937,-1.161 -4.183,-1.936 -6.737,-2.325 -2.557,-0.382 -5.309,-0.58 -8.248,-0.58 -6.506,0 -11.617,1.395 -15.335,4.183 -3.716,2.788 -5.889,7.437 -6.506,13.94 l -32.991,0 c 0.462,-7.742 2.395,-14.173 5.807,-19.281 z m 65.169,46.583 c -2.09,0.696 -4.337,1.275 -6.736,1.741 -2.402,0.465 -4.918,0.853 -7.551,1.161 -2.635,0.313 -5.268,0.698 -7.899,1.163 -2.48,0.461 -4.919,1.086 -7.317,1.857 -2.404,0.779 -4.495,1.822 -6.274,3.138 -1.784,1.317 -3.216,2.985 -4.3,4.994 -1.085,2.014 -1.626,4.571 -1.626,7.668 0,2.94 0.541,5.422 1.626,7.431 1.084,2.017 2.558,3.604 4.416,4.765 1.858,1.161 4.025,1.976 6.507,2.438 2.475,0.466 5.031,0.698 7.665,0.698 6.505,0 11.537,-1.082 15.103,-3.253 3.561,-2.166 6.192,-4.762 7.899,-7.785 1.702,-3.019 2.749,-6.072 3.137,-9.174 0.384,-3.097 0.58,-5.576 0.58,-7.434 l 0,-12.316 c -1.396,1.243 -3.138,2.21 -5.23,2.908 z"
       id="path3440" />
    <path
       style="opacity:0.5;fill:#ffffff"
       inkscape:connector-curvature="0"
       d="m 413.5953,508.26023 c -5.187,0 -10.173,-0.361 -14.823,-1.069 -4.802,-0.732 -9.104,-2.183 -12.779,-4.313 -3.789,-2.185 -6.821,-5.341 -9.006,-9.375 -2.163,-3.986 -3.26,-9.232 -3.26,-15.59 l 0,-68.859 -17.981,0 c -1.104,0 -2,-0.896 -2,-1.999 l 0,-22.073 c 0,-1.104 0.896,-1.999 2,-1.999 l 17.981,0 0,-34.015 c 0,-1.104 0.896,-2 2,-2 l 32.992,0 c 1.104,0 2,0.896 2,2 l 0,34.014 22.162,0 c 1.104,0 2,0.896 2,1.999 l 0,22.073 c 0,1.104 -0.896,1.999 -2,1.999 l -22.162,0 0,57.479 c 0,6.229 1.198,8.731 2.202,9.733 1.004,1.007 3.506,2.205 9.738,2.205 1.804,0 3.542,-0.076 5.161,-0.225 1.604,-0.144 3.174,-0.367 4.669,-0.665 0.13,-0.026 0.261,-0.039 0.391,-0.039 0.458,0 0.907,0.159 1.27,0.454 0.463,0.379 0.73,0.946 0.73,1.546 l 0,25.555 c 0,0.979 -0.707,1.813 -1.672,1.974 -2.834,0.472 -6.041,0.794 -9.527,0.957 -3.613,0.157 -6.91,0.233 -10.086,0.233 l 0,0 z"
       id="path3442" />
    <path
       style="opacity:0.5;fill:#ffffff"
       inkscape:connector-curvature="0"
       d="m 432.8783,384.98123 0,22.072 -24.161,0 0,59.479 c 0,5.573 0.928,9.292 2.788,11.149 1.856,1.859 5.576,2.788 11.152,2.788 1.859,0 3.638,-0.076 5.343,-0.232 1.703,-0.152 3.33,-0.388 4.878,-0.696 l 0,25.557 c -2.788,0.465 -5.887,0.773 -9.293,0.931 -3.407,0.149 -6.737,0.23 -9.99,0.23 -5.111,0 -9.953,-0.35 -14.521,-1.048 -4.571,-0.695 -8.597,-2.047 -12.081,-4.063 -3.486,-2.011 -6.236,-4.88 -8.248,-8.597 -2.016,-3.714 -3.021,-8.595 -3.021,-14.639 l 0,-70.859 -19.98,0 0,-22.072 19.98,0 0,-36.012 32.992,0 0,36.012 24.162,0 z"
       id="path3444" />
    <path
       style="opacity:0.5;fill:#ffffff"
       inkscape:connector-curvature="0"
       d="m 481.6663,507.09723 -32.991,0 c -1.104,0 -2,-0.896 -2,-2 l 0,-120.117 c 0,-1.104 0.896,-1.999 2,-1.999 l 31.366,0 c 1.104,0 2,0.896 2,1.999 l 0,15.069 c 0.967,-1.516 2.034,-2.978 3.199,-4.382 2.754,-3.312 5.949,-6.182 9.496,-8.522 3.545,-2.332 7.385,-4.169 11.415,-5.462 4.056,-1.298 8.327,-1.954 12.691,-1.954 2.341,0 4.953,0.418 7.766,1.243 0.852,0.25 1.437,1.032 1.437,1.92 l 0,30.67 c 0,0.6 -0.269,1.167 -0.732,1.547 -0.361,0.296 -0.808,0.452 -1.265,0.452 -0.133,0 -0.265,-0.013 -0.398,-0.039 -1.484,-0.3 -3.299,-0.565 -5.392,-0.787 -2.098,-0.224 -4.136,-0.339 -6.062,-0.339 -5.706,0 -10.572,0.95 -14.467,2.823 -3.862,1.86 -7.012,4.428 -9.361,7.629 -2.389,3.263 -4.115,7.12 -5.127,11.47 -1.043,4.479 -1.574,9.409 -1.574,14.647 l 0,54.132 c -0.001,1.104 -0.897,2 -2.001,2 l 0,0 z"
       id="path3446" />
    <path
       style="opacity:0.5;fill:#ffffff"
       inkscape:connector-curvature="0"
       d="m 480.0413,384.98123 0,22.305 0.465,0 c 1.546,-3.72 3.636,-7.163 6.272,-10.341 2.634,-3.172 5.652,-5.885 9.06,-8.131 3.405,-2.242 7.047,-3.985 10.923,-5.228 3.868,-1.237 7.898,-1.859 12.081,-1.859 2.168,0 4.566,0.39 7.202,1.163 l 0,30.67 c -1.551,-0.312 -3.41,-0.584 -5.576,-0.814 -2.17,-0.233 -4.26,-0.35 -6.274,-0.35 -6.041,0 -11.152,1.01 -15.332,3.021 -4.182,2.014 -7.55,4.761 -10.107,8.247 -2.555,3.487 -4.379,7.55 -5.462,12.198 -1.083,4.645 -1.625,9.682 -1.625,15.102 l 0,54.133 -32.991,0 0,-120.116 31.364,0 z"
       id="path3448" />
    <path
       style="opacity:0.5;fill:#ffffff"
       inkscape:connector-curvature="0"
       d="m 572.9763,507.09723 -32.993,0 c -1.104,0 -2,-0.896 -2,-2 l 0,-120.117 c 0,-1.104 0.896,-1.999 2,-1.999 l 32.994,0 c 1.104,0 2,0.896 2,1.999 l 0,120.117 c -10e-4,1.104 -0.897,2 -2.001,2 l 0,0 z m 0,-138.705 -32.993,0 c -1.104,0 -2,-0.896 -2,-1.999 l 0,-27.182 c 0,-1.104 0.896,-2 2,-2 l 32.994,0 c 1.104,0 2,0.896 2,2 l 0,27.182 c -10e-4,1.103 -0.897,1.999 -2.001,1.999 l 0,0 z"
       id="path3450" />
    <path
       style="opacity:0.5;fill:#ffffff"
       inkscape:connector-curvature="0"
       d="m 539.9833,366.39323 0,-27.183 32.994,0 0,27.183 -32.994,0 z m 32.994,18.588 0,120.117 -32.994,0 0,-120.117 32.994,0 z"
       id="path3452" />
    <path
       style="opacity:0.5;fill:#ffffff"
       inkscape:connector-curvature="0"
       d="m 711.2163,507.09723 -37.64,0 c -0.671,0 -1.297,-0.335 -1.667,-0.896 l -23.426,-35.352 -23.426,35.352 c -0.369,0.561 -0.995,0.896 -1.667,0.896 l -36.938,0 c -0.741,0 -1.424,-0.411 -1.77,-1.067 -0.345,-0.654 -0.3,-1.449 0.118,-2.061 l 42.435,-62.055 -38.71,-55.793 c -0.424,-0.613 -0.474,-1.408 -0.128,-2.069 0.343,-0.658 1.028,-1.071 1.771,-1.071 l 37.636,0 c 0.665,0 1.287,0.33 1.658,0.882 l 19.477,28.893 19.255,-28.884 c 0.372,-0.556 0.996,-0.891 1.665,-0.891 l 36.475,0 c 0.746,0 1.43,0.415 1.776,1.078 0.343,0.66 0.289,1.46 -0.139,2.071 l -38.69,55.082 43.578,62.744 c 0.424,0.61 0.474,1.408 0.128,2.066 -0.343,0.662 -1.026,1.075 -1.771,1.075 l 0,0 z"
       id="path3454" />
    <path
       style="opacity:0.5;fill:#ffffff"
       inkscape:connector-curvature="0"
       d="m 590.1683,384.98123 37.637,0 21.144,31.365 20.911,-31.365 36.476,0 -39.496,56.226 44.377,63.892 -37.64,0 -25.093,-37.87 -25.094,37.87 -36.938,0 43.213,-63.193 -39.497,-56.925 z"
       id="path3456" />
    <path
       style="opacity:0.5;fill:#ffffff"
       inkscape:connector-curvature="0"
       d="m 760.3753,614.19523 -32.008,0 c -1.105,0 -2,-0.896 -2,-2 l 0,-7.712 c 0,-1.105 0.896,-2.001 2,-2.001 l 21.13,0 0,-317.386 -21.13,0 c -1.105,0 -2,-0.896 -2,-2 l 0,-7.71 c 0,-1.104 0.896,-2 2,-2 l 32.008,0 c 1.104,0 2,0.896 2,2 l 0,336.809 c 0,1.104 -0.896,2 -2,2 l 0,0 z"
       id="path3458" />
    <path
       style="opacity:0.5;fill:#ffffff"
       inkscape:connector-curvature="0"
       d="m 751.4963,604.48323 0,-321.386 -23.13,0 0,-7.71 32.008,0 0,336.807 -32.008,0 0,-7.711 23.13,0 z"
       id="path3460" />
    <path
       inkscape:connector-curvature="0"
       d="m -20.0717,283.09723 0,321.386 23.13,0 0,7.711 -32.006,0 0,-336.807 32.006,0 0,7.71 -23.13,0 z"
       id="path3462" />
    <path
       inkscape:connector-curvature="0"
       d="m 62.980385,334.4736 0,16.264 0.463,0 c 4.338,-6.191 9.563,-10.998 15.684,-14.406 6.117,-3.402 13.129,-5.11 21.026995,-5.11 7.588,0 14.521,1.475 20.793,4.415 6.274,2.945 11.038,8.131 14.291,15.567 3.56,-5.265 8.4,-9.913 14.521,-13.94 6.117,-4.025 13.358,-6.042 21.724,-6.042 6.351,0 12.234,0.776 17.66,2.325 5.418,1.549 10.065,4.027 13.938,7.434 3.869,3.41 6.889,7.863 9.062,13.357 2.167,5.504 3.253,12.122 3.253,19.869 l 0,80.385 -32.994,0 0,-68.074 c 0,-4.025 -0.154,-7.82 -0.465,-11.385 -0.313,-3.56 -1.161,-6.656 -2.555,-9.293 -1.395,-2.631 -3.45,-4.724 -6.157,-6.274 -2.711,-1.543 -6.391,-2.322 -11.037,-2.322 -4.646,0 -8.403,0.896 -11.269,2.671 -2.868,1.784 -5.112,4.109 -6.737,6.971 -1.626,2.869 -2.711,6.12 -3.252,9.762 -0.545,3.638 -0.814,7.318 -0.814,11.035 l 0,66.91 -32.991,0 0,-67.375 c 0,-3.562 -0.081,-7.087 -0.23,-10.57 -0.158,-3.487 -0.814,-6.7 -1.978,-9.645 -1.162,-2.94 -3.099,-5.304 -5.808995,-7.088 -2.711,-1.775 -6.699,-2.671 -11.965,-2.671 -1.551,0 -3.603,0.349 -6.156,1.048 -2.556,0.697 -5.036,2.016 -7.435,3.949 -2.404,1.938 -4.454,4.726 -6.158,8.363 -1.705,3.642 -2.556,8.402 -2.556,14.287 l 0,69.701 -32.99,0 0,-120.118 31.132,0 z"
       id="path3464" />
    <path
       inkscape:connector-curvature="0"
       d="m 236.53638,352.1336 c 3.405,-5.113 7.744,-9.215 13.012,-12.316 5.264,-3.097 11.186,-5.303 17.771,-6.621 6.582,-1.315 13.205,-1.976 19.865,-1.976 6.042,0 12.158,0.428 18.354,1.277 6.195,0.855 11.85,2.522 16.962,4.997 5.111,2.477 9.292,5.926 12.546,10.338 3.253,4.414 4.879,10.262 4.879,17.543 l 0,62.494 c 0,5.428 0.31,10.611 0.931,15.567 0.615,4.959 1.701,8.676 3.251,11.153 l -33.455,0 c -0.621,-1.86 -1.126,-3.755 -1.511,-5.693 -0.39,-1.933 -0.661,-3.908 -0.813,-5.923 -5.267,5.422 -11.465,9.217 -18.585,11.386 -7.127,2.163 -14.407,3.251 -21.842,3.251 -5.733,0 -11.077,-0.698 -16.033,-2.09 -4.958,-1.395 -9.293,-3.562 -13.01,-6.51 -3.718,-2.938 -6.622,-6.656 -8.713,-11.147 -2.091,-4.491 -3.138,-9.84 -3.138,-16.033 0,-6.813 1.199,-12.43 3.604,-16.84 2.399,-4.417 5.495,-7.939 9.295,-10.575 3.793,-2.632 8.129,-4.607 13.01,-5.923 4.878,-1.315 9.795,-2.358 14.752,-3.137 4.957,-0.772 9.835,-1.393 14.638,-1.857 4.801,-0.466 9.062,-1.164 12.779,-2.093 3.718,-0.929 6.658,-2.282 8.829,-4.065 2.165,-1.781 3.172,-4.375 3.02,-7.785 0,-3.56 -0.58,-6.389 -1.742,-8.479 -1.161,-2.09 -2.711,-3.719 -4.646,-4.88 -1.937,-1.161 -4.183,-1.936 -6.737,-2.325 -2.557,-0.382 -5.309,-0.58 -8.248,-0.58 -6.506,0 -11.617,1.395 -15.335,4.183 -3.716,2.788 -5.889,7.437 -6.506,13.94 l -32.991,0 c 0.462,-7.742 2.395,-14.173 5.807,-19.281 z m 65.169,46.583 c -2.09,0.696 -4.337,1.275 -6.736,1.741 -2.402,0.465 -4.918,0.853 -7.551,1.161 -2.635,0.313 -5.268,0.698 -7.899,1.163 -2.48,0.461 -4.919,1.086 -7.317,1.857 -2.404,0.779 -4.495,1.822 -6.274,3.138 -1.784,1.317 -3.216,2.985 -4.3,4.994 -1.085,2.014 -1.626,4.571 -1.626,7.668 0,2.94 0.541,5.422 1.626,7.431 1.084,2.017 2.558,3.604 4.416,4.765 1.858,1.161 4.025,1.976 6.507,2.438 2.475,0.466 5.031,0.698 7.665,0.698 6.505,0 11.537,-1.082 15.103,-3.253 3.561,-2.166 6.192,-4.762 7.899,-7.785 1.702,-3.019 2.749,-6.072 3.137,-9.174 0.384,-3.097 0.58,-5.576 0.58,-7.434 l 0,-12.316 c -1.396,1.243 -3.138,2.21 -5.23,2.908 z"
       id="path3466" />
    <path
       inkscape:connector-curvature="0"
       d="m 426.81738,334.4736 0,22.072 -24.161,0 0,59.479 c 0,5.573 0.928,9.292 2.788,11.149 1.856,1.859 5.576,2.788 11.152,2.788 1.859,0 3.638,-0.076 5.343,-0.232 1.703,-0.152 3.33,-0.388 4.878,-0.696 l 0,25.557 c -2.788,0.465 -5.887,0.773 -9.293,0.931 -3.407,0.149 -6.737,0.23 -9.99,0.23 -5.111,0 -9.953,-0.35 -14.521,-1.048 -4.571,-0.695 -8.597,-2.047 -12.081,-4.063 -3.486,-2.011 -6.236,-4.88 -8.248,-8.597 -2.016,-3.714 -3.021,-8.595 -3.021,-14.639 l 0,-70.859 -19.98,0 0,-22.072 19.98,0 0,-36.012 32.992,0 0,36.012 24.162,0 z"
       id="path3468" />
    <path
       inkscape:connector-curvature="0"
       d="m 473.98038,334.4736 0,22.305 0.465,0 c 1.546,-3.72 3.636,-7.163 6.272,-10.341 2.634,-3.172 5.652,-5.885 9.06,-8.131 3.405,-2.242 7.047,-3.985 10.923,-5.228 3.868,-1.237 7.898,-1.859 12.081,-1.859 2.168,0 4.566,0.39 7.202,1.163 l 0,30.67 c -1.551,-0.312 -3.41,-0.584 -5.576,-0.814 -2.17,-0.233 -4.26,-0.35 -6.274,-0.35 -6.041,0 -11.152,1.01 -15.332,3.021 -4.182,2.014 -7.55,4.761 -10.107,8.247 -2.555,3.487 -4.379,7.55 -5.462,12.198 -1.083,4.645 -1.625,9.682 -1.625,15.102 l 0,54.133 -32.991,0 0,-120.116 31.364,0 z"
       id="path3470" />
    <path
       inkscape:connector-curvature="0"
       d="m 533.92238,315.8856 0,-27.183 32.994,0 0,27.183 -32.994,0 z m 32.994,18.588 0,120.117 -32.994,0 0,-120.117 32.994,0 z"
       id="path3472" />
    <path
       inkscape:connector-curvature="0"
       d="m 584.10738,334.4736 37.637,0 21.144,31.365 20.911,-31.365 36.476,0 -39.496,56.226 44.377,63.892 -37.64,0 -25.093,-37.87 -25.094,37.87 -36.938,0 43.213,-63.193 -39.497,-56.925 z"
       id="path3474" />
    <path
       inkscape:connector-curvature="0"
       d="m 751.4963,604.48323 0,-321.386 -23.13,0 0,-7.71 32.008,0 0,336.807 -32.008,0 0,-7.711 23.13,0 z"
       id="path3476" />
    <text
       xml:space="preserve"
       style="font-style:normal;font-weight:normal;font-size:80.1158371px;line-height:125%;font-family:sans-serif;letter-spacing:0px;word-spacing:0px;fill:#000000;fill-opacity:1;stroke:none;stroke-width:1px;stroke-linecap:butt;stroke-linejoin:miter;stroke-opacity:1"
       x="201.6066"
       y="564.091"
       id="text3510"
       sodipodi:linespacing="125%"><tspan
         sodipodi:role="line"
         id="tspan3512"
         x="201.6066"
         y="564.091"
         style="font-style:normal;font-variant:normal;font-weight:normal;font-stretch:normal;font-family:Consolas;-inkscape-font-specification:Consolas">Console</tspan></text>
  </g>
</svg>
