<?xml version="1.0" encoding="UTF-8" standalone="no"?>
<!DOCTYPE svg PUBLIC "-//W3C//DTD SVG 1.1//EN" "http://www.w3.org/Graphics/SVG/1.1/DTD/svg11.dtd">
<svg width="100%" height="100%" viewBox="0 0 18 18" version="1.1" xmlns="http://www.w3.org/2000/svg" xmlns:xlink="http://www.w3.org/1999/xlink" xml:space="preserve" xmlns:serif="http://www.serif.com/" style="fill-rule:evenodd;clip-rule:evenodd;stroke-linejoin:round;stroke-miterlimit:2;">
    <path d="M1.125,9.304L1.125,2.306L9,0L16.875,2.306L16.875,9.304C16.875,16.459 9,18 9,18C9,18 1.125,16.459 1.125,9.304Z" style="fill:rgb(125,200,27);fill-rule:nonzero;"/>
    <path d="M13.062,5.107C12.859,4.893 12.522,4.882 12.308,5.085L7.504,9.585L5.738,8.347C5.502,8.19 5.175,8.19 4.95,8.392C4.68,8.617 4.658,9.022 4.883,9.292L6.919,11.632C6.953,11.666 6.987,11.711 7.032,11.733C7.414,12.048 7.988,11.992 8.303,11.61L8.337,11.565L13.084,5.816C13.242,5.613 13.242,5.31 13.062,5.107Z" style="fill:white;fill-rule:nonzero;"/>
</svg>
