<svg width="18" height="18" viewBox="0 0 18 18" fill="none" xmlns="http://www.w3.org/2000/svg">
<path d="M1.125 9.30375V2.30625L9 0L16.875 2.30625V9.30375C16.875 16.4587 9 18 9 18C9 18 1.125 16.4587 1.125 9.30375Z" fill="#0DBD8B"/>
<path d="M13.0617 5.10705C12.8592 4.8933 12.5217 4.88205 12.3079 5.08455L7.50415 9.58455L5.7379 8.34705C5.50165 8.18955 5.1754 8.18955 4.9504 8.39205C4.6804 8.61705 4.6579 9.02205 4.8829 9.29205L6.91915 11.6321C6.9529 11.6658 6.98665 11.7108 7.03165 11.7333C7.41415 12.0483 7.9879 11.9921 8.3029 11.6096L8.33665 11.5646L13.0842 5.8158C13.2417 5.6133 13.2417 5.30955 13.0617 5.10705Z" fill="white"/>
</svg>
