<svg width="49" height="48" viewBox="0 0 49 48" fill="none" xmlns="http://www.w3.org/2000/svg">
<circle cx="24.5" cy="24" r="24" fill="#F4F6FA"/>
<path d="M18.25 16.5002C18.25 15.6718 18.8096 15.0002 19.5 15.0002H20.75C21.4404 15.0002 22 15.6718 22 16.5002V31.5002C22 32.3287 21.4404 33.0002 20.75 33.0002H19.5C18.8096 33.0002 18.25 32.3287 18.25 31.5002V16.5002Z" fill="#737D8C"/>
<path d="M27 16.5002C27 15.6718 27.5596 15.0002 28.25 15.0002H29.5C30.1904 15.0002 30.75 15.6718 30.75 16.5002V31.5002C30.75 32.3287 30.1904 33.0002 29.5 33.0002H28.25C27.5596 33.0002 27 32.3287 27 31.5002V16.5002Z" fill="#737D8C"/>
</svg>
