<svg width="25" height="24" viewBox="0 0 25 24" fill="none" xmlns="http://www.w3.org/2000/svg">
<path d="M12.4763 23.1499C9.82784 23.1499 7.55443 22.2702 5.65607 20.5107C3.7577 18.7513 2.70665 16.5751 2.50292 13.9822C2.4844 13.7599 2.55386 13.5655 2.71128 13.3988C2.86871 13.2321 3.0678 13.1488 3.30857 13.1488C3.53082 13.1488 3.72066 13.2275 3.87808 13.3849C4.03551 13.5423 4.13274 13.7414 4.16978 13.9822C4.37351 16.1121 5.2625 17.8947 6.83676 19.33C8.41101 20.7654 10.2909 21.4831 12.4763 21.4831C14.7914 21.4831 16.7592 20.6728 18.3798 19.0522C20.0003 17.4317 20.8106 15.4638 20.8106 13.1488C20.8106 10.8337 20.0235 8.86587 18.4492 7.24531C16.875 5.62475 14.9303 4.81447 12.6152 4.81447H12.004L13.4486 6.25908C13.6153 6.42577 13.6987 6.62024 13.6987 6.84248C13.6987 7.06473 13.6153 7.2592 13.4486 7.42588C13.2819 7.59257 13.0875 7.67591 12.8652 7.67591C12.643 7.67591 12.4485 7.59257 12.2818 7.42588L9.36483 4.50888C9.27222 4.41628 9.2074 4.32368 9.17036 4.23107C9.13332 4.13847 9.1148 4.0366 9.1148 3.92548C9.1148 3.81436 9.13332 3.71249 9.17036 3.61989C9.2074 3.52729 9.27222 3.43468 9.36483 3.34208L12.3096 0.397297C12.4578 0.249131 12.643 0.175049 12.8652 0.175049C13.0875 0.175049 13.2819 0.249131 13.4486 0.397297C13.5968 0.563982 13.6709 0.758449 13.6709 0.980697C13.6709 1.20294 13.5968 1.38815 13.4486 1.53632L11.8373 3.14761H12.4763C13.8653 3.14761 15.1664 3.4069 16.3795 3.92548C17.5926 4.44406 18.6529 5.1571 19.5604 6.06462C20.468 6.97213 21.181 8.03244 21.6996 9.24554C22.2182 10.4586 22.4774 11.7597 22.4774 13.1488C22.4774 14.5378 22.2182 15.8389 21.6996 17.052C21.181 18.2651 20.468 19.3254 19.5604 20.2329C18.6529 21.1404 17.5926 21.8535 16.3795 22.372C15.1664 22.8906 13.8653 23.1499 12.4763 23.1499Z" fill="#737D8C"/>
<path d="M9.51705 17.0895C9.05682 17.0895 8.64773 17.0107 8.28977 16.853C7.93395 16.6953 7.6527 16.4759 7.44602 16.1946C7.23935 15.9134 7.12962 15.5884 7.11683 15.2198H8.31854C8.32919 15.3967 8.38778 15.5511 8.49432 15.6832C8.60085 15.8132 8.74254 15.9144 8.91939 15.9869C9.09624 16.0593 9.29439 16.0955 9.51385 16.0955C9.74822 16.0955 9.95597 16.055 10.1371 15.9741C10.3182 15.891 10.4599 15.7759 10.5621 15.6289C10.6644 15.4819 10.7145 15.3125 10.7124 15.1207C10.7145 14.9226 10.6634 14.7479 10.5589 14.5966C10.4545 14.4453 10.3033 14.3271 10.1051 14.2418C9.90909 14.1566 9.67259 14.114 9.3956 14.114H8.81712V13.1999H9.3956C9.62358 13.1999 9.8228 13.1605 9.99325 13.0817C10.1658 13.0028 10.3011 12.892 10.3991 12.7493C10.4972 12.6044 10.5451 12.4371 10.543 12.2475C10.5451 12.0621 10.5036 11.9013 10.4183 11.7649C10.3352 11.6264 10.217 11.5188 10.0636 11.4421C9.91229 11.3654 9.73438 11.3271 9.52983 11.3271C9.32955 11.3271 9.14418 11.3633 8.97372 11.4357C8.80327 11.5082 8.66584 11.6115 8.56143 11.7457C8.45703 11.8778 8.40163 12.0355 8.39524 12.2188H7.25426C7.26278 11.8523 7.36825 11.5305 7.57067 11.2536C7.77521 10.9744 8.04794 10.7571 8.38885 10.6016C8.72976 10.4439 9.11222 10.3651 9.53622 10.3651C9.97301 10.3651 10.3523 10.4471 10.674 10.6112C10.9979 10.7731 11.2482 10.9915 11.4251 11.2663C11.6019 11.5412 11.6903 11.8448 11.6903 12.1772C11.6925 12.5458 11.5838 12.8548 11.3643 13.104C11.147 13.3533 10.8615 13.5163 10.5078 13.593V13.6442C10.968 13.7081 11.3207 13.8786 11.5657 14.1555C11.8129 14.4304 11.9354 14.7724 11.9332 15.1815C11.9332 15.5479 11.8288 15.8761 11.62 16.1658C11.4134 16.4535 11.1278 16.6793 10.7635 16.8434C10.4013 17.0075 9.9858 17.0895 9.51705 17.0895ZM15.0151 17.1246C14.4889 17.1246 14.0371 16.9915 13.66 16.7251C13.285 16.4567 12.9963 16.07 12.7939 15.565C12.5936 15.0579 12.4935 14.4474 12.4935 13.7337C12.4956 13.0199 12.5968 12.4126 12.7971 11.9119C12.9995 11.4091 13.2882 11.0256 13.6632 10.7614C14.0403 10.4972 14.491 10.3651 15.0151 10.3651C15.5393 10.3651 15.9899 10.4972 16.367 10.7614C16.7442 11.0256 17.0329 11.4091 17.2332 11.9119C17.4356 12.4148 17.5368 13.022 17.5368 13.7337C17.5368 14.4496 17.4356 15.0611 17.2332 15.5682C17.0329 16.0732 16.7442 16.4588 16.367 16.7251C15.992 16.9915 15.5414 17.1246 15.0151 17.1246ZM15.0151 16.1243C15.4242 16.1243 15.747 15.9229 15.9835 15.5202C16.2222 15.1154 16.3415 14.5199 16.3415 13.7337C16.3415 13.2138 16.2871 12.777 16.1785 12.4233C16.0698 12.0696 15.9164 11.8033 15.7183 11.6243C15.5201 11.4432 15.2857 11.3526 15.0151 11.3526C14.6082 11.3526 14.2864 11.555 14.0499 11.9599C13.8134 12.3626 13.6941 12.9538 13.692 13.7337C13.6898 14.2557 13.742 14.6946 13.8486 15.0504C13.9572 15.4062 14.1107 15.6747 14.3088 15.8558C14.507 16.0348 14.7424 16.1243 15.0151 16.1243Z" fill="#737D8C"/>
</svg>
