<svg width="22" height="18" viewBox="0 0 22 18" fill="none" xmlns="http://www.w3.org/2000/svg">
<path d="M3 15C2.45 15 1.97933 14.8043 1.588 14.413C1.196 14.021 1 13.55 1 13V2C1 1.45 1.196 0.979 1.588 0.587C1.97933 0.195667 2.45 0 3 0H19C19.55 0 20.021 0.195667 20.413 0.587C20.8043 0.979 21 1.45 21 2V13C21 13.55 20.8043 14.021 20.413 14.413C20.021 14.8043 19.55 15 19 15H3ZM3 13H19V2H3V13ZM1 18C0.716667 18 0.479333 17.904 0.288 17.712C0.096 17.5207 0 17.2833 0 17C0 16.7167 0.096 16.4793 0.288 16.288C0.479333 16.096 0.716667 16 1 16H21C21.2833 16 21.5207 16.096 21.712 16.288C21.904 16.4793 22 16.7167 22 17C22 17.2833 21.904 17.5207 21.712 17.712C21.5207 17.904 21.2833 18 21 18H1ZM3 13V2V13Z" fill="#737D8C"/>
</svg>
