<svg width="32" height="32" viewBox="0 0 32 32" fill="none" xmlns="http://www.w3.org/2000/svg">
<circle cx="16" cy="16" r="16" fill="white"/>
<path d="M11.833 11C11.833 10.4477 12.2061 10 12.6663 10H13.4997C13.9599 10 14.333 10.4477 14.333 11V21C14.333 21.5523 13.9599 22 13.4997 22H12.6663C12.2061 22 11.833 21.5523 11.833 21V11Z" fill="#737D8C"/>
<path d="M17.6663 11C17.6663 10.4477 18.0394 10 18.4997 10H19.333C19.7932 10 20.1663 10.4477 20.1663 11V21C20.1663 21.5523 19.7932 22 19.333 22H18.4997C18.0394 22 17.6663 21.5523 17.6663 21V11Z" fill="#737D8C"/>
</svg>
