<svg width="24" height="24" viewBox="0 0 24 24" fill="none" xmlns="http://www.w3.org/2000/svg">
<path fill-rule="evenodd" clip-rule="evenodd" d="M15.9721 2.2793C16.0601 3.42765 15.6969 4.56506 14.9598 5.44997C14.2446 6.33947 13.161 6.85183 12.0197 6.84008C11.9471 5.72478 12.3208 4.62638 13.0585 3.78679C13.8056 2.93583 14.8459 2.39758 15.9721 2.2793ZM19.5816 9.02677C18.2687 9.83389 17.4609 11.2573 17.441 12.7983C17.4429 14.5417 18.487 16.1151 20.0927 16.7942C19.7839 17.7974 19.3184 18.7454 18.7134 19.6033C17.901 20.8185 17.0492 22.0058 15.6973 22.0277C15.0543 22.0426 14.6203 21.8577 14.168 21.665C13.6963 21.4641 13.2047 21.2547 12.4354 21.2547C11.6196 21.2547 11.106 21.4708 10.6107 21.6793C10.1826 21.8594 9.76816 22.0338 9.1841 22.0581C7.89658 22.1057 6.91259 20.761 6.07065 19.5571C4.38785 17.0986 3.07748 12.6286 4.83421 9.5871C5.65915 8.10472 7.20157 7.16405 8.89715 7.10927C9.62738 7.09424 10.3281 7.3757 10.9424 7.62246C11.4122 7.81117 11.8315 7.97959 12.1749 7.97959C12.4767 7.97959 12.8843 7.81782 13.3593 7.62929C14.1076 7.33231 15.0232 6.96892 15.9562 7.06686C17.406 7.11222 18.7496 7.83856 19.5816 9.02677Z" fill="#17191C"/>
</svg>
