<?xml version="1.0" encoding="UTF-8" standalone="no"?>
<!DOCTYPE svg PUBLIC "-//W3C//DTD SVG 1.1//EN" "http://www.w3.org/Graphics/SVG/1.1/DTD/svg11.dtd">
<svg width="100%" height="100%" viewBox="0 0 70 70" version="1.1" xmlns="http://www.w3.org/2000/svg" xmlns:xlink="http://www.w3.org/1999/xlink" xml:space="preserve" xmlns:serif="http://www.serif.com/" style="fill-rule:evenodd;clip-rule:evenodd;stroke-linejoin:round;stroke-miterlimit:2;">
    <path d="M35,70C54.33,70 70,54.33 70,35C70,15.67 54.33,0 35,0C15.67,0 0,15.67 0,35C0,54.33 15.67,70 35,70ZM30.125,16.213C27.088,16.213 24.625,18.676 24.625,21.713L24.625,31.526L21.625,31.526C19.968,31.526 18.625,32.87 18.625,34.527L18.625,53.125C18.625,54.782 19.968,56.125 21.625,56.125L49.375,56.125C51.032,56.125 52.375,54.782 52.375,53.125L52.375,34.527C52.375,32.87 51.032,31.526 49.375,31.526L46.375,31.526L46.375,21.713C46.375,18.676 43.913,16.213 40.875,16.213L30.125,16.213ZM43.375,31.526L43.375,21.713C43.375,20.333 42.256,19.213 40.875,19.213L30.125,19.213C28.744,19.213 27.625,20.333 27.625,21.713L27.625,31.526L43.375,31.526Z" style="fill:rgb(13,189,139);"/>
</svg>
