<svg width="8" height="15" viewBox="0 0 8 15" fill="none" xmlns="http://www.w3.org/2000/svg">
<path d="M1.33333 0.833984C0.6 0.833984 0 1.43398 0 2.16732L0.00666682 4.28732C0.00666682 4.64065 0.146667 4.97398 0.393333 5.22732L2.66667 7.50065L0.393333 9.78732C0.146667 10.034 0.00666682 10.374 0.00666682 10.7273L0 12.834C0 13.5673 0.6 14.1673 1.33333 14.1673H6.66667C7.4 14.1673 8 13.5673 8 12.834V10.7273C8 10.374 7.86 10.034 7.61333 9.78732L5.33333 7.50065L7.60667 5.23398C7.86 4.98065 8 4.64065 8 4.28732V2.16732C8 1.43398 7.4 0.833984 6.66667 0.833984H1.33333ZM6.66667 10.774V12.1673C6.66667 12.534 6.36667 12.834 6 12.834H2C1.63333 12.834 1.33333 12.534 1.33333 12.1673V10.774C1.33333 10.594 1.40667 10.4273 1.52667 10.3007L4 7.83398L6.47333 10.3073C6.59333 10.4273 6.66667 10.6007 6.66667 10.774Z" fill="#737D8C"/>
</svg>
