<?xml version="1.0" encoding="UTF-8" standalone="no"?>
<!DOCTYPE svg PUBLIC "-//W3C//DTD SVG 1.1//EN" "http://www.w3.org/Graphics/SVG/1.1/DTD/svg11.dtd">
<svg width="100%" height="100%" viewBox="0 0 24 24" version="1.1" xmlns="http://www.w3.org/2000/svg" xmlns:xlink="http://www.w3.org/1999/xlink" xml:space="preserve" xmlns:serif="http://www.serif.com/" style="fill-rule:evenodd;clip-rule:evenodd;stroke-linejoin:round;stroke-miterlimit:2;">
    <path d="M20.189,4.187C19.85,3.751 19.222,3.672 18.786,4.011C18.351,4.35 18.272,4.977 18.61,5.413L18.625,5.434C18.638,5.451 18.66,5.48 18.688,5.52C18.744,5.6 18.829,5.722 18.931,5.884C19.137,6.207 19.415,6.683 19.694,7.281C20.254,8.481 20.8,10.134 20.8,12.001C20.8,13.867 20.254,15.52 19.694,16.721C19.415,17.318 19.137,17.794 18.931,18.117C18.829,18.279 18.744,18.401 18.688,18.481C18.66,18.521 18.638,18.55 18.625,18.568L18.609,18.588C18.272,19.024 18.351,19.651 18.786,19.99C19.222,20.329 19.85,20.251 20.189,19.815L19.444,19.235L20.189,19.815L20.203,19.797L20.229,19.762C20.251,19.733 20.281,19.692 20.318,19.639C20.393,19.534 20.496,19.383 20.619,19.191C20.863,18.807 21.185,18.255 21.506,17.566C22.146,16.195 22.8,14.248 22.8,12.001C22.8,9.753 22.146,7.806 21.506,6.435C21.185,5.746 20.863,5.194 20.619,4.81C20.496,4.618 20.393,4.467 20.318,4.362C20.281,4.31 20.251,4.268 20.229,4.239L20.203,4.204L20.19,4.188C20.19,4.188 20.189,4.187 19.4,4.801L20.189,4.187Z" style="fill:rgb(50,163,253);fill-rule:nonzero;"/>
    <path d="M17.59,7.787C17.251,7.351 16.623,7.272 16.187,7.611C15.752,7.95 15.673,8.576 16.009,9.011L16.012,9.016C16.017,9.022 16.025,9.033 16.037,9.05C16.061,9.084 16.098,9.138 16.145,9.211C16.238,9.357 16.366,9.576 16.495,9.852C16.755,10.41 17.001,11.163 17.001,12.001C17.001,12.839 16.755,13.592 16.495,14.149C16.366,14.425 16.238,14.644 16.145,14.791C16.098,14.864 16.061,14.918 16.037,14.951C16.025,14.968 16.017,14.98 16.012,14.986L16.009,14.99C15.673,15.426 15.752,16.052 16.187,16.39C16.623,16.729 17.251,16.651 17.59,16.215L16.801,15.601L17.59,16.215L17.6,16.202L17.616,16.18C17.63,16.163 17.647,16.139 17.668,16.11C17.709,16.051 17.766,15.968 17.832,15.865C17.964,15.657 18.136,15.362 18.307,14.995C18.647,14.267 19.001,13.22 19.001,12.001C19.001,10.782 18.647,9.735 18.307,9.006C18.136,8.639 17.964,8.344 17.832,8.137C17.766,8.033 17.709,7.951 17.668,7.892C17.647,7.863 17.63,7.839 17.616,7.821L17.592,7.789L17.591,7.788C17.591,7.788 17.59,7.787 16.801,8.401L17.59,7.787Z" style="fill:rgb(50,163,253);fill-rule:nonzero;"/>
    <path d="M3.611,19.815C3.95,20.25 4.578,20.329 5.014,19.99C5.449,19.651 5.528,19.024 5.19,18.588L5.175,18.568C5.162,18.55 5.14,18.521 5.112,18.481C5.055,18.401 4.971,18.279 4.869,18.117C4.663,17.794 4.385,17.318 4.106,16.721C3.546,15.52 3,13.867 3,12.001C3,10.134 3.546,8.481 4.106,7.281C4.385,6.683 4.663,6.207 4.869,5.884C4.971,5.722 5.055,5.6 5.112,5.52C5.14,5.48 5.162,5.451 5.175,5.433L5.19,5.413C5.528,4.977 5.449,4.35 5.014,4.011C4.578,3.672 3.95,3.751 3.611,4.187L4.356,4.766C3.611,4.187 3.611,4.187 3.611,4.187L3.597,4.204L3.571,4.239C3.549,4.268 3.519,4.31 3.481,4.362C3.407,4.467 3.303,4.618 3.181,4.81C2.937,5.194 2.615,5.746 2.294,6.435C1.654,7.806 1,9.753 1,12.001C1,14.248 1.654,16.195 2.294,17.566C2.615,18.255 2.937,18.807 3.181,19.191C3.303,19.383 3.407,19.534 3.481,19.639C3.519,19.692 3.549,19.733 3.571,19.762L3.597,19.797L3.61,19.813C3.61,19.813 3.611,19.815 4.4,19.201L3.611,19.815Z" style="fill:rgb(50,163,253);fill-rule:nonzero;"/>
    <path d="M6.21,16.214C6.549,16.65 7.177,16.729 7.613,16.39C8.048,16.052 8.127,15.426 7.791,14.99L7.788,14.985C7.783,14.979 7.775,14.968 7.763,14.951C7.739,14.918 7.702,14.863 7.655,14.79C7.562,14.644 7.434,14.425 7.305,14.149C7.045,13.591 6.799,12.838 6.799,12C6.799,11.162 7.045,10.409 7.305,9.852C7.434,9.576 7.562,9.357 7.655,9.21C7.702,9.137 7.739,9.083 7.763,9.05C7.775,9.033 7.783,9.021 7.788,9.015L7.791,9.011C8.127,8.575 8.048,7.949 7.613,7.611C7.177,7.272 6.549,7.35 6.21,7.786L6.999,8.4L6.21,7.786L6.2,7.799L6.183,7.821C6.17,7.838 6.153,7.862 6.132,7.892C6.09,7.951 6.034,8.033 5.968,8.137C5.836,8.344 5.664,8.639 5.493,9.006C5.153,9.734 4.799,10.781 4.799,12C4.799,13.219 5.153,14.267 5.493,14.995C5.664,15.362 5.836,15.657 5.968,15.864C6.034,15.968 6.09,16.05 6.132,16.109C6.153,16.139 6.17,16.162 6.183,16.18L6.2,16.202L6.209,16.213C6.209,16.213 6.21,16.214 6.999,15.6L6.21,16.214Z" style="fill:rgb(50,163,253);fill-rule:nonzero;"/>
    <circle cx="12" cy="12" r="2" style="fill:rgb(50,163,253);"/>
</svg>
