<svg width="375" height="246" viewBox="0 0 375 246" fill="none" xmlns="http://www.w3.org/2000/svg">
<g clip-path="url(#clip0_57_9153)">
<mask id="mask0_57_9153" style="mask-type:alpha" maskUnits="userSpaceOnUse" x="0" y="0" width="375" height="247">
<rect x="375" y="247" width="375" height="247" transform="rotate(-180 375 247)" fill="url(#paint0_linear_57_9153)"/>
</mask>
<g mask="url(#mask0_57_9153)">
<path d="M332 -21V199.524C332 216.071 318.602 229.494 302.055 229.524L71.0547 229.945C54.4649 229.975 41 216.535 41 199.945V-2.42706" stroke="#C1C6CD" stroke-width="2"/>
<path d="M347 -22V210.495C347 229.25 331.814 244.462 313.06 244.495L60.0597 244.94C41.2587 244.973 26 229.741 26 210.94V-2.24313" stroke="#C1C6CD" stroke-width="2"/>
<g opacity="0.5">
<rect x="64" y="24" width="28" height="28" rx="14" fill="#C1C6CD"/>
<path d="M105.4 36.296C105.4 35.608 105.56 35 105.88 34.472C106.184 33.928 106.608 33.504 107.152 33.2C107.68 32.88 108.288 32.72 108.976 32.72H115.888C116.576 32.72 117.184 32.88 117.712 33.2C118.256 33.504 118.68 33.928 118.984 34.472C119.304 35 119.464 35.608 119.464 36.296V36.344C119.464 37.032 119.304 37.648 118.984 38.192C118.68 38.72 118.256 39.144 117.712 39.464C117.184 39.768 116.576 39.92 115.888 39.92H108.976C108.288 39.92 107.68 39.768 107.152 39.464C106.608 39.144 106.184 38.72 105.88 38.192C105.56 37.648 105.4 37.032 105.4 36.344V36.296ZM111.947 36.296C111.947 35.608 112.107 35 112.427 34.472C112.731 33.928 113.155 33.504 113.699 33.2C114.227 32.88 114.835 32.72 115.523 32.72H122.435C123.123 32.72 123.731 32.88 124.259 33.2C124.803 33.504 125.227 33.928 125.531 34.472C125.851 35 126.011 35.608 126.011 36.296V36.344C126.011 37.032 125.851 37.648 125.531 38.192C125.227 38.72 124.803 39.144 124.259 39.464C123.731 39.768 123.123 39.92 122.435 39.92H115.523C114.835 39.92 114.227 39.768 113.699 39.464C113.155 39.144 112.731 38.72 112.427 38.192C112.107 37.648 111.947 37.032 111.947 36.344V36.296ZM118.494 36.296C118.494 35.608 118.654 35 118.974 34.472C119.278 33.928 119.702 33.504 120.246 33.2C120.774 32.88 121.382 32.72 122.07 32.72H128.982C129.67 32.72 130.278 32.88 130.806 33.2C131.35 33.504 131.774 33.928 132.078 34.472C132.398 35 132.558 35.608 132.558 36.296V36.344C132.558 37.032 132.398 37.648 132.078 38.192C131.774 38.72 131.35 39.144 130.806 39.464C130.278 39.768 129.67 39.92 128.982 39.92H122.07C121.382 39.92 120.774 39.768 120.246 39.464C119.702 39.144 119.278 38.72 118.974 38.192C118.654 37.648 118.494 37.032 118.494 36.344V36.296ZM125.042 36.296C125.042 35.608 125.202 35 125.522 34.472C125.826 33.928 126.25 33.504 126.794 33.2C127.322 32.88 127.93 32.72 128.618 32.72H142.154C142.842 32.72 143.45 32.88 143.978 33.2C144.522 33.504 144.946 33.928 145.25 34.472C145.57 35 145.73 35.608 145.73 36.296V36.344C145.73 37.032 145.57 37.648 145.25 38.192C144.946 38.72 144.522 39.144 143.978 39.464C143.45 39.768 142.842 39.92 142.154 39.92H128.618C127.93 39.92 127.322 39.768 126.794 39.464C126.25 39.144 125.826 38.72 125.522 38.192C125.202 37.648 125.042 37.032 125.042 36.344V36.296ZM138.198 36.296C138.198 35.608 138.358 35 138.678 34.472C138.982 33.928 139.406 33.504 139.95 33.2C140.478 32.88 141.086 32.72 141.774 32.72H148.686C149.374 32.72 149.982 32.88 150.51 33.2C151.054 33.504 151.478 33.928 151.782 34.472C152.102 35 152.262 35.608 152.262 36.296V36.344C152.262 37.032 152.102 37.648 151.782 38.192C151.478 38.72 151.054 39.144 150.51 39.464C149.982 39.768 149.374 39.92 148.686 39.92H141.774C141.086 39.92 140.478 39.768 139.95 39.464C139.406 39.144 138.982 38.72 138.678 38.192C138.358 37.648 138.198 37.032 138.198 36.344V36.296ZM158.816 36.296C158.816 35.608 158.976 35 159.296 34.472C159.6 33.928 160.024 33.504 160.568 33.2C161.096 32.88 161.704 32.72 162.392 32.72H169.304C169.992 32.72 170.6 32.88 171.128 33.2C171.672 33.504 172.096 33.928 172.4 34.472C172.72 35 172.88 35.608 172.88 36.296V36.344C172.88 37.032 172.72 37.648 172.4 38.192C172.096 38.72 171.672 39.144 171.128 39.464C170.6 39.768 169.992 39.92 169.304 39.92H162.392C161.704 39.92 161.096 39.768 160.568 39.464C160.024 39.144 159.6 38.72 159.296 38.192C158.976 37.648 158.816 37.032 158.816 36.344V36.296ZM165.363 36.296C165.363 35.608 165.523 35 165.843 34.472C166.147 33.928 166.571 33.504 167.115 33.2C167.643 32.88 168.251 32.72 168.939 32.72H182.475C183.163 32.72 183.771 32.88 184.299 33.2C184.843 33.504 185.267 33.928 185.571 34.472C185.891 35 186.051 35.608 186.051 36.296V36.344C186.051 37.032 185.891 37.648 185.571 38.192C185.267 38.72 184.843 39.144 184.299 39.464C183.771 39.768 183.163 39.92 182.475 39.92H168.939C168.251 39.92 167.643 39.768 167.115 39.464C166.571 39.144 166.147 38.72 165.843 38.192C165.523 37.648 165.363 37.032 165.363 36.344V36.296ZM178.52 36.296C178.52 35.608 178.68 35 179 34.472C179.304 33.928 179.728 33.504 180.272 33.2C180.8 32.88 181.408 32.72 182.096 32.72H195.632C196.32 32.72 196.928 32.88 197.456 33.2C198 33.504 198.424 33.928 198.728 34.472C199.048 35 199.208 35.608 199.208 36.296V36.344C199.208 37.032 199.048 37.648 198.728 38.192C198.424 38.72 198 39.144 197.456 39.464C196.928 39.768 196.32 39.92 195.632 39.92H182.096C181.408 39.92 180.8 39.768 180.272 39.464C179.728 39.144 179.304 38.72 179 38.192C178.68 37.648 178.52 37.032 178.52 36.344V36.296ZM191.676 36.296C191.676 35.608 191.836 35 192.156 34.472C192.46 33.928 192.884 33.504 193.428 33.2C193.956 32.88 194.564 32.72 195.252 32.72H202.164C202.852 32.72 203.46 32.88 203.988 33.2C204.532 33.504 204.956 33.928 205.26 34.472C205.58 35 205.74 35.608 205.74 36.296V36.344C205.74 37.032 205.58 37.648 205.26 38.192C204.956 38.72 204.532 39.144 203.988 39.464C203.46 39.768 202.852 39.92 202.164 39.92H195.252C194.564 39.92 193.956 39.768 193.428 39.464C192.884 39.144 192.46 38.72 192.156 38.192C191.836 37.648 191.676 37.032 191.676 36.344V36.296Z" fill="#C1C6CD"/>
<path d="M105.7 57.938C105.7 57.3073 105.847 56.75 106.14 56.266C106.419 55.7673 106.807 55.3787 107.306 55.1C107.79 54.8067 108.347 54.66 108.978 54.66H121.386C122.017 54.66 122.574 54.8067 123.058 55.1C123.557 55.3787 123.945 55.7673 124.224 56.266C124.517 56.75 124.664 57.3073 124.664 57.938V57.982C124.664 58.6127 124.517 59.1773 124.224 59.676C123.945 60.16 123.557 60.5487 123.058 60.842C122.574 61.1207 122.017 61.26 121.386 61.26H108.978C108.347 61.26 107.79 61.1207 107.306 60.842C106.807 60.5487 106.419 60.16 106.14 59.676C105.847 59.1773 105.7 58.6127 105.7 57.982V57.938ZM118.054 57.938C118.054 57.3073 118.2 56.75 118.494 56.266C118.772 55.7673 119.161 55.3787 119.66 55.1C120.144 54.8067 120.701 54.66 121.332 54.66H133.74C134.37 54.66 134.928 54.8067 135.412 55.1C135.91 55.3787 136.299 55.7673 136.578 56.266C136.871 56.75 137.018 57.3073 137.018 57.938V57.982C137.018 58.6127 136.871 59.1773 136.578 59.676C136.299 60.16 135.91 60.5487 135.412 60.842C134.928 61.1207 134.37 61.26 133.74 61.26H121.332C120.701 61.26 120.144 61.1207 119.66 60.842C119.161 60.5487 118.772 60.16 118.494 59.676C118.2 59.1773 118.054 58.6127 118.054 57.982V57.938ZM130.407 57.938C130.407 57.3073 130.554 56.75 130.847 56.266C131.126 55.7673 131.514 55.3787 132.013 55.1C132.497 54.8067 133.054 54.66 133.685 54.66H146.093C146.724 54.66 147.281 54.8067 147.765 55.1C148.264 55.3787 148.652 55.7673 148.931 56.266C149.224 56.75 149.371 57.3073 149.371 57.938V57.982C149.371 58.6127 149.224 59.1773 148.931 59.676C148.652 60.16 148.264 60.5487 147.765 60.842C147.281 61.1207 146.724 61.26 146.093 61.26H133.685C133.054 61.26 132.497 61.1207 132.013 60.842C131.514 60.5487 131.126 60.16 130.847 59.676C130.554 59.1773 130.407 58.6127 130.407 57.982V57.938ZM142.761 57.938C142.761 57.3073 142.907 56.75 143.201 56.266C143.479 55.7673 143.868 55.3787 144.367 55.1C144.851 54.8067 145.408 54.66 146.039 54.66H158.447C159.077 54.66 159.635 54.8067 160.119 55.1C160.617 55.3787 161.006 55.7673 161.285 56.266C161.578 56.75 161.725 57.3073 161.725 57.938V57.982C161.725 58.6127 161.578 59.1773 161.285 59.676C161.006 60.16 160.617 60.5487 160.119 60.842C159.635 61.1207 159.077 61.26 158.447 61.26H146.039C145.408 61.26 144.851 61.1207 144.367 60.842C143.868 60.5487 143.479 60.16 143.201 59.676C142.907 59.1773 142.761 58.6127 142.761 57.982V57.938ZM155.114 57.938C155.114 57.3073 155.261 56.75 155.554 56.266C155.833 55.7673 156.221 55.3787 156.72 55.1C157.204 54.8067 157.761 54.66 158.392 54.66H170.8C171.431 54.66 171.988 54.8067 172.472 55.1C172.971 55.3787 173.359 55.7673 173.638 56.266C173.931 56.75 174.078 57.3073 174.078 57.938V57.982C174.078 58.6127 173.931 59.1773 173.638 59.676C173.359 60.16 172.971 60.5487 172.472 60.842C171.988 61.1207 171.431 61.26 170.8 61.26H158.392C157.761 61.26 157.204 61.1207 156.72 60.842C156.221 60.5487 155.833 60.16 155.554 59.676C155.261 59.1773 155.114 58.6127 155.114 57.982V57.938ZM167.468 57.938C167.468 57.3073 167.614 56.75 167.908 56.266C168.186 55.7673 168.575 55.3787 169.074 55.1C169.558 54.8067 170.115 54.66 170.746 54.66H183.154C183.784 54.66 184.342 54.8067 184.826 55.1C185.324 55.3787 185.713 55.7673 185.992 56.266C186.285 56.75 186.432 57.3073 186.432 57.938V57.982C186.432 58.6127 186.285 59.1773 185.992 59.676C185.713 60.16 185.324 60.5487 184.826 60.842C184.342 61.1207 183.784 61.26 183.154 61.26H170.746C170.115 61.26 169.558 61.1207 169.074 60.842C168.575 60.5487 168.186 60.16 167.908 59.676C167.614 59.1773 167.468 58.6127 167.468 57.982V57.938ZM179.821 57.938C179.821 57.3073 179.968 56.75 180.261 56.266C180.54 55.7673 180.928 55.3787 181.427 55.1C181.911 54.8067 182.468 54.66 183.099 54.66H195.507C196.138 54.66 196.695 54.8067 197.179 55.1C197.678 55.3787 198.066 55.7673 198.345 56.266C198.638 56.75 198.785 57.3073 198.785 57.938V57.982C198.785 58.6127 198.638 59.1773 198.345 59.676C198.066 60.16 197.678 60.5487 197.179 60.842C196.695 61.1207 196.138 61.26 195.507 61.26H183.099C182.468 61.26 181.911 61.1207 181.427 60.842C180.928 60.5487 180.54 60.16 180.261 59.676C179.968 59.1773 179.821 58.6127 179.821 57.982V57.938ZM205.366 57.938C205.366 57.3073 205.513 56.75 205.806 56.266C206.085 55.7673 206.473 55.3787 206.972 55.1C207.456 54.8067 208.013 54.66 208.644 54.66H221.052C221.683 54.66 222.24 54.8067 222.724 55.1C223.223 55.3787 223.611 55.7673 223.89 56.266C224.183 56.75 224.33 57.3073 224.33 57.938V57.982C224.33 58.6127 224.183 59.1773 223.89 59.676C223.611 60.16 223.223 60.5487 222.724 60.842C222.24 61.1207 221.683 61.26 221.052 61.26H208.644C208.013 61.26 207.456 61.1207 206.972 60.842C206.473 60.5487 206.085 60.16 205.806 59.676C205.513 59.1773 205.366 58.6127 205.366 57.982V57.938ZM217.72 57.938C217.72 57.3073 217.866 56.75 218.16 56.266C218.438 55.7673 218.827 55.3787 219.326 55.1C219.81 54.8067 220.367 54.66 220.998 54.66H227.334C227.964 54.66 228.522 54.8067 229.006 55.1C229.504 55.3787 229.893 55.7673 230.172 56.266C230.465 56.75 230.612 57.3073 230.612 57.938V57.982C230.612 58.6127 230.465 59.1773 230.172 59.676C229.893 60.16 229.504 60.5487 229.006 60.842C228.522 61.1207 227.964 61.26 227.334 61.26H220.998C220.367 61.26 219.81 61.1207 219.326 60.842C218.827 60.5487 218.438 60.16 218.16 59.676C217.866 59.1773 217.72 58.6127 217.72 57.982V57.938ZM224.014 57.938C224.014 57.3073 224.161 56.75 224.454 56.266C224.733 55.7673 225.122 55.3787 225.62 55.1C226.104 54.8067 226.662 54.66 227.292 54.66H239.7C240.331 54.66 240.888 54.8067 241.372 55.1C241.871 55.3787 242.26 55.7673 242.538 56.266C242.832 56.75 242.978 57.3073 242.978 57.938V57.982C242.978 58.6127 242.832 59.1773 242.538 59.676C242.26 60.16 241.871 60.5487 241.372 60.842C240.888 61.1207 240.331 61.26 239.7 61.26H227.292C226.662 61.26 226.104 61.1207 225.62 60.842C225.122 60.5487 224.733 60.16 224.454 59.676C224.161 59.1773 224.014 58.6127 224.014 57.982V57.938ZM236.368 57.938C236.368 57.3073 236.515 56.75 236.808 56.266C237.087 55.7673 237.475 55.3787 237.974 55.1C238.458 54.8067 239.015 54.66 239.646 54.66H252.054C252.685 54.66 253.242 54.8067 253.726 55.1C254.225 55.3787 254.613 55.7673 254.892 56.266C255.185 56.75 255.332 57.3073 255.332 57.938V57.982C255.332 58.6127 255.185 59.1773 254.892 59.676C254.613 60.16 254.225 60.5487 253.726 60.842C253.242 61.1207 252.685 61.26 252.054 61.26H239.646C239.015 61.26 238.458 61.1207 237.974 60.842C237.475 60.5487 237.087 60.16 236.808 59.676C236.515 59.1773 236.368 58.6127 236.368 57.982V57.938ZM248.721 57.938C248.721 57.3073 248.868 56.75 249.161 56.266C249.44 55.7673 249.829 55.3787 250.327 55.1C250.811 54.8067 251.369 54.66 251.999 54.66H258.335C258.966 54.66 259.523 54.8067 260.007 55.1C260.506 55.3787 260.895 55.7673 261.173 56.266C261.467 56.75 261.613 57.3073 261.613 57.938V57.982C261.613 58.6127 261.467 59.1773 261.173 59.676C260.895 60.16 260.506 60.5487 260.007 60.842C259.523 61.1207 258.966 61.26 258.335 61.26H251.999C251.369 61.26 250.811 61.1207 250.327 60.842C249.829 60.5487 249.44 60.16 249.161 59.676C248.868 59.1773 248.721 58.6127 248.721 57.982V57.938ZM255.016 57.938C255.016 57.3073 255.163 56.75 255.456 56.266C255.735 55.7673 256.124 55.3787 256.622 55.1C257.106 54.8067 257.664 54.66 258.294 54.66H270.702C271.333 54.66 271.89 54.8067 272.374 55.1C272.873 55.3787 273.262 55.7673 273.54 56.266C273.834 56.75 273.98 57.3073 273.98 57.938V57.982C273.98 58.6127 273.834 59.1773 273.54 59.676C273.262 60.16 272.873 60.5487 272.374 60.842C271.89 61.1207 271.333 61.26 270.702 61.26H258.294C257.664 61.26 257.106 61.1207 256.622 60.842C256.124 60.5487 255.735 60.16 255.456 59.676C255.163 59.1773 255.016 58.6127 255.016 57.982V57.938ZM267.37 57.938C267.37 57.3073 267.517 56.75 267.81 56.266C268.089 55.7673 268.477 55.3787 268.976 55.1C269.46 54.8067 270.017 54.66 270.648 54.66H283.056C283.687 54.66 284.244 54.8067 284.728 55.1C285.227 55.3787 285.615 55.7673 285.894 56.266C286.187 56.75 286.334 57.3073 286.334 57.938V57.982C286.334 58.6127 286.187 59.1773 285.894 59.676C285.615 60.16 285.227 60.5487 284.728 60.842C284.244 61.1207 283.687 61.26 283.056 61.26H270.648C270.017 61.26 269.46 61.1207 268.976 60.842C268.477 60.5487 268.089 60.16 267.81 59.676C267.517 59.1773 267.37 58.6127 267.37 57.982V57.938ZM279.723 57.938C279.723 57.3073 279.87 56.75 280.163 56.266C280.442 55.7673 280.831 55.3787 281.329 55.1C281.813 54.8067 282.371 54.66 283.001 54.66H289.337C289.968 54.66 290.525 54.8067 291.009 55.1C291.508 55.3787 291.897 55.7673 292.175 56.266C292.469 56.75 292.615 57.3073 292.615 57.938V57.982C292.615 58.6127 292.469 59.1773 292.175 59.676C291.897 60.16 291.508 60.5487 291.009 60.842C290.525 61.1207 289.968 61.26 289.337 61.26H283.001C282.371 61.26 281.813 61.1207 281.329 60.842C280.831 60.5487 280.442 60.16 280.163 59.676C279.87 59.1773 279.723 58.6127 279.723 57.982V57.938ZM286.018 57.938C286.018 57.3073 286.165 56.75 286.458 56.266C286.737 55.7673 287.126 55.3787 287.624 55.1C288.108 54.8067 288.666 54.66 289.296 54.66H295.632C296.263 54.66 296.82 54.8067 297.304 55.1C297.803 55.3787 298.192 55.7673 298.47 56.266C298.764 56.75 298.91 57.3073 298.91 57.938V57.982C298.91 58.6127 298.764 59.1773 298.47 59.676C298.192 60.16 297.803 60.5487 297.304 60.842C296.82 61.1207 296.263 61.26 295.632 61.26H289.296C288.666 61.26 288.108 61.1207 287.624 60.842C287.126 60.5487 286.737 60.16 286.458 59.676C286.165 59.1773 286.018 58.6127 286.018 57.982V57.938ZM292.313 57.938C292.313 57.3073 292.46 56.75 292.753 56.266C293.032 55.7673 293.421 55.3787 293.919 55.1C294.403 54.8067 294.961 54.66 295.591 54.66H301.927C302.558 54.66 303.115 54.8067 303.599 55.1C304.098 55.3787 304.487 55.7673 304.765 56.266C305.059 56.75 305.205 57.3073 305.205 57.938V57.982C305.205 58.6127 305.059 59.1773 304.765 59.676C304.487 60.16 304.098 60.5487 303.599 60.842C303.115 61.1207 302.558 61.26 301.927 61.26H295.591C294.961 61.26 294.403 61.1207 293.919 60.842C293.421 60.5487 293.032 60.16 292.753 59.676C292.46 59.1773 292.313 58.6127 292.313 57.982V57.938Z" fill="#C1C6CD"/>
</g>
<g opacity="0.5">
<rect x="64" y="80" width="28" height="28" rx="14" fill="#C1C6CD"/>
<path d="M105.4 92.296C105.4 91.608 105.56 91 105.88 90.472C106.184 89.928 106.608 89.504 107.152 89.2C107.68 88.88 108.288 88.72 108.976 88.72H115.888C116.576 88.72 117.184 88.88 117.712 89.2C118.256 89.504 118.68 89.928 118.984 90.472C119.304 91 119.464 91.608 119.464 92.296V92.344C119.464 93.032 119.304 93.648 118.984 94.192C118.68 94.72 118.256 95.144 117.712 95.464C117.184 95.768 116.576 95.92 115.888 95.92H108.976C108.288 95.92 107.68 95.768 107.152 95.464C106.608 95.144 106.184 94.72 105.88 94.192C105.56 93.648 105.4 93.032 105.4 92.344V92.296ZM111.947 92.296C111.947 91.608 112.107 91 112.427 90.472C112.731 89.928 113.155 89.504 113.699 89.2C114.227 88.88 114.835 88.72 115.523 88.72H122.435C123.123 88.72 123.731 88.88 124.259 89.2C124.803 89.504 125.227 89.928 125.531 90.472C125.851 91 126.011 91.608 126.011 92.296V92.344C126.011 93.032 125.851 93.648 125.531 94.192C125.227 94.72 124.803 95.144 124.259 95.464C123.731 95.768 123.123 95.92 122.435 95.92H115.523C114.835 95.92 114.227 95.768 113.699 95.464C113.155 95.144 112.731 94.72 112.427 94.192C112.107 93.648 111.947 93.032 111.947 92.344V92.296ZM118.494 92.296C118.494 91.608 118.654 91 118.974 90.472C119.278 89.928 119.702 89.504 120.246 89.2C120.774 88.88 121.382 88.72 122.07 88.72H128.982C129.67 88.72 130.278 88.88 130.806 89.2C131.35 89.504 131.774 89.928 132.078 90.472C132.398 91 132.558 91.608 132.558 92.296V92.344C132.558 93.032 132.398 93.648 132.078 94.192C131.774 94.72 131.35 95.144 130.806 95.464C130.278 95.768 129.67 95.92 128.982 95.92H122.07C121.382 95.92 120.774 95.768 120.246 95.464C119.702 95.144 119.278 94.72 118.974 94.192C118.654 93.648 118.494 93.032 118.494 92.344V92.296ZM125.042 92.296C125.042 91.608 125.202 91 125.522 90.472C125.826 89.928 126.25 89.504 126.794 89.2C127.322 88.88 127.93 88.72 128.618 88.72H142.154C142.842 88.72 143.45 88.88 143.978 89.2C144.522 89.504 144.946 89.928 145.25 90.472C145.57 91 145.73 91.608 145.73 92.296V92.344C145.73 93.032 145.57 93.648 145.25 94.192C144.946 94.72 144.522 95.144 143.978 95.464C143.45 95.768 142.842 95.92 142.154 95.92H128.618C127.93 95.92 127.322 95.768 126.794 95.464C126.25 95.144 125.826 94.72 125.522 94.192C125.202 93.648 125.042 93.032 125.042 92.344V92.296ZM138.198 92.296C138.198 91.608 138.358 91 138.678 90.472C138.982 89.928 139.406 89.504 139.95 89.2C140.478 88.88 141.086 88.72 141.774 88.72H148.686C149.374 88.72 149.982 88.88 150.51 89.2C151.054 89.504 151.478 89.928 151.782 90.472C152.102 91 152.262 91.608 152.262 92.296V92.344C152.262 93.032 152.102 93.648 151.782 94.192C151.478 94.72 151.054 95.144 150.51 95.464C149.982 95.768 149.374 95.92 148.686 95.92H141.774C141.086 95.92 140.478 95.768 139.95 95.464C139.406 95.144 138.982 94.72 138.678 94.192C138.358 93.648 138.198 93.032 138.198 92.344V92.296ZM158.816 92.296C158.816 91.608 158.976 91 159.296 90.472C159.6 89.928 160.024 89.504 160.568 89.2C161.096 88.88 161.704 88.72 162.392 88.72H169.304C169.992 88.72 170.6 88.88 171.128 89.2C171.672 89.504 172.096 89.928 172.4 90.472C172.72 91 172.88 91.608 172.88 92.296V92.344C172.88 93.032 172.72 93.648 172.4 94.192C172.096 94.72 171.672 95.144 171.128 95.464C170.6 95.768 169.992 95.92 169.304 95.92H162.392C161.704 95.92 161.096 95.768 160.568 95.464C160.024 95.144 159.6 94.72 159.296 94.192C158.976 93.648 158.816 93.032 158.816 92.344V92.296ZM165.363 92.296C165.363 91.608 165.523 91 165.843 90.472C166.147 89.928 166.571 89.504 167.115 89.2C167.643 88.88 168.251 88.72 168.939 88.72H182.475C183.163 88.72 183.771 88.88 184.299 89.2C184.843 89.504 185.267 89.928 185.571 90.472C185.891 91 186.051 91.608 186.051 92.296V92.344C186.051 93.032 185.891 93.648 185.571 94.192C185.267 94.72 184.843 95.144 184.299 95.464C183.771 95.768 183.163 95.92 182.475 95.92H168.939C168.251 95.92 167.643 95.768 167.115 95.464C166.571 95.144 166.147 94.72 165.843 94.192C165.523 93.648 165.363 93.032 165.363 92.344V92.296ZM178.52 92.296C178.52 91.608 178.68 91 179 90.472C179.304 89.928 179.728 89.504 180.272 89.2C180.8 88.88 181.408 88.72 182.096 88.72H195.632C196.32 88.72 196.928 88.88 197.456 89.2C198 89.504 198.424 89.928 198.728 90.472C199.048 91 199.208 91.608 199.208 92.296V92.344C199.208 93.032 199.048 93.648 198.728 94.192C198.424 94.72 198 95.144 197.456 95.464C196.928 95.768 196.32 95.92 195.632 95.92H182.096C181.408 95.92 180.8 95.768 180.272 95.464C179.728 95.144 179.304 94.72 179 94.192C178.68 93.648 178.52 93.032 178.52 92.344V92.296ZM191.676 92.296C191.676 91.608 191.836 91 192.156 90.472C192.46 89.928 192.884 89.504 193.428 89.2C193.956 88.88 194.564 88.72 195.252 88.72H202.164C202.852 88.72 203.46 88.88 203.988 89.2C204.532 89.504 204.956 89.928 205.26 90.472C205.58 91 205.74 91.608 205.74 92.296V92.344C205.74 93.032 205.58 93.648 205.26 94.192C204.956 94.72 204.532 95.144 203.988 95.464C203.46 95.768 202.852 95.92 202.164 95.92H195.252C194.564 95.92 193.956 95.768 193.428 95.464C192.884 95.144 192.46 94.72 192.156 94.192C191.836 93.648 191.676 93.032 191.676 92.344V92.296Z" fill="#C1C6CD"/>
<path d="M105.7 113.938C105.7 113.307 105.847 112.75 106.14 112.266C106.419 111.767 106.807 111.379 107.306 111.1C107.79 110.807 108.347 110.66 108.978 110.66H121.386C122.017 110.66 122.574 110.807 123.058 111.1C123.557 111.379 123.945 111.767 124.224 112.266C124.517 112.75 124.664 113.307 124.664 113.938V113.982C124.664 114.613 124.517 115.177 124.224 115.676C123.945 116.16 123.557 116.549 123.058 116.842C122.574 117.121 122.017 117.26 121.386 117.26H108.978C108.347 117.26 107.79 117.121 107.306 116.842C106.807 116.549 106.419 116.16 106.14 115.676C105.847 115.177 105.7 114.613 105.7 113.982V113.938ZM118.054 113.938C118.054 113.307 118.2 112.75 118.494 112.266C118.772 111.767 119.161 111.379 119.66 111.1C120.144 110.807 120.701 110.66 121.332 110.66H133.74C134.37 110.66 134.928 110.807 135.412 111.1C135.91 111.379 136.299 111.767 136.578 112.266C136.871 112.75 137.018 113.307 137.018 113.938V113.982C137.018 114.613 136.871 115.177 136.578 115.676C136.299 116.16 135.91 116.549 135.412 116.842C134.928 117.121 134.37 117.26 133.74 117.26H121.332C120.701 117.26 120.144 117.121 119.66 116.842C119.161 116.549 118.772 116.16 118.494 115.676C118.2 115.177 118.054 114.613 118.054 113.982V113.938ZM130.407 113.938C130.407 113.307 130.554 112.75 130.847 112.266C131.126 111.767 131.514 111.379 132.013 111.1C132.497 110.807 133.054 110.66 133.685 110.66H146.093C146.724 110.66 147.281 110.807 147.765 111.1C148.264 111.379 148.652 111.767 148.931 112.266C149.224 112.75 149.371 113.307 149.371 113.938V113.982C149.371 114.613 149.224 115.177 148.931 115.676C148.652 116.16 148.264 116.549 147.765 116.842C147.281 117.121 146.724 117.26 146.093 117.26H133.685C133.054 117.26 132.497 117.121 132.013 116.842C131.514 116.549 131.126 116.16 130.847 115.676C130.554 115.177 130.407 114.613 130.407 113.982V113.938ZM142.761 113.938C142.761 113.307 142.907 112.75 143.201 112.266C143.479 111.767 143.868 111.379 144.367 111.1C144.851 110.807 145.408 110.66 146.039 110.66H158.447C159.077 110.66 159.635 110.807 160.119 111.1C160.617 111.379 161.006 111.767 161.285 112.266C161.578 112.75 161.725 113.307 161.725 113.938V113.982C161.725 114.613 161.578 115.177 161.285 115.676C161.006 116.16 160.617 116.549 160.119 116.842C159.635 117.121 159.077 117.26 158.447 117.26H146.039C145.408 117.26 144.851 117.121 144.367 116.842C143.868 116.549 143.479 116.16 143.201 115.676C142.907 115.177 142.761 114.613 142.761 113.982V113.938ZM155.114 113.938C155.114 113.307 155.261 112.75 155.554 112.266C155.833 111.767 156.221 111.379 156.72 111.1C157.204 110.807 157.761 110.66 158.392 110.66H170.8C171.431 110.66 171.988 110.807 172.472 111.1C172.971 111.379 173.359 111.767 173.638 112.266C173.931 112.75 174.078 113.307 174.078 113.938V113.982C174.078 114.613 173.931 115.177 173.638 115.676C173.359 116.16 172.971 116.549 172.472 116.842C171.988 117.121 171.431 117.26 170.8 117.26H158.392C157.761 117.26 157.204 117.121 156.72 116.842C156.221 116.549 155.833 116.16 155.554 115.676C155.261 115.177 155.114 114.613 155.114 113.982V113.938ZM167.468 113.938C167.468 113.307 167.614 112.75 167.908 112.266C168.186 111.767 168.575 111.379 169.074 111.1C169.558 110.807 170.115 110.66 170.746 110.66H183.154C183.784 110.66 184.342 110.807 184.826 111.1C185.324 111.379 185.713 111.767 185.992 112.266C186.285 112.75 186.432 113.307 186.432 113.938V113.982C186.432 114.613 186.285 115.177 185.992 115.676C185.713 116.16 185.324 116.549 184.826 116.842C184.342 117.121 183.784 117.26 183.154 117.26H170.746C170.115 117.26 169.558 117.121 169.074 116.842C168.575 116.549 168.186 116.16 167.908 115.676C167.614 115.177 167.468 114.613 167.468 113.982V113.938ZM179.821 113.938C179.821 113.307 179.968 112.75 180.261 112.266C180.54 111.767 180.928 111.379 181.427 111.1C181.911 110.807 182.468 110.66 183.099 110.66H195.507C196.138 110.66 196.695 110.807 197.179 111.1C197.678 111.379 198.066 111.767 198.345 112.266C198.638 112.75 198.785 113.307 198.785 113.938V113.982C198.785 114.613 198.638 115.177 198.345 115.676C198.066 116.16 197.678 116.549 197.179 116.842C196.695 117.121 196.138 117.26 195.507 117.26H183.099C182.468 117.26 181.911 117.121 181.427 116.842C180.928 116.549 180.54 116.16 180.261 115.676C179.968 115.177 179.821 114.613 179.821 113.982V113.938ZM205.366 113.938C205.366 113.307 205.513 112.75 205.806 112.266C206.085 111.767 206.473 111.379 206.972 111.1C207.456 110.807 208.013 110.66 208.644 110.66H221.052C221.683 110.66 222.24 110.807 222.724 111.1C223.223 111.379 223.611 111.767 223.89 112.266C224.183 112.75 224.33 113.307 224.33 113.938V113.982C224.33 114.613 224.183 115.177 223.89 115.676C223.611 116.16 223.223 116.549 222.724 116.842C222.24 117.121 221.683 117.26 221.052 117.26H208.644C208.013 117.26 207.456 117.121 206.972 116.842C206.473 116.549 206.085 116.16 205.806 115.676C205.513 115.177 205.366 114.613 205.366 113.982V113.938ZM217.72 113.938C217.72 113.307 217.866 112.75 218.16 112.266C218.438 111.767 218.827 111.379 219.326 111.1C219.81 110.807 220.367 110.66 220.998 110.66H227.334C227.964 110.66 228.522 110.807 229.006 111.1C229.504 111.379 229.893 111.767 230.172 112.266C230.465 112.75 230.612 113.307 230.612 113.938V113.982C230.612 114.613 230.465 115.177 230.172 115.676C229.893 116.16 229.504 116.549 229.006 116.842C228.522 117.121 227.964 117.26 227.334 117.26H220.998C220.367 117.26 219.81 117.121 219.326 116.842C218.827 116.549 218.438 116.16 218.16 115.676C217.866 115.177 217.72 114.613 217.72 113.982V113.938ZM224.014 113.938C224.014 113.307 224.161 112.75 224.454 112.266C224.733 111.767 225.122 111.379 225.62 111.1C226.104 110.807 226.662 110.66 227.292 110.66H239.7C240.331 110.66 240.888 110.807 241.372 111.1C241.871 111.379 242.26 111.767 242.538 112.266C242.832 112.75 242.978 113.307 242.978 113.938V113.982C242.978 114.613 242.832 115.177 242.538 115.676C242.26 116.16 241.871 116.549 241.372 116.842C240.888 117.121 240.331 117.26 239.7 117.26H227.292C226.662 117.26 226.104 117.121 225.62 116.842C225.122 116.549 224.733 116.16 224.454 115.676C224.161 115.177 224.014 114.613 224.014 113.982V113.938ZM236.368 113.938C236.368 113.307 236.515 112.75 236.808 112.266C237.087 111.767 237.475 111.379 237.974 111.1C238.458 110.807 239.015 110.66 239.646 110.66H252.054C252.685 110.66 253.242 110.807 253.726 111.1C254.225 111.379 254.613 111.767 254.892 112.266C255.185 112.75 255.332 113.307 255.332 113.938V113.982C255.332 114.613 255.185 115.177 254.892 115.676C254.613 116.16 254.225 116.549 253.726 116.842C253.242 117.121 252.685 117.26 252.054 117.26H239.646C239.015 117.26 238.458 117.121 237.974 116.842C237.475 116.549 237.087 116.16 236.808 115.676C236.515 115.177 236.368 114.613 236.368 113.982V113.938ZM248.721 113.938C248.721 113.307 248.868 112.75 249.161 112.266C249.44 111.767 249.829 111.379 250.327 111.1C250.811 110.807 251.369 110.66 251.999 110.66H258.335C258.966 110.66 259.523 110.807 260.007 111.1C260.506 111.379 260.895 111.767 261.173 112.266C261.467 112.75 261.613 113.307 261.613 113.938V113.982C261.613 114.613 261.467 115.177 261.173 115.676C260.895 116.16 260.506 116.549 260.007 116.842C259.523 117.121 258.966 117.26 258.335 117.26H251.999C251.369 117.26 250.811 117.121 250.327 116.842C249.829 116.549 249.44 116.16 249.161 115.676C248.868 115.177 248.721 114.613 248.721 113.982V113.938ZM255.016 113.938C255.016 113.307 255.163 112.75 255.456 112.266C255.735 111.767 256.124 111.379 256.622 111.1C257.106 110.807 257.664 110.66 258.294 110.66H270.702C271.333 110.66 271.89 110.807 272.374 111.1C272.873 111.379 273.262 111.767 273.54 112.266C273.834 112.75 273.98 113.307 273.98 113.938V113.982C273.98 114.613 273.834 115.177 273.54 115.676C273.262 116.16 272.873 116.549 272.374 116.842C271.89 117.121 271.333 117.26 270.702 117.26H258.294C257.664 117.26 257.106 117.121 256.622 116.842C256.124 116.549 255.735 116.16 255.456 115.676C255.163 115.177 255.016 114.613 255.016 113.982V113.938ZM267.37 113.938C267.37 113.307 267.517 112.75 267.81 112.266C268.089 111.767 268.477 111.379 268.976 111.1C269.46 110.807 270.017 110.66 270.648 110.66H283.056C283.687 110.66 284.244 110.807 284.728 111.1C285.227 111.379 285.615 111.767 285.894 112.266C286.187 112.75 286.334 113.307 286.334 113.938V113.982C286.334 114.613 286.187 115.177 285.894 115.676C285.615 116.16 285.227 116.549 284.728 116.842C284.244 117.121 283.687 117.26 283.056 117.26H270.648C270.017 117.26 269.46 117.121 268.976 116.842C268.477 116.549 268.089 116.16 267.81 115.676C267.517 115.177 267.37 114.613 267.37 113.982V113.938ZM279.723 113.938C279.723 113.307 279.87 112.75 280.163 112.266C280.442 111.767 280.831 111.379 281.329 111.1C281.813 110.807 282.371 110.66 283.001 110.66H289.337C289.968 110.66 290.525 110.807 291.009 111.1C291.508 111.379 291.897 111.767 292.175 112.266C292.469 112.75 292.615 113.307 292.615 113.938V113.982C292.615 114.613 292.469 115.177 292.175 115.676C291.897 116.16 291.508 116.549 291.009 116.842C290.525 117.121 289.968 117.26 289.337 117.26H283.001C282.371 117.26 281.813 117.121 281.329 116.842C280.831 116.549 280.442 116.16 280.163 115.676C279.87 115.177 279.723 114.613 279.723 113.982V113.938ZM286.018 113.938C286.018 113.307 286.165 112.75 286.458 112.266C286.737 111.767 287.126 111.379 287.624 111.1C288.108 110.807 288.666 110.66 289.296 110.66H295.632C296.263 110.66 296.82 110.807 297.304 111.1C297.803 111.379 298.192 111.767 298.47 112.266C298.764 112.75 298.91 113.307 298.91 113.938V113.982C298.91 114.613 298.764 115.177 298.47 115.676C298.192 116.16 297.803 116.549 297.304 116.842C296.82 117.121 296.263 117.26 295.632 117.26H289.296C288.666 117.26 288.108 117.121 287.624 116.842C287.126 116.549 286.737 116.16 286.458 115.676C286.165 115.177 286.018 114.613 286.018 113.982V113.938ZM292.313 113.938C292.313 113.307 292.46 112.75 292.753 112.266C293.032 111.767 293.421 111.379 293.919 111.1C294.403 110.807 294.961 110.66 295.591 110.66H301.927C302.558 110.66 303.115 110.807 303.599 111.1C304.098 111.379 304.487 111.767 304.765 112.266C305.059 112.75 305.205 113.307 305.205 113.938V113.982C305.205 114.613 305.059 115.177 304.765 115.676C304.487 116.16 304.098 116.549 303.599 116.842C303.115 117.121 302.558 117.26 301.927 117.26H295.591C294.961 117.26 294.403 117.121 293.919 116.842C293.421 116.549 293.032 116.16 292.753 115.676C292.46 115.177 292.313 114.613 292.313 113.982V113.938Z" fill="#C1C6CD"/>
</g>
<g opacity="0.5">
<rect x="64" y="136" width="28" height="28" rx="14" fill="#C1C6CD"/>
<path d="M105.4 148.296C105.4 147.608 105.56 147 105.88 146.472C106.184 145.928 106.608 145.504 107.152 145.2C107.68 144.88 108.288 144.72 108.976 144.72H115.888C116.576 144.72 117.184 144.88 117.712 145.2C118.256 145.504 118.68 145.928 118.984 146.472C119.304 147 119.464 147.608 119.464 148.296V148.344C119.464 149.032 119.304 149.648 118.984 150.192C118.68 150.72 118.256 151.144 117.712 151.464C117.184 151.768 116.576 151.92 115.888 151.92H108.976C108.288 151.92 107.68 151.768 107.152 151.464C106.608 151.144 106.184 150.72 105.88 150.192C105.56 149.648 105.4 149.032 105.4 148.344V148.296ZM111.947 148.296C111.947 147.608 112.107 147 112.427 146.472C112.731 145.928 113.155 145.504 113.699 145.2C114.227 144.88 114.835 144.72 115.523 144.72H122.435C123.123 144.72 123.731 144.88 124.259 145.2C124.803 145.504 125.227 145.928 125.531 146.472C125.851 147 126.011 147.608 126.011 148.296V148.344C126.011 149.032 125.851 149.648 125.531 150.192C125.227 150.72 124.803 151.144 124.259 151.464C123.731 151.768 123.123 151.92 122.435 151.92H115.523C114.835 151.92 114.227 151.768 113.699 151.464C113.155 151.144 112.731 150.72 112.427 150.192C112.107 149.648 111.947 149.032 111.947 148.344V148.296ZM118.494 148.296C118.494 147.608 118.654 147 118.974 146.472C119.278 145.928 119.702 145.504 120.246 145.2C120.774 144.88 121.382 144.72 122.07 144.72H128.982C129.67 144.72 130.278 144.88 130.806 145.2C131.35 145.504 131.774 145.928 132.078 146.472C132.398 147 132.558 147.608 132.558 148.296V148.344C132.558 149.032 132.398 149.648 132.078 150.192C131.774 150.72 131.35 151.144 130.806 151.464C130.278 151.768 129.67 151.92 128.982 151.92H122.07C121.382 151.92 120.774 151.768 120.246 151.464C119.702 151.144 119.278 150.72 118.974 150.192C118.654 149.648 118.494 149.032 118.494 148.344V148.296ZM125.042 148.296C125.042 147.608 125.202 147 125.522 146.472C125.826 145.928 126.25 145.504 126.794 145.2C127.322 144.88 127.93 144.72 128.618 144.72H142.154C142.842 144.72 143.45 144.88 143.978 145.2C144.522 145.504 144.946 145.928 145.25 146.472C145.57 147 145.73 147.608 145.73 148.296V148.344C145.73 149.032 145.57 149.648 145.25 150.192C144.946 150.72 144.522 151.144 143.978 151.464C143.45 151.768 142.842 151.92 142.154 151.92H128.618C127.93 151.92 127.322 151.768 126.794 151.464C126.25 151.144 125.826 150.72 125.522 150.192C125.202 149.648 125.042 149.032 125.042 148.344V148.296ZM138.198 148.296C138.198 147.608 138.358 147 138.678 146.472C138.982 145.928 139.406 145.504 139.95 145.2C140.478 144.88 141.086 144.72 141.774 144.72H148.686C149.374 144.72 149.982 144.88 150.51 145.2C151.054 145.504 151.478 145.928 151.782 146.472C152.102 147 152.262 147.608 152.262 148.296V148.344C152.262 149.032 152.102 149.648 151.782 150.192C151.478 150.72 151.054 151.144 150.51 151.464C149.982 151.768 149.374 151.92 148.686 151.92H141.774C141.086 151.92 140.478 151.768 139.95 151.464C139.406 151.144 138.982 150.72 138.678 150.192C138.358 149.648 138.198 149.032 138.198 148.344V148.296ZM158.816 148.296C158.816 147.608 158.976 147 159.296 146.472C159.6 145.928 160.024 145.504 160.568 145.2C161.096 144.88 161.704 144.72 162.392 144.72H169.304C169.992 144.72 170.6 144.88 171.128 145.2C171.672 145.504 172.096 145.928 172.4 146.472C172.72 147 172.88 147.608 172.88 148.296V148.344C172.88 149.032 172.72 149.648 172.4 150.192C172.096 150.72 171.672 151.144 171.128 151.464C170.6 151.768 169.992 151.92 169.304 151.92H162.392C161.704 151.92 161.096 151.768 160.568 151.464C160.024 151.144 159.6 150.72 159.296 150.192C158.976 149.648 158.816 149.032 158.816 148.344V148.296ZM165.363 148.296C165.363 147.608 165.523 147 165.843 146.472C166.147 145.928 166.571 145.504 167.115 145.2C167.643 144.88 168.251 144.72 168.939 144.72H182.475C183.163 144.72 183.771 144.88 184.299 145.2C184.843 145.504 185.267 145.928 185.571 146.472C185.891 147 186.051 147.608 186.051 148.296V148.344C186.051 149.032 185.891 149.648 185.571 150.192C185.267 150.72 184.843 151.144 184.299 151.464C183.771 151.768 183.163 151.92 182.475 151.92H168.939C168.251 151.92 167.643 151.768 167.115 151.464C166.571 151.144 166.147 150.72 165.843 150.192C165.523 149.648 165.363 149.032 165.363 148.344V148.296ZM178.52 148.296C178.52 147.608 178.68 147 179 146.472C179.304 145.928 179.728 145.504 180.272 145.2C180.8 144.88 181.408 144.72 182.096 144.72H195.632C196.32 144.72 196.928 144.88 197.456 145.2C198 145.504 198.424 145.928 198.728 146.472C199.048 147 199.208 147.608 199.208 148.296V148.344C199.208 149.032 199.048 149.648 198.728 150.192C198.424 150.72 198 151.144 197.456 151.464C196.928 151.768 196.32 151.92 195.632 151.92H182.096C181.408 151.92 180.8 151.768 180.272 151.464C179.728 151.144 179.304 150.72 179 150.192C178.68 149.648 178.52 149.032 178.52 148.344V148.296ZM191.676 148.296C191.676 147.608 191.836 147 192.156 146.472C192.46 145.928 192.884 145.504 193.428 145.2C193.956 144.88 194.564 144.72 195.252 144.72H202.164C202.852 144.72 203.46 144.88 203.988 145.2C204.532 145.504 204.956 145.928 205.26 146.472C205.58 147 205.74 147.608 205.74 148.296V148.344C205.74 149.032 205.58 149.648 205.26 150.192C204.956 150.72 204.532 151.144 203.988 151.464C203.46 151.768 202.852 151.92 202.164 151.92H195.252C194.564 151.92 193.956 151.768 193.428 151.464C192.884 151.144 192.46 150.72 192.156 150.192C191.836 149.648 191.676 149.032 191.676 148.344V148.296Z" fill="#C1C6CD"/>
<path d="M105.7 169.938C105.7 169.307 105.847 168.75 106.14 168.266C106.419 167.767 106.807 167.379 107.306 167.1C107.79 166.807 108.347 166.66 108.978 166.66H121.386C122.017 166.66 122.574 166.807 123.058 167.1C123.557 167.379 123.945 167.767 124.224 168.266C124.517 168.75 124.664 169.307 124.664 169.938V169.982C124.664 170.613 124.517 171.177 124.224 171.676C123.945 172.16 123.557 172.549 123.058 172.842C122.574 173.121 122.017 173.26 121.386 173.26H108.978C108.347 173.26 107.79 173.121 107.306 172.842C106.807 172.549 106.419 172.16 106.14 171.676C105.847 171.177 105.7 170.613 105.7 169.982V169.938ZM118.054 169.938C118.054 169.307 118.2 168.75 118.494 168.266C118.772 167.767 119.161 167.379 119.66 167.1C120.144 166.807 120.701 166.66 121.332 166.66H133.74C134.37 166.66 134.928 166.807 135.412 167.1C135.91 167.379 136.299 167.767 136.578 168.266C136.871 168.75 137.018 169.307 137.018 169.938V169.982C137.018 170.613 136.871 171.177 136.578 171.676C136.299 172.16 135.91 172.549 135.412 172.842C134.928 173.121 134.37 173.26 133.74 173.26H121.332C120.701 173.26 120.144 173.121 119.66 172.842C119.161 172.549 118.772 172.16 118.494 171.676C118.2 171.177 118.054 170.613 118.054 169.982V169.938ZM130.407 169.938C130.407 169.307 130.554 168.75 130.847 168.266C131.126 167.767 131.514 167.379 132.013 167.1C132.497 166.807 133.054 166.66 133.685 166.66H146.093C146.724 166.66 147.281 166.807 147.765 167.1C148.264 167.379 148.652 167.767 148.931 168.266C149.224 168.75 149.371 169.307 149.371 169.938V169.982C149.371 170.613 149.224 171.177 148.931 171.676C148.652 172.16 148.264 172.549 147.765 172.842C147.281 173.121 146.724 173.26 146.093 173.26H133.685C133.054 173.26 132.497 173.121 132.013 172.842C131.514 172.549 131.126 172.16 130.847 171.676C130.554 171.177 130.407 170.613 130.407 169.982V169.938ZM142.761 169.938C142.761 169.307 142.907 168.75 143.201 168.266C143.479 167.767 143.868 167.379 144.367 167.1C144.851 166.807 145.408 166.66 146.039 166.66H158.447C159.077 166.66 159.635 166.807 160.119 167.1C160.617 167.379 161.006 167.767 161.285 168.266C161.578 168.75 161.725 169.307 161.725 169.938V169.982C161.725 170.613 161.578 171.177 161.285 171.676C161.006 172.16 160.617 172.549 160.119 172.842C159.635 173.121 159.077 173.26 158.447 173.26H146.039C145.408 173.26 144.851 173.121 144.367 172.842C143.868 172.549 143.479 172.16 143.201 171.676C142.907 171.177 142.761 170.613 142.761 169.982V169.938ZM155.114 169.938C155.114 169.307 155.261 168.75 155.554 168.266C155.833 167.767 156.221 167.379 156.72 167.1C157.204 166.807 157.761 166.66 158.392 166.66H170.8C171.431 166.66 171.988 166.807 172.472 167.1C172.971 167.379 173.359 167.767 173.638 168.266C173.931 168.75 174.078 169.307 174.078 169.938V169.982C174.078 170.613 173.931 171.177 173.638 171.676C173.359 172.16 172.971 172.549 172.472 172.842C171.988 173.121 171.431 173.26 170.8 173.26H158.392C157.761 173.26 157.204 173.121 156.72 172.842C156.221 172.549 155.833 172.16 155.554 171.676C155.261 171.177 155.114 170.613 155.114 169.982V169.938ZM167.468 169.938C167.468 169.307 167.614 168.75 167.908 168.266C168.186 167.767 168.575 167.379 169.074 167.1C169.558 166.807 170.115 166.66 170.746 166.66H183.154C183.784 166.66 184.342 166.807 184.826 167.1C185.324 167.379 185.713 167.767 185.992 168.266C186.285 168.75 186.432 169.307 186.432 169.938V169.982C186.432 170.613 186.285 171.177 185.992 171.676C185.713 172.16 185.324 172.549 184.826 172.842C184.342 173.121 183.784 173.26 183.154 173.26H170.746C170.115 173.26 169.558 173.121 169.074 172.842C168.575 172.549 168.186 172.16 167.908 171.676C167.614 171.177 167.468 170.613 167.468 169.982V169.938ZM179.821 169.938C179.821 169.307 179.968 168.75 180.261 168.266C180.54 167.767 180.928 167.379 181.427 167.1C181.911 166.807 182.468 166.66 183.099 166.66H195.507C196.138 166.66 196.695 166.807 197.179 167.1C197.678 167.379 198.066 167.767 198.345 168.266C198.638 168.75 198.785 169.307 198.785 169.938V169.982C198.785 170.613 198.638 171.177 198.345 171.676C198.066 172.16 197.678 172.549 197.179 172.842C196.695 173.121 196.138 173.26 195.507 173.26H183.099C182.468 173.26 181.911 173.121 181.427 172.842C180.928 172.549 180.54 172.16 180.261 171.676C179.968 171.177 179.821 170.613 179.821 169.982V169.938ZM205.366 169.938C205.366 169.307 205.513 168.75 205.806 168.266C206.085 167.767 206.473 167.379 206.972 167.1C207.456 166.807 208.013 166.66 208.644 166.66H221.052C221.683 166.66 222.24 166.807 222.724 167.1C223.223 167.379 223.611 167.767 223.89 168.266C224.183 168.75 224.33 169.307 224.33 169.938V169.982C224.33 170.613 224.183 171.177 223.89 171.676C223.611 172.16 223.223 172.549 222.724 172.842C222.24 173.121 221.683 173.26 221.052 173.26H208.644C208.013 173.26 207.456 173.121 206.972 172.842C206.473 172.549 206.085 172.16 205.806 171.676C205.513 171.177 205.366 170.613 205.366 169.982V169.938ZM217.72 169.938C217.72 169.307 217.866 168.75 218.16 168.266C218.438 167.767 218.827 167.379 219.326 167.1C219.81 166.807 220.367 166.66 220.998 166.66H227.334C227.964 166.66 228.522 166.807 229.006 167.1C229.504 167.379 229.893 167.767 230.172 168.266C230.465 168.75 230.612 169.307 230.612 169.938V169.982C230.612 170.613 230.465 171.177 230.172 171.676C229.893 172.16 229.504 172.549 229.006 172.842C228.522 173.121 227.964 173.26 227.334 173.26H220.998C220.367 173.26 219.81 173.121 219.326 172.842C218.827 172.549 218.438 172.16 218.16 171.676C217.866 171.177 217.72 170.613 217.72 169.982V169.938ZM224.014 169.938C224.014 169.307 224.161 168.75 224.454 168.266C224.733 167.767 225.122 167.379 225.62 167.1C226.104 166.807 226.662 166.66 227.292 166.66H239.7C240.331 166.66 240.888 166.807 241.372 167.1C241.871 167.379 242.26 167.767 242.538 168.266C242.832 168.75 242.978 169.307 242.978 169.938V169.982C242.978 170.613 242.832 171.177 242.538 171.676C242.26 172.16 241.871 172.549 241.372 172.842C240.888 173.121 240.331 173.26 239.7 173.26H227.292C226.662 173.26 226.104 173.121 225.62 172.842C225.122 172.549 224.733 172.16 224.454 171.676C224.161 171.177 224.014 170.613 224.014 169.982V169.938ZM236.368 169.938C236.368 169.307 236.515 168.75 236.808 168.266C237.087 167.767 237.475 167.379 237.974 167.1C238.458 166.807 239.015 166.66 239.646 166.66H252.054C252.685 166.66 253.242 166.807 253.726 167.1C254.225 167.379 254.613 167.767 254.892 168.266C255.185 168.75 255.332 169.307 255.332 169.938V169.982C255.332 170.613 255.185 171.177 254.892 171.676C254.613 172.16 254.225 172.549 253.726 172.842C253.242 173.121 252.685 173.26 252.054 173.26H239.646C239.015 173.26 238.458 173.121 237.974 172.842C237.475 172.549 237.087 172.16 236.808 171.676C236.515 171.177 236.368 170.613 236.368 169.982V169.938ZM248.721 169.938C248.721 169.307 248.868 168.75 249.161 168.266C249.44 167.767 249.829 167.379 250.327 167.1C250.811 166.807 251.369 166.66 251.999 166.66H258.335C258.966 166.66 259.523 166.807 260.007 167.1C260.506 167.379 260.895 167.767 261.173 168.266C261.467 168.75 261.613 169.307 261.613 169.938V169.982C261.613 170.613 261.467 171.177 261.173 171.676C260.895 172.16 260.506 172.549 260.007 172.842C259.523 173.121 258.966 173.26 258.335 173.26H251.999C251.369 173.26 250.811 173.121 250.327 172.842C249.829 172.549 249.44 172.16 249.161 171.676C248.868 171.177 248.721 170.613 248.721 169.982V169.938ZM255.016 169.938C255.016 169.307 255.163 168.75 255.456 168.266C255.735 167.767 256.124 167.379 256.622 167.1C257.106 166.807 257.664 166.66 258.294 166.66H270.702C271.333 166.66 271.89 166.807 272.374 167.1C272.873 167.379 273.262 167.767 273.54 168.266C273.834 168.75 273.98 169.307 273.98 169.938V169.982C273.98 170.613 273.834 171.177 273.54 171.676C273.262 172.16 272.873 172.549 272.374 172.842C271.89 173.121 271.333 173.26 270.702 173.26H258.294C257.664 173.26 257.106 173.121 256.622 172.842C256.124 172.549 255.735 172.16 255.456 171.676C255.163 171.177 255.016 170.613 255.016 169.982V169.938ZM267.37 169.938C267.37 169.307 267.517 168.75 267.81 168.266C268.089 167.767 268.477 167.379 268.976 167.1C269.46 166.807 270.017 166.66 270.648 166.66H283.056C283.687 166.66 284.244 166.807 284.728 167.1C285.227 167.379 285.615 167.767 285.894 168.266C286.187 168.75 286.334 169.307 286.334 169.938V169.982C286.334 170.613 286.187 171.177 285.894 171.676C285.615 172.16 285.227 172.549 284.728 172.842C284.244 173.121 283.687 173.26 283.056 173.26H270.648C270.017 173.26 269.46 173.121 268.976 172.842C268.477 172.549 268.089 172.16 267.81 171.676C267.517 171.177 267.37 170.613 267.37 169.982V169.938ZM279.723 169.938C279.723 169.307 279.87 168.75 280.163 168.266C280.442 167.767 280.831 167.379 281.329 167.1C281.813 166.807 282.371 166.66 283.001 166.66H289.337C289.968 166.66 290.525 166.807 291.009 167.1C291.508 167.379 291.897 167.767 292.175 168.266C292.469 168.75 292.615 169.307 292.615 169.938V169.982C292.615 170.613 292.469 171.177 292.175 171.676C291.897 172.16 291.508 172.549 291.009 172.842C290.525 173.121 289.968 173.26 289.337 173.26H283.001C282.371 173.26 281.813 173.121 281.329 172.842C280.831 172.549 280.442 172.16 280.163 171.676C279.87 171.177 279.723 170.613 279.723 169.982V169.938ZM286.018 169.938C286.018 169.307 286.165 168.75 286.458 168.266C286.737 167.767 287.126 167.379 287.624 167.1C288.108 166.807 288.666 166.66 289.296 166.66H295.632C296.263 166.66 296.82 166.807 297.304 167.1C297.803 167.379 298.192 167.767 298.47 168.266C298.764 168.75 298.91 169.307 298.91 169.938V169.982C298.91 170.613 298.764 171.177 298.47 171.676C298.192 172.16 297.803 172.549 297.304 172.842C296.82 173.121 296.263 173.26 295.632 173.26H289.296C288.666 173.26 288.108 173.121 287.624 172.842C287.126 172.549 286.737 172.16 286.458 171.676C286.165 171.177 286.018 170.613 286.018 169.982V169.938ZM292.313 169.938C292.313 169.307 292.46 168.75 292.753 168.266C293.032 167.767 293.421 167.379 293.919 167.1C294.403 166.807 294.961 166.66 295.591 166.66H301.927C302.558 166.66 303.115 166.807 303.599 167.1C304.098 167.379 304.487 167.767 304.765 168.266C305.059 168.75 305.205 169.307 305.205 169.938V169.982C305.205 170.613 305.059 171.177 304.765 171.676C304.487 172.16 304.098 172.549 303.599 172.842C303.115 173.121 302.558 173.26 301.927 173.26H295.591C294.961 173.26 294.403 173.121 293.919 172.842C293.421 172.549 293.032 172.16 292.753 171.676C292.46 171.177 292.313 170.613 292.313 169.982V169.938Z" fill="#C1C6CD"/>
</g>
<circle opacity="0.2" cx="77" cy="193" r="27" fill="#0DBD8B"/>
<rect x="68" y="184" width="7" height="7" rx="1" stroke="#0DBD8B" stroke-width="2"/>
<rect x="68" y="195.111" width="7" height="7" rx="1" stroke="#0DBD8B" stroke-width="2"/>
<rect x="79.1111" y="184" width="7" height="7" rx="1" stroke="#0DBD8B" stroke-width="2"/>
<rect x="79.1111" y="195.111" width="7" height="7" rx="3.5" stroke="#0DBD8B" stroke-width="2"/>
</g>
</g>
<defs>
<linearGradient id="paint0_linear_57_9153" x1="562" y1="247" x2="562" y2="494" gradientUnits="userSpaceOnUse">
<stop stop-color="white"/>
<stop offset="1" stop-color="white" stop-opacity="0"/>
</linearGradient>
<clipPath id="clip0_57_9153">
<path d="M0 8.00001C0 3.58173 3.58172 0 8 0H367C371.418 0 375 3.58172 375 8V204C375 227.196 356.196 246 333 246H42C18.804 246 0 227.196 0 204V8.00001Z" fill="white"/>
</clipPath>
</defs>
</svg>
