<?xml version="1.0" encoding="UTF-8" standalone="no"?>
<!DOCTYPE svg PUBLIC "-//W3C//DTD SVG 1.1//EN" "http://www.w3.org/Graphics/SVG/1.1/DTD/svg11.dtd">
<svg width="100%" height="100%" viewBox="0 0 70 70" version="1.1" xmlns="http://www.w3.org/2000/svg" xmlns:xlink="http://www.w3.org/1999/xlink" xml:space="preserve" xmlns:serif="http://www.serif.com/" style="fill-rule:evenodd;clip-rule:evenodd;stroke-linejoin:round;stroke-miterlimit:2;">
    <path d="M35,70C54.33,70 70,54.33 70,35C70,15.67 54.33,0 35,0C15.67,0 0,15.67 0,35C0,54.33 15.67,70 35,70ZM18.778,21.722C18.778,18.501 21.39,15.889 24.611,15.889L44.056,15.889C47.277,15.889 49.889,18.501 49.889,21.722L49.889,48.945C49.889,52.166 47.277,54.778 44.056,54.778L24.611,54.778C21.39,54.778 18.778,52.166 18.778,48.945L18.778,21.722ZM26.07,45.056C25.264,45.056 24.611,45.709 24.611,46.514C24.611,47.319 25.264,47.972 26.07,47.972L34.82,47.972C35.625,47.972 36.278,47.319 36.278,46.514C36.278,45.709 35.625,45.056 34.82,45.056L26.07,45.056ZM24.611,39.708C24.611,38.903 25.264,38.25 26.07,38.25L42.597,38.25C43.403,38.25 44.056,38.903 44.056,39.708C44.056,40.514 43.403,41.167 42.597,41.167L26.07,41.167C25.264,41.167 24.611,40.514 24.611,39.708Z" style="fill:rgb(13,189,139);"/>
</svg>
