<svg width="71" height="70" viewBox="0 0 71 70" fill="none" xmlns="http://www.w3.org/2000/svg">
<path fill-rule="evenodd" clip-rule="evenodd" d="M36 70C55.33 70 71 54.33 71 35C71 15.67 55.33 0 36 0C16.67 0 1 15.67 1 35C1 54.33 16.67 70 36 70Z" fill="#0DBD8B"/>
<path d="M29.3783 41.6019C31.28 43.6551 35.8581 47.2104 37.1059 47.94C37.1796 47.9831 37.2641 48.0333 37.3586 48.0895C39.2626 49.2214 45.2288 52.7681 49.5757 49.4489C52.9435 46.8774 51.8485 43.9847 50.7149 43.1249C49.9389 42.5212 47.6523 40.8573 45.5011 39.3585C43.3886 37.8869 42.2113 39.066 41.4153 39.8632C41.4007 39.8779 41.3862 39.8924 41.3718 39.9068L39.7702 41.5084C39.3623 41.9162 38.7419 41.7674 38.1477 41.3006C36.0154 39.6767 34.4468 38.1096 33.6621 37.3248L33.6555 37.3182C32.8708 36.5336 31.3231 34.9844 29.6993 32.8522C29.2325 32.2579 29.0837 31.6375 29.4915 31.2297L31.0931 29.628C31.1075 29.6137 31.122 29.5992 31.1367 29.5845C31.9339 28.7885 33.113 27.6112 31.6413 25.4988C30.1426 23.3475 28.4787 21.061 27.875 20.2849C27.0151 19.1514 24.1224 18.0564 21.5509 21.4241C18.2318 25.7711 21.7785 31.7372 22.9104 33.6412C22.9665 33.7357 23.0168 33.8202 23.0599 33.894C23.7895 35.1417 27.3251 39.7003 29.3783 41.6019Z" fill="white"/>
</svg>
