<?xml version="1.0" encoding="UTF-8" standalone="no"?>
<!DOCTYPE svg PUBLIC "-//W3C//DTD SVG 1.1//EN" "http://www.w3.org/Graphics/SVG/1.1/DTD/svg11.dtd">
<svg width="100%" height="100%" viewBox="0 0 70 70" version="1.1" xmlns="http://www.w3.org/2000/svg" xmlns:xlink="http://www.w3.org/1999/xlink" xml:space="preserve" xmlns:serif="http://www.serif.com/" style="fill-rule:evenodd;clip-rule:evenodd;stroke-linejoin:round;stroke-miterlimit:2;">
    <path d="M35,70C54.33,70 70,54.33 70,35C70,15.67 54.33,0 35,0C15.67,0 0,15.67 0,35C0,54.33 15.67,70 35,70ZM28.378,41.602C30.28,43.655 34.858,47.21 36.106,47.94C36.18,47.983 36.264,48.033 36.359,48.09C38.263,49.221 44.229,52.768 48.576,49.449C51.944,46.877 50.849,43.985 49.715,43.125C48.939,42.521 46.652,40.857 44.501,39.359C42.389,37.887 41.211,39.066 40.415,39.863L38.77,41.508C38.362,41.916 37.742,41.767 37.148,41.301C35.015,39.677 33.447,38.11 32.662,37.325L32.656,37.318C31.871,36.534 30.323,34.984 28.699,32.852C28.233,32.258 28.084,31.638 28.491,31.23L30.137,29.584C30.934,28.789 32.113,27.611 30.641,25.499C29.143,23.348 27.479,21.061 26.875,20.285C26.015,19.151 23.122,18.056 20.551,21.424C17.232,25.771 20.779,31.737 21.91,33.641C21.967,33.736 22.017,33.82 22.06,33.894C22.79,35.142 26.325,39.7 28.378,41.602Z" style="fill:rgb(13,189,139);"/>
</svg>
