<?xml version="1.0" encoding="UTF-8" standalone="no"?>
<!DOCTYPE svg PUBLIC "-//W3C//DTD SVG 1.1//EN" "http://www.w3.org/Graphics/SVG/1.1/DTD/svg11.dtd">
<svg width="100%" height="100%" viewBox="0 0 12 12" version="1.1" xmlns="http://www.w3.org/2000/svg" xmlns:xlink="http://www.w3.org/1999/xlink" xml:space="preserve" xmlns:serif="http://www.serif.com/" style="fill-rule:evenodd;clip-rule:evenodd;stroke-linejoin:round;stroke-miterlimit:2;">
    <path d="M0.75,6.203L0.75,1.538L6,0L11.25,1.538L11.25,6.203C11.25,10.973 6,12 6,12C6,12 0.75,10.973 0.75,6.203Z" style="fill:rgb(125,200,27);fill-rule:nonzero;"/>
    <path d="M8.708,3.405C8.573,3.262 8.348,3.255 8.206,3.39L5.003,6.39L3.826,5.565C3.668,5.46 3.451,5.46 3.301,5.595C3.121,5.745 3.106,6.015 3.256,6.195L4.613,7.755C4.636,7.777 4.658,7.807 4.688,7.822C4.943,8.032 5.326,7.995 5.536,7.74L5.558,7.71L8.723,3.877C8.828,3.742 8.828,3.54 8.708,3.405Z" style="fill:white;fill-rule:nonzero;"/>
</svg>
