<svg width="12" height="12" viewBox="0 0 12 12" fill="none" xmlns="http://www.w3.org/2000/svg">
<path d="M0.75 6.2025V1.5375L6 0L11.25 1.5375V6.2025C11.25 10.9725 6 12 6 12C6 12 0.75 10.9725 0.75 6.2025Z" fill="#0DBD8B"/>
<path d="M8.70809 3.4047C8.57309 3.2622 8.34809 3.2547 8.20559 3.3897L5.00309 6.3897L3.82559 5.5647C3.66809 5.4597 3.45059 5.4597 3.30059 5.5947C3.12059 5.7447 3.10559 6.0147 3.25559 6.1947L4.61309 7.7547C4.63559 7.7772 4.65809 7.8072 4.68809 7.8222C4.94309 8.0322 5.32559 7.9947 5.53559 7.7397L5.55809 7.7097L8.72309 3.8772C8.82809 3.7422 8.82809 3.5397 8.70809 3.4047Z" fill="white"/>
</svg>
