<svg width="16" height="16" viewBox="0 0 16 16" fill="none" xmlns="http://www.w3.org/2000/svg">
<path d="M5.39966 4.1C5.39966 2.66406 6.56372 1.5 7.99966 1.5C9.4356 1.5 10.5997 2.66406 10.5997 4.1V7.98837C10.5997 9.42431 9.4356 10.5884 7.99966 10.5884C6.56372 10.5884 5.39966 9.4243 5.39966 7.98836V4.1Z" fill="#737D8C"/>
<path d="M3.44954 7.15837C3.90978 7.15837 4.28288 7.53146 4.28288 7.9917C4.28288 10.0368 5.94052 11.6972 7.98961 11.7025C7.99296 11.7025 7.99632 11.7025 7.99967 11.7025C8.00302 11.7025 8.00636 11.7025 8.00969 11.7025C10.0587 11.6971 11.7162 10.0368 11.7162 7.9917C11.7162 7.53146 12.0893 7.15837 12.5495 7.15837C13.0098 7.15837 13.3829 7.53146 13.3829 7.9917C13.3829 10.6793 11.4097 12.905 8.83301 13.3051V13.8341C8.83301 14.2944 8.45991 14.6675 7.99967 14.6675C7.53944 14.6675 7.16634 14.2944 7.16634 13.8341V13.3052C4.58956 12.9052 2.61621 10.6794 2.61621 7.9917C2.61621 7.53146 2.98931 7.15837 3.44954 7.15837Z" fill="#737D8C"/>
</svg>
