<svg width="32" height="32" viewBox="0 0 32 32" fill="none" xmlns="http://www.w3.org/2000/svg">
<rect width="32" height="32" rx="8" fill="#FF5B55" fill-opacity="0.06"/>
<path d="M9 16.27V10.05L16 8L23 10.05V16.27C23 22.63 16 24 16 24C16 24 9 22.63 9 16.27Z" fill="#FF4B55"/>
<path fill-rule="evenodd" clip-rule="evenodd" d="M15.235 13.3814C15.1975 12.9539 15.5125 12.5789 15.94 12.5489C16.36 12.5189 16.735 12.8339 16.78 13.2614V13.3814L16.54 16.3814C16.5175 16.6589 16.285 16.8689 16.0075 16.8689H15.9625C15.7 16.8464 15.4975 16.6439 15.475 16.3814L15.235 13.3814ZM16.659 18.3381C16.659 18.7026 16.3635 18.9981 15.999 18.9981C15.6345 18.9981 15.339 18.7026 15.339 18.3381C15.339 17.9736 15.6345 17.6781 15.999 17.6781C16.3635 17.6781 16.659 17.9736 16.659 18.3381Z" fill="white"/>
</svg>
