<svg width="12" height="12" viewBox="0 0 12 12" fill="none" xmlns="http://www.w3.org/2000/svg">
<path d="M0.75 6.2025V1.5375L6 0L11.25 1.5375V6.2025C11.25 10.9725 6 12 6 12C6 12 0.75 10.9725 0.75 6.2025Z" fill="#737D8C"/>
<path fill-rule="evenodd" clip-rule="evenodd" d="M6.00166 8.25C6.2887 8.25 6.5214 8.01731 6.5214 7.73027C6.5214 7.44323 6.2887 7.21054 6.00166 7.21054C5.71462 7.21054 5.48193 7.44323 5.48193 7.73027C5.48193 8.01731 5.71462 8.25 6.00166 8.25ZM5.2796 4.91146C5.2796 4.51143 5.60417 4.1896 6.00145 4.1896C6.39757 4.1896 6.7233 4.51533 6.7233 4.91146C6.7233 5.09491 6.64483 5.16038 6.3357 5.37396C6.19873 5.4686 6.01087 5.60006 5.86459 5.79288C5.70801 5.99929 5.61165 6.25669 5.61165 6.58398H6.39125C6.39125 6.42367 6.43384 6.33241 6.48569 6.26406C6.54784 6.18213 6.6379 6.11274 6.77884 6.01536C6.79364 6.00514 6.80927 5.99451 6.82558 5.98341C7.08109 5.80962 7.50289 5.52273 7.50289 4.91146C7.50289 4.08477 6.82814 3.41 6.00145 3.41C5.17591 3.41 4.5 4.07857 4.5 4.91146H5.2796Z" fill="white"/>
</svg>
