<svg width="31" height="32" viewBox="0 0 31 32" fill="none" xmlns="http://www.w3.org/2000/svg">
<path d="M18.7179 23.5512L18.3669 20.2176C19.7676 19.3543 21.121 18.2734 22.3899 17.0045C26.4564 12.938 27.3429 6.32657 26.7224 5.04567C26.6656 4.92895 26.5717 4.83504 26.455 4.77821C25.1741 4.15773 18.5627 5.04425 14.4961 9.1108C13.2272 10.3797 12.1462 11.7333 11.2835 13.1342L7.94967 12.783C7.75024 12.762 7.55408 12.8465 7.43206 13.0056L2.5234 19.4176C2.38427 19.5991 2.36553 19.8456 2.47594 20.0456C2.58695 20.2463 2.8041 20.362 3.03205 20.3418L9.47684 19.769C9.75795 20.9313 10.5695 21.7429 11.7318 22.024L11.1586 28.4684C11.1435 28.6411 11.2063 28.8082 11.325 28.9269C11.3629 28.9648 11.4063 28.9976 11.4548 29.0245C11.655 29.1347 11.9011 29.116 12.0828 28.9771L18.4948 24.0684C18.6541 23.947 18.7389 23.7506 18.7179 23.5512ZM18.5411 12.9602C17.6411 12.0602 17.6411 10.6009 18.5411 9.70093C19.441 8.80096 20.9004 8.80096 21.8003 9.70093C22.7003 10.6009 22.7003 12.0602 21.8003 12.9602C20.9004 13.8602 19.441 13.8602 18.5411 12.9602Z" fill="#737D8C"/>
<path d="M6.66482 21.5977C5.84364 22.4222 4.71624 26.1471 4.59038 26.5686C4.5497 26.7042 4.58731 26.8513 4.68631 26.9515C4.75999 27.0255 4.85745 27.0648 4.95799 27.0648C4.99483 27.0648 5.03167 27.0594 5.06851 27.0486C5.4883 26.9222 9.19819 25.7903 10.0194 24.9658C10.9442 24.0373 10.8485 22.8209 9.92376 21.8924C8.9982 20.9639 7.5896 20.67 6.66482 21.5977Z" fill="#737D8C"/>
</svg>
