<?xml version="1.0" encoding="UTF-8" standalone="no"?>
<!DOCTYPE svg PUBLIC "-//W3C//DTD SVG 1.1//EN" "http://www.w3.org/Graphics/SVG/1.1/DTD/svg11.dtd">
<svg width="100%" height="100%" viewBox="0 0 70 70" version="1.1" xmlns="http://www.w3.org/2000/svg" xmlns:xlink="http://www.w3.org/1999/xlink" xml:space="preserve" xmlns:serif="http://www.serif.com/" style="fill-rule:evenodd;clip-rule:evenodd;stroke-linejoin:round;stroke-miterlimit:2;">
    <path d="M35,0C54.317,0 70,15.683 70,35C70,54.317 54.317,70 35,70C15.683,70 0,54.317 0,35C0,15.683 15.683,0 35,0ZM47.25,36.75L22.75,36.75C20.825,36.75 19.25,38.325 19.25,40.25L19.25,47.25C19.25,49.175 20.825,50.75 22.75,50.75L47.25,50.75C49.175,50.75 50.75,49.175 50.75,47.25L50.75,40.25C50.75,38.325 49.175,36.75 47.25,36.75ZM26.25,47.25C24.325,47.25 22.75,45.675 22.75,43.75C22.75,41.825 24.325,40.25 26.25,40.25C28.175,40.25 29.75,41.825 29.75,43.75C29.75,45.675 28.175,47.25 26.25,47.25ZM47.25,19.25L22.75,19.25C20.825,19.25 19.25,20.825 19.25,22.75L19.25,29.75C19.25,31.675 20.825,33.25 22.75,33.25L47.25,33.25C49.175,33.25 50.75,31.675 50.75,29.75L50.75,22.75C50.75,20.825 49.175,19.25 47.25,19.25ZM26.25,29.75C24.325,29.75 22.75,28.175 22.75,26.25C22.75,24.325 24.325,22.75 26.25,22.75C28.175,22.75 29.75,24.325 29.75,26.25C29.75,28.175 28.175,29.75 26.25,29.75Z" style="fill:rgb(13,189,139);"/>
</svg>
