<svg width="48" height="48" viewBox="0 0 48 48" fill="none" xmlns="http://www.w3.org/2000/svg">
<path d="M16.249 16.5C16.249 15.6716 16.8087 15 17.499 15H18.749C19.4394 15 19.999 15.6716 19.999 16.5V31.5C19.999 32.3284 19.4394 33 18.749 33H17.499C16.8087 33 16.249 32.3284 16.249 31.5V16.5Z" fill="#737D8C"/>
<path d="M24.999 16.5C24.999 15.6716 25.5587 15 26.249 15H27.499C28.1894 15 28.749 15.6716 28.749 16.5V31.5C28.749 32.3284 28.1894 33 27.499 33H26.249C25.5587 33 24.999 32.3284 24.999 31.5V16.5Z" fill="#737D8C"/>
<circle cx="24" cy="24" r="24" fill="#F4F6FA"/>
<rect x="15" y="15" width="18" height="18" rx="1.5" fill="#737D8C"/>
</svg>
