<?xml version="1.0" encoding="UTF-8" standalone="no"?>
<!DOCTYPE svg PUBLIC "-//W3C//DTD SVG 1.1//EN" "http://www.w3.org/Graphics/SVG/1.1/DTD/svg11.dtd">
<svg width="100%" height="100%" viewBox="0 0 70 70" version="1.1" xmlns="http://www.w3.org/2000/svg" xmlns:xlink="http://www.w3.org/1999/xlink" xml:space="preserve" xmlns:serif="http://www.serif.com/" style="fill-rule:evenodd;clip-rule:evenodd;stroke-linejoin:round;stroke-miterlimit:2;">
    <path d="M35,70C54.33,70 70,54.33 70,35C70,15.67 54.33,0 35,0C15.67,0 0,15.67 0,35C0,54.33 15.67,70 35,70ZM32.166,46.367C30.124,46.367 28.175,45.969 26.392,45.248C28.984,50.098 34.098,53.398 39.982,53.398C42.388,53.398 44.664,52.846 46.692,51.863L52.238,53.596C54.295,54.238 56.233,52.319 55.6,50.264L53.874,44.654C54.839,42.641 55.38,40.386 55.38,38.004C55.38,32.175 52.14,27.103 47.361,24.49C48.439,26.461 49.062,28.657 49.062,30.973C49.062,39.475 40.67,46.367 32.166,46.367ZM44.166,26.34C44.166,34.843 37.253,41.736 28.726,41.736C26.313,41.736 24.029,41.184 21.995,40.199L16.427,41.934C14.369,42.576 12.433,40.654 13.067,38.6L14.798,32.991C13.829,30.978 13.286,28.722 13.286,26.34C13.286,17.837 20.199,10.944 28.726,10.944C37.253,10.944 44.166,17.837 44.166,26.34Z" style="fill:rgb(13,189,139);"/>
</svg>
