<?xml version="1.0" encoding="UTF-8" standalone="no"?>
<!DOCTYPE svg PUBLIC "-//W3C//DTD SVG 1.1//EN" "http://www.w3.org/Graphics/SVG/1.1/DTD/svg11.dtd">
<svg width="100%" height="100%" viewBox="0 0 71 70" version="1.1" xmlns="http://www.w3.org/2000/svg" xmlns:xlink="http://www.w3.org/1999/xlink" xml:space="preserve" xmlns:serif="http://www.serif.com/" style="fill-rule:evenodd;clip-rule:evenodd;stroke-linejoin:round;stroke-miterlimit:2;">
    <path d="M36,70C55.33,70 71,54.33 71,35C71,15.67 55.33,0 36,0C16.67,0 1,15.67 1,35C1,54.33 16.67,70 36,70Z" style="fill:rgb(49,164,253);"/>
    <path d="M45.166,26.34C45.166,34.843 38.253,41.736 29.726,41.736C27.313,41.736 25.029,41.184 22.995,40.199L17.427,41.934C15.369,42.576 13.433,40.654 14.067,38.6L15.798,32.991C14.829,30.978 14.286,28.722 14.286,26.34C14.286,17.837 21.199,10.944 29.726,10.944C38.253,10.944 45.166,17.837 45.166,26.34ZM33.166,46.367C31.124,46.367 29.175,45.969 27.392,45.248C29.984,50.098 35.098,53.398 40.982,53.398C43.388,53.398 45.664,52.846 47.692,51.863L53.238,53.596C55.295,54.238 57.233,52.319 56.6,50.264L54.874,44.654C55.839,42.641 56.38,40.386 56.38,38.004C56.38,32.175 53.14,27.103 48.361,24.49C49.439,26.461 50.062,28.657 50.062,30.973C50.062,39.475 41.67,46.367 33.166,46.367Z" style="fill:white;"/>
</svg>
