<svg width="71" height="70" viewBox="0 0 71 70" fill="none" xmlns="http://www.w3.org/2000/svg">
<path fill-rule="evenodd" clip-rule="evenodd" d="M36 70C55.33 70 71 54.33 71 35C71 15.67 55.33 0 36 0C16.67 0 1 15.67 1 35C1 54.33 16.67 70 36 70Z" fill="#0DBD8B"/>
<path fill-rule="evenodd" clip-rule="evenodd" d="M45.1655 26.3399C45.1655 34.8426 38.2529 41.7356 29.7259 41.7356C27.3129 41.7356 25.0291 41.1835 22.9947 40.1992L17.4268 41.9342C15.3689 42.5755 13.4328 40.6542 14.0666 38.6L15.7975 32.9908C14.8289 30.9776 14.2864 28.7219 14.2864 26.3399C14.2864 17.8372 21.1989 10.9443 29.7259 10.9443C38.2529 10.9443 45.1655 17.8372 45.1655 26.3399ZM33.1655 46.3665C31.1238 46.3665 29.175 45.9694 27.392 45.2478C29.984 50.0978 35.0976 53.3976 40.9822 53.3976C43.3876 53.3976 45.6641 52.8464 47.6923 51.8631L53.2379 53.5958C55.2953 54.2383 57.2329 52.3187 56.6003 50.264L54.8736 44.6536C55.8394 42.641 56.3804 40.3857 56.3804 38.0043C56.3804 32.1754 53.1396 27.1032 48.361 24.4902C49.4394 26.4605 50.062 28.6571 50.062 30.9731C50.062 39.4747 41.6697 46.3665 33.1655 46.3665Z" fill="white"/>
</svg>
