<svg width="182" height="143" viewBox="0 0 182 143" fill="none" xmlns="http://www.w3.org/2000/svg">
<rect x="22" y="7" width="136" height="136" rx="68" fill="#0DBD8B"/>
<path fill-rule="evenodd" clip-rule="evenodd" d="M78.9182 40.1712C78.9182 37.5482 81.0445 35.4219 83.6675 35.4219C101.154 35.4219 115.33 49.5977 115.33 67.0844C115.33 69.7074 113.204 71.8337 110.581 71.8337C107.958 71.8337 105.831 69.7074 105.831 67.0844C105.831 54.8437 95.9082 44.9206 83.6675 44.9206C81.0445 44.9206 78.9182 42.7943 78.9182 40.1712Z" fill="white"/>
<path fill-rule="evenodd" clip-rule="evenodd" d="M101.082 109.829C101.082 112.452 98.9555 114.578 96.3325 114.578C78.8458 114.578 64.67 100.402 64.67 82.9156C64.67 80.2926 66.7964 78.1662 69.4194 78.1662C72.0424 78.1662 74.1688 80.2926 74.1688 82.9156C74.1688 95.1563 84.0918 105.079 96.3325 105.079C98.9555 105.079 101.082 107.206 101.082 109.829Z" fill="white"/>
<path fill-rule="evenodd" clip-rule="evenodd" d="M55.1713 86.082C52.5482 86.082 50.4219 83.9557 50.4219 81.3327C50.4219 63.8459 64.5977 49.6701 82.0844 49.6701C84.7074 49.6701 86.8338 51.7965 86.8338 54.4195C86.8338 57.0425 84.7074 59.1689 82.0844 59.1689C69.8437 59.1689 59.9206 69.092 59.9206 81.3327C59.9206 83.9557 57.7943 86.082 55.1713 86.082Z" fill="white"/>
<path fill-rule="evenodd" clip-rule="evenodd" d="M124.829 63.918C127.452 63.918 129.578 66.0443 129.578 68.6673C129.578 86.1541 115.402 100.33 97.9156 100.33C95.2926 100.33 93.1663 98.2035 93.1663 95.5805C93.1663 92.9574 95.2926 90.8311 97.9156 90.8311C110.156 90.8311 120.079 80.908 120.079 68.6673C120.079 66.0443 122.206 63.918 124.829 63.918Z" fill="white"/>
<path d="M72.4885 104.615L72.4926 104.614C74.0418 104.434 75.2812 103.152 75.2812 101.562C75.2812 99.9484 74.0526 98.7162 72.5288 98.513L72.5257 98.5126C70.1302 98.1994 68.3386 97.8976 66.9503 97.4812C65.5797 97.0701 64.6787 96.5689 64.0126 95.9021C63.3432 95.2319 62.8181 94.3014 62.3618 92.8701C61.9013 91.426 61.536 89.5557 61.1373 87.0622L61.1374 87.0622L61.1355 87.0509C60.8841 85.568 59.6954 84.4062 58.1087 84.4062C56.5546 84.4062 55.3086 85.5544 55.0783 87.0901L55.0782 87.0901L55.0766 87.1016C54.7272 89.5924 54.3902 91.4689 53.9459 92.9202C53.5055 94.3586 52.9829 95.298 52.3113 95.9728C50.9412 97.3494 48.6463 97.9554 43.7452 98.51L43.7452 98.51L43.7411 98.5105C42.1839 98.6922 40.9688 99.9643 40.9688 101.562C40.9688 103.144 42.1633 104.405 43.7186 104.612C46.114 104.945 47.9029 105.257 49.2886 105.677C50.6577 106.092 51.5538 106.592 52.215 107.253C52.879 107.918 53.3996 108.841 53.8538 110.266C54.3122 111.705 54.6775 113.57 55.0804 116.065L55.0827 116.079L55.0854 116.094C55.3583 117.557 56.5524 118.719 58.1087 118.719C59.677 118.719 60.9313 117.554 61.141 116.022C61.4944 113.533 61.8341 111.657 62.2804 110.206C62.723 108.768 63.247 107.828 63.9199 107.153C65.2922 105.776 67.5878 105.17 72.4885 104.615Z" fill="white" stroke="#0DBD8B" stroke-width="2.4375"/>
<path d="M134.899 42.5449L134.902 42.5446C136.096 42.4039 137.031 41.411 137.031 40.2031C137.031 38.976 136.106 38.0218 134.929 37.8634L134.927 37.8631C132.95 37.602 131.459 37.349 130.298 36.9972C129.149 36.6492 128.374 36.2188 127.794 35.6325C127.211 35.0435 126.765 34.2349 126.383 33.0234C125.998 31.8037 125.694 30.2315 125.365 28.1529L125.365 28.1529L125.364 28.1454C125.172 27.0021 124.268 26.1094 123.057 26.1094C121.87 26.1094 120.923 26.993 120.747 28.1741L120.747 28.1741L120.746 28.1817C120.458 30.2586 120.178 31.8365 119.806 33.0628C119.437 34.281 118.993 35.0978 118.408 35.6913C117.222 36.8945 115.258 37.4006 111.228 37.8613L111.225 37.8617C110.026 38.003 109.109 38.9868 109.109 40.2031C109.109 41.4055 110.01 42.382 111.21 42.5426C113.187 42.8207 114.675 43.0819 115.834 43.4369C116.981 43.7884 117.753 44.217 118.328 44.7992C118.906 45.3838 119.349 46.1858 119.73 47.3923C120.113 48.6072 120.416 50.1754 120.749 52.2547L120.75 52.2643L120.752 52.2739C120.961 53.4044 121.871 54.2969 123.057 54.2969C124.256 54.2969 125.208 53.3998 125.368 52.2237C125.659 50.1478 125.941 48.5705 126.315 47.3444C126.686 46.1261 127.132 45.3091 127.717 44.7153C128.905 43.5117 130.869 43.0056 134.899 42.5449Z" fill="white" stroke="#0DBD8B" stroke-width="1.625"/>
<path d="M172.866 28.25C173.362 28.25 173.77 27.885 173.84 27.3722C174.596 22.0445 175.317 21.3144 180.462 20.7321C180.984 20.6713 181.375 20.2454 181.375 19.75C181.375 19.2459 180.993 18.8374 180.471 18.7679C175.352 18.0987 174.691 17.4468 173.84 12.1191C173.753 11.6063 173.362 11.25 172.866 11.25C172.38 11.25 171.971 11.6063 171.893 12.1278C171.145 17.4555 170.424 18.1856 165.279 18.7679C164.757 18.8287 164.375 19.2459 164.375 19.75C164.375 20.2454 164.749 20.6626 165.279 20.7321C170.398 21.4448 171.032 22.0532 171.893 27.3809C171.988 27.8937 172.388 28.25 172.866 28.25Z" fill="#0DBD8B"/>
<path d="M162.776 13.375C163.055 13.375 163.285 13.1697 163.324 12.8812C163.749 9.88439 164.155 9.47373 167.049 9.14618C167.343 9.11196 167.562 8.87241 167.562 8.59375C167.562 8.3102 167.347 8.08043 167.054 8.04132C164.175 7.66488 163.803 7.29822 163.324 4.30138C163.275 4.01294 163.055 3.8125 162.776 3.8125C162.503 3.8125 162.273 4.01294 162.229 4.30627C161.808 7.30311 161.403 7.71377 158.508 8.04132C158.215 8.07554 158 8.3102 158 8.59375C158 8.87241 158.21 9.10707 158.508 9.14618C161.388 9.54707 161.745 9.88928 162.229 12.8861C162.283 13.1746 162.507 13.375 162.776 13.375Z" fill="#0DBD8B"/>
<path d="M164.9 36.75C165.241 36.75 165.522 36.499 165.569 36.1465C166.089 32.4837 166.585 31.9818 170.123 31.5814C170.481 31.5396 170.75 31.2468 170.75 30.9062C170.75 30.5597 170.487 30.2789 170.129 30.2311C166.609 29.771 166.155 29.3228 165.569 25.66C165.51 25.3075 165.241 25.0625 164.9 25.0625C164.566 25.0625 164.285 25.3075 164.231 25.666C163.717 29.3288 163.221 29.8307 159.684 30.2311C159.325 30.2729 159.062 30.5597 159.062 30.9062C159.062 31.2468 159.319 31.5336 159.684 31.5814C163.203 32.0714 163.64 32.4897 164.231 36.1525C164.297 36.505 164.572 36.75 164.9 36.75Z" fill="#0DBD8B"/>
<path d="M8.7106 22.9375C9.17504 22.9375 9.55799 22.5953 9.62318 22.1146C10.3321 17.1198 11.0083 16.4354 15.832 15.8895C16.3208 15.8324 16.6875 15.4332 16.6875 14.9688C16.6875 14.4962 16.329 14.1132 15.8401 14.048C11.0409 13.4206 10.4217 12.8095 9.62318 7.8148C9.5417 7.33407 9.17504 7 8.7106 7C8.25431 7 7.87136 7.33407 7.79803 7.82295C7.0973 12.8177 6.42101 13.5021 1.59739 14.048C1.10851 14.1051 0.75 14.4962 0.75 14.9688C0.75 15.4332 1.10036 15.8243 1.59739 15.8895C6.39657 16.5576 6.99137 17.128 7.79803 22.1227C7.88765 22.6034 8.26246 22.9375 8.7106 22.9375Z" fill="#0DBD8B"/>
<path opacity="0.4" d="M19.3399 8.0625C19.5567 8.0625 19.7354 7.9028 19.7658 7.67846C20.0966 5.34758 20.4122 5.02818 22.6632 4.77342C22.8914 4.7468 23.0625 4.56049 23.0625 4.34375C23.0625 4.12321 22.8952 3.9445 22.667 3.91408C20.4274 3.62129 20.1385 3.33611 19.7658 1.00524C19.7278 0.780899 19.5567 0.625 19.3399 0.625C19.127 0.625 18.9483 0.780899 18.9141 1.00904C18.5871 3.33992 18.2715 3.65932 16.0204 3.91408C15.7923 3.9407 15.625 4.12321 15.625 4.34375C15.625 4.56049 15.7885 4.743 16.0204 4.77342C18.2601 5.08522 18.5376 5.35139 18.9141 7.68226C18.9559 7.9066 19.1308 8.0625 19.3399 8.0625Z" fill="#0DBD8B"/>
<path opacity="0.4" d="M24.6524 17.625C24.8692 17.625 25.0479 17.4653 25.0783 17.241C25.4091 14.9101 25.7247 14.5907 27.9757 14.3359C28.2039 14.3093 28.375 14.123 28.375 13.9063C28.375 13.6857 28.2077 13.507 27.9795 13.4766C25.7399 13.1838 25.451 12.8986 25.0783 10.5677C25.0403 10.3434 24.8692 10.1875 24.6524 10.1875C24.4395 10.1875 24.2608 10.3434 24.2266 10.5715C23.8996 12.9024 23.584 13.2218 21.3329 13.4766C21.1048 13.5032 20.9375 13.6857 20.9375 13.9063C20.9375 14.123 21.101 14.3055 21.3329 14.3359C23.5726 14.6477 23.8501 14.9139 24.2266 17.2448C24.2684 17.4691 24.4433 17.625 24.6524 17.625Z" fill="#0DBD8B"/>
</svg>
