<?xml version="1.0" encoding="UTF-8" standalone="no"?>
<!DOCTYPE svg PUBLIC "-//W3C//DTD SVG 1.1//EN" "http://www.w3.org/Graphics/SVG/1.1/DTD/svg11.dtd">
<svg width="100%" height="100%" viewBox="0 0 24 24" version="1.1" xmlns="http://www.w3.org/2000/svg" xmlns:xlink="http://www.w3.org/1999/xlink" xml:space="preserve" xmlns:serif="http://www.serif.com/" style="fill-rule:evenodd;clip-rule:evenodd;stroke-linejoin:round;stroke-miterlimit:2;">
    <path d="M11,18L13,18C13.55,18 14,17.55 14,17C14,16.45 13.55,16 13,16L11,16C10.45,16 10,16.45 10,17C10,17.55 10.45,18 11,18ZM3,7C3,7.55 3.45,8 4,8L20,8C20.55,8 21,7.55 21,7C21,6.45 20.55,6 20,6L4,6C3.45,6 3,6.45 3,7ZM7,13L17,13C17.55,13 18,12.55 18,12C18,11.45 17.55,11 17,11L7,11C6.45,11 6,11.45 6,12C6,12.55 6.45,13 7,13Z" style="fill:rgb(125,200,27);fill-rule:nonzero;"/>
</svg>
