<?xml version="1.0" encoding="UTF-8" standalone="no"?>
<!-- Created with Inkscape (http://www.inkscape.org/) -->

<svg
   xmlns:dc="http://purl.org/dc/elements/1.1/"
   xmlns:cc="http://creativecommons.org/ns#"
   xmlns:rdf="http://www.w3.org/1999/02/22-rdf-syntax-ns#"
   xmlns:svg="http://www.w3.org/2000/svg"
   xmlns="http://www.w3.org/2000/svg"
   xmlns:sodipodi="http://sodipodi.sourceforge.net/DTD/sodipodi-0.dtd"
   xmlns:inkscape="http://www.inkscape.org/namespaces/inkscape"
   width="223.8931mm"
   height="96.183876mm"
   viewBox="0 0 793.322 340.80901"
   id="svg2"
   version="1.1"
   inkscape:version="0.91 r13725"
   sodipodi:docname="icon.svg">
  <defs
     id="defs4" />
  <sodipodi:namedview
     id="base"
     pagecolor="#ffffff"
     bordercolor="#666666"
     borderopacity="1.0"
     inkscape:pageopacity="0.0"
     inkscape:pageshadow="2"
     inkscape:zoom="0.98994949"
     inkscape:cx="405.9467"
     inkscape:cy="41.426923"
     inkscape:document-units="px"
     inkscape:current-layer="layer1"
     showgrid="false"
     fit-margin-top="0"
     fit-margin-left="0"
     fit-margin-right="0"
     fit-margin-bottom="0"
     inkscape:window-width="1873"
     inkscape:window-height="1035"
     inkscape:window-x="9"
     inkscape:window-y="0"
     inkscape:window-maximized="0" />
  <metadata
     id="metadata7">
    <rdf:RDF>
      <cc:Work
         rdf:about="">
        <dc:format>image/svg+xml</dc:format>
        <dc:type
           rdf:resource="http://purl.org/dc/dcmitype/StillImage" />
        <dc:title />
      </cc:Work>
    </rdf:RDF>
  </metadata>
  <g
     inkscape:label="Layer 1"
     inkscape:groupmode="layer"
     id="layer1"
     transform="translate(30.9467,-273.38623)">
    <path
       inkscape:connector-curvature="0"
       d="m 751.4963,604.48323 0,-321.386 -23.13,0 0,-7.71 32.008,0 0,336.807 -32.008,0 0,-7.711 23.13,0 z"
       id="path3476" />
    <path
       inkscape:connector-curvature="0"
       d="m -20.0717,283.09723 0,321.386 23.13,0 0,7.711 -32.006,0 0,-336.807 32.006,0 0,7.71 -23.13,0 z"
       id="path3462" />
    <path
       inkscape:connector-curvature="0"
       d="m 62.980385,334.4736 0,16.264 0.463,0 c 4.338,-6.191 9.563,-10.998 15.684,-14.406 6.117,-3.402 13.129,-5.11 21.026995,-5.11 7.588,0 14.521,1.475 20.793,4.415 6.274,2.945 11.038,8.131 14.291,15.567 3.56,-5.265 8.4,-9.913 14.521,-13.94 6.117,-4.025 13.358,-6.042 21.724,-6.042 6.351,0 12.234,0.776 17.66,2.325 5.418,1.549 10.065,4.027 13.938,7.434 3.869,3.41 6.889,7.863 9.062,13.357 2.167,5.504 3.253,12.122 3.253,19.869 l 0,80.385 -32.994,0 0,-68.074 c 0,-4.025 -0.154,-7.82 -0.465,-11.385 -0.313,-3.56 -1.161,-6.656 -2.555,-9.293 -1.395,-2.631 -3.45,-4.724 -6.157,-6.274 -2.711,-1.543 -6.391,-2.322 -11.037,-2.322 -4.646,0 -8.403,0.896 -11.269,2.671 -2.868,1.784 -5.112,4.109 -6.737,6.971 -1.626,2.869 -2.711,6.12 -3.252,9.762 -0.545,3.638 -0.814,7.318 -0.814,11.035 l 0,66.91 -32.991,0 0,-67.375 c 0,-3.562 -0.081,-7.087 -0.23,-10.57 -0.158,-3.487 -0.814,-6.7 -1.978,-9.645 -1.162,-2.94 -3.099,-5.304 -5.808995,-7.088 -2.711,-1.775 -6.699,-2.671 -11.965,-2.671 -1.551,0 -3.603,0.349 -6.156,1.048 -2.556,0.697 -5.036,2.016 -7.435,3.949 -2.404,1.938 -4.454,4.726 -6.158,8.363 -1.705,3.642 -2.556,8.402 -2.556,14.287 l 0,69.701 -32.99,0 0,-120.118 31.132,0 z"
       id="path3464" />
    <path
       inkscape:connector-curvature="0"
       d="m 236.53638,352.1336 c 3.405,-5.113 7.744,-9.215 13.012,-12.316 5.264,-3.097 11.186,-5.303 17.771,-6.621 6.582,-1.315 13.205,-1.976 19.865,-1.976 6.042,0 12.158,0.428 18.354,1.277 6.195,0.855 11.85,2.522 16.962,4.997 5.111,2.477 9.292,5.926 12.546,10.338 3.253,4.414 4.879,10.262 4.879,17.543 l 0,62.494 c 0,5.428 0.31,10.611 0.931,15.567 0.615,4.959 1.701,8.676 3.251,11.153 l -33.455,0 c -0.621,-1.86 -1.126,-3.755 -1.511,-5.693 -0.39,-1.933 -0.661,-3.908 -0.813,-5.923 -5.267,5.422 -11.465,9.217 -18.585,11.386 -7.127,2.163 -14.407,3.251 -21.842,3.251 -5.733,0 -11.077,-0.698 -16.033,-2.09 -4.958,-1.395 -9.293,-3.562 -13.01,-6.51 -3.718,-2.938 -6.622,-6.656 -8.713,-11.147 -2.091,-4.491 -3.138,-9.84 -3.138,-16.033 0,-6.813 1.199,-12.43 3.604,-16.84 2.399,-4.417 5.495,-7.939 9.295,-10.575 3.793,-2.632 8.129,-4.607 13.01,-5.923 4.878,-1.315 9.795,-2.358 14.752,-3.137 4.957,-0.772 9.835,-1.393 14.638,-1.857 4.801,-0.466 9.062,-1.164 12.779,-2.093 3.718,-0.929 6.658,-2.282 8.829,-4.065 2.165,-1.781 3.172,-4.375 3.02,-7.785 0,-3.56 -0.58,-6.389 -1.742,-8.479 -1.161,-2.09 -2.711,-3.719 -4.646,-4.88 -1.937,-1.161 -4.183,-1.936 -6.737,-2.325 -2.557,-0.382 -5.309,-0.58 -8.248,-0.58 -6.506,0 -11.617,1.395 -15.335,4.183 -3.716,2.788 -5.889,7.437 -6.506,13.94 l -32.991,0 c 0.462,-7.742 2.395,-14.173 5.807,-19.281 z m 65.169,46.583 c -2.09,0.696 -4.337,1.275 -6.736,1.741 -2.402,0.465 -4.918,0.853 -7.551,1.161 -2.635,0.313 -5.268,0.698 -7.899,1.163 -2.48,0.461 -4.919,1.086 -7.317,1.857 -2.404,0.779 -4.495,1.822 -6.274,3.138 -1.784,1.317 -3.216,2.985 -4.3,4.994 -1.085,2.014 -1.626,4.571 -1.626,7.668 0,2.94 0.541,5.422 1.626,7.431 1.084,2.017 2.558,3.604 4.416,4.765 1.858,1.161 4.025,1.976 6.507,2.438 2.475,0.466 5.031,0.698 7.665,0.698 6.505,0 11.537,-1.082 15.103,-3.253 3.561,-2.166 6.192,-4.762 7.899,-7.785 1.702,-3.019 2.749,-6.072 3.137,-9.174 0.384,-3.097 0.58,-5.576 0.58,-7.434 l 0,-12.316 c -1.396,1.243 -3.138,2.21 -5.23,2.908 z"
       id="path3466" />
    <path
       inkscape:connector-curvature="0"
       d="m 426.81738,334.4736 0,22.072 -24.161,0 0,59.479 c 0,5.573 0.928,9.292 2.788,11.149 1.856,1.859 5.576,2.788 11.152,2.788 1.859,0 3.638,-0.076 5.343,-0.232 1.703,-0.152 3.33,-0.388 4.878,-0.696 l 0,25.557 c -2.788,0.465 -5.887,0.773 -9.293,0.931 -3.407,0.149 -6.737,0.23 -9.99,0.23 -5.111,0 -9.953,-0.35 -14.521,-1.048 -4.571,-0.695 -8.597,-2.047 -12.081,-4.063 -3.486,-2.011 -6.236,-4.88 -8.248,-8.597 -2.016,-3.714 -3.021,-8.595 -3.021,-14.639 l 0,-70.859 -19.98,0 0,-22.072 19.98,0 0,-36.012 32.992,0 0,36.012 24.162,0 z"
       id="path3468" />
    <path
       inkscape:connector-curvature="0"
       d="m 473.98038,334.4736 0,22.305 0.465,0 c 1.546,-3.72 3.636,-7.163 6.272,-10.341 2.634,-3.172 5.652,-5.885 9.06,-8.131 3.405,-2.242 7.047,-3.985 10.923,-5.228 3.868,-1.237 7.898,-1.859 12.081,-1.859 2.168,0 4.566,0.39 7.202,1.163 l 0,30.67 c -1.551,-0.312 -3.41,-0.584 -5.576,-0.814 -2.17,-0.233 -4.26,-0.35 -6.274,-0.35 -6.041,0 -11.152,1.01 -15.332,3.021 -4.182,2.014 -7.55,4.761 -10.107,8.247 -2.555,3.487 -4.379,7.55 -5.462,12.198 -1.083,4.645 -1.625,9.682 -1.625,15.102 l 0,54.133 -32.991,0 0,-120.116 31.364,0 z"
       id="path3470" />
    <path
       inkscape:connector-curvature="0"
       d="m 533.92238,315.8856 0,-27.183 32.994,0 0,27.183 -32.994,0 z m 32.994,18.588 0,120.117 -32.994,0 0,-120.117 32.994,0 z"
       id="path3472" />
    <path
       inkscape:connector-curvature="0"
       d="m 584.10738,334.4736 37.637,0 21.144,31.365 20.911,-31.365 36.476,0 -39.496,56.226 44.377,63.892 -37.64,0 -25.093,-37.87 -25.094,37.87 -36.938,0 43.213,-63.193 -39.497,-56.925 z"
       id="path3474" />
    <text
       xml:space="preserve"
       style="font-style:normal;font-weight:normal;font-size:80.1158371px;line-height:125%;font-family:sans-serif;letter-spacing:0px;word-spacing:0px;fill:#000000;fill-opacity:1;stroke:none;stroke-width:1px;stroke-linecap:butt;stroke-linejoin:miter;stroke-opacity:1"
       x="201.6066"
       y="564.091"
       id="text3510"
       sodipodi:linespacing="125%"><tspan
         sodipodi:role="line"
         id="tspan3512"
         x="201.6066"
         y="564.091"
         style="font-style:normal;font-variant:normal;font-weight:normal;font-stretch:normal;font-family:Consolas;-inkscape-font-specification:Consolas">Console</tspan></text>
  </g>
</svg>
