<?xml version="1.0" encoding="UTF-8" standalone="no"?>
<!DOCTYPE svg PUBLIC "-//W3C//DTD SVG 1.1//EN" "http://www.w3.org/Graphics/SVG/1.1/DTD/svg11.dtd">
<svg width="100%" height="100%" viewBox="0 0 70 70" version="1.1" xmlns="http://www.w3.org/2000/svg" xmlns:xlink="http://www.w3.org/1999/xlink" xml:space="preserve" xmlns:serif="http://www.serif.com/" style="fill-rule:evenodd;clip-rule:evenodd;stroke-linejoin:round;stroke-miterlimit:2;">
    <path d="M54.476,63.884C48.916,67.64 42.214,69.833 35,69.833C27.158,69.833 19.922,67.242 14.1,62.869C5.639,56.514 0.167,46.396 0.167,35C0.167,15.762 15.762,0.167 35,0.167C54.238,0.167 69.833,15.762 69.833,35C69.833,47.024 63.742,57.625 54.476,63.884ZM35,36.742C40.772,36.742 45.45,31.673 45.45,25.421C45.45,19.169 40.772,14.1 35,14.1C29.229,14.1 24.55,19.169 24.55,25.421C24.55,31.673 29.229,36.742 35,36.742ZM35,62.867C42.531,62.867 49.364,59.879 54.379,55.025C51.278,47.368 43.77,41.967 35,41.967C26.231,41.967 18.722,47.368 15.621,55.025C20.636,59.879 27.469,62.867 35,62.867Z" style="fill:white;"/>
</svg>
