<svg width="40" height="40" viewBox="0 0 40 40" fill="none" xmlns="http://www.w3.org/2000/svg">
<path fill-rule="evenodd" clip-rule="evenodd" d="M20 40C31.0457 40 40 31.0457 40 20C40 8.9543 31.0457 0 20 0C8.9543 0 0 8.9543 0 20C0 31.0457 8.9543 40 20 40ZM18.0843 14.6883C18.0072 13.8089 18.6552 13.0374 19.5346 12.9757C20.3986 12.914 21.17 13.562 21.2626 14.4414V14.6883L20.7689 20.8597C20.7226 21.4306 20.2443 21.8626 19.6735 21.8626H19.5809C19.0409 21.8163 18.6243 21.3997 18.578 20.8597L18.0843 14.6883ZM21.015 24.8868C21.015 25.6366 20.4071 26.2445 19.6573 26.2445C18.9075 26.2445 18.2996 25.6366 18.2996 24.8868C18.2996 24.1369 18.9075 23.5291 19.6573 23.5291C20.4071 23.5291 21.015 24.1369 21.015 24.8868Z" fill="white"/>
</svg>
