<?xml version="1.0" encoding="UTF-8" standalone="no"?>
<!DOCTYPE svg PUBLIC "-//W3C//DTD SVG 1.1//EN" "http://www.w3.org/Graphics/SVG/1.1/DTD/svg11.dtd">
<svg width="100%" height="100%" viewBox="0 0 24 24" version="1.1" xmlns="http://www.w3.org/2000/svg" xmlns:xlink="http://www.w3.org/1999/xlink" xml:space="preserve" xmlns:serif="http://www.serif.com/" style="fill-rule:evenodd;clip-rule:evenodd;stroke-linejoin:round;stroke-miterlimit:2;">
    <path d="M11.615,10.501C11.576,10.54 11.549,10.591 11.538,10.646L11.121,12.667C11.08,12.867 11.249,13.046 11.444,13.008L13.412,12.627C13.466,12.617 13.516,12.59 13.555,12.551L21.916,4.131C22.026,4.021 22.028,3.839 21.921,3.726L20.369,2.086C20.262,1.973 20.086,1.971 19.976,2.082L11.615,10.501ZM2,6.686L2,18.906C2,19.727 2.319,20.514 2.887,21.094C3.455,21.674 4.226,22 5.03,22L16.996,22C17.8,22 18.571,21.674 19.139,21.094C19.707,20.514 20.026,19.727 20.026,18.906L20.026,11.61C20.026,11.337 19.92,11.075 19.73,10.881C19.541,10.688 19.284,10.579 19.016,10.579C18.748,10.579 18.491,10.688 18.302,10.881C18.113,11.075 18.006,11.337 18.006,11.61L18.006,18.906C18.006,19.18 17.9,19.442 17.711,19.636C17.521,19.829 17.264,19.938 16.996,19.938L5.03,19.938C4.762,19.938 4.505,19.829 4.316,19.636C4.126,19.442 4.02,19.18 4.02,18.906L4.02,6.686C4.02,6.413 4.126,6.15 4.316,5.957C4.505,5.764 4.762,5.655 5.03,5.655L12.174,5.655C12.442,5.655 12.699,5.546 12.888,5.353C13.078,5.16 13.184,4.897 13.184,4.624C13.184,4.35 13.078,4.088 12.888,3.895C12.699,3.701 12.442,3.593 12.174,3.593L5.03,3.593C4.226,3.593 3.455,3.918 2.887,4.499C2.319,5.079 2,5.866 2,6.686Z" style="fill:rgb(50,163,253);"/>
</svg>
