<svg width="24" height="24" viewBox="0 0 24 24" fill="none" xmlns="http://www.w3.org/2000/svg">
<path fill-rule="evenodd" clip-rule="evenodd" d="M11.6151 10.5009C11.5759 10.5404 11.5489 10.591 11.5375 10.6463L11.1211 12.6668C11.0799 12.8667 11.2491 13.0456 11.4439 13.0079L13.4123 12.6272C13.4661 12.6168 13.5158 12.5902 13.5551 12.5507L21.9163 4.13132C22.026 4.0208 22.0281 3.83944 21.921 3.72624L20.3691 2.08644C20.2619 1.97323 20.0861 1.97105 19.9763 2.08156L11.6151 10.5009ZM2 6.6862L2 18.9063C2 19.7268 2.31919 20.5137 2.88734 21.0939C3.4555 21.6741 4.22608 22 5.02958 22L16.9964 22C17.7999 22 18.5705 21.6741 19.1386 21.0939C19.7068 20.5137 20.026 19.7268 20.026 18.9063L20.026 11.6103C20.026 11.3368 19.9196 11.0745 19.7302 10.8811C19.5408 10.6878 19.284 10.5791 19.0161 10.5791C18.7483 10.5791 18.4914 10.6878 18.3021 10.8811C18.1127 11.0745 18.0063 11.3368 18.0063 11.6103L18.0063 18.9063C18.0063 19.1798 17.8999 19.4421 17.7105 19.6355C17.5211 19.8289 17.2642 19.9375 16.9964 19.9375L5.02958 19.9375C4.76174 19.9375 4.50488 19.8289 4.3155 19.6355C4.12611 19.4421 4.01972 19.1798 4.01972 18.9063L4.01972 6.6862C4.01972 6.4127 4.12611 6.15041 4.3155 5.95701C4.50488 5.76362 4.76174 5.65497 5.02958 5.65497L12.1743 5.65497C12.4422 5.65497 12.699 5.54632 12.8884 5.35293C13.0778 5.15953 13.1842 4.89724 13.1842 4.62374C13.1842 4.35024 13.0778 4.08794 12.8884 3.89454C12.699 3.70115 12.4422 3.59251 12.1743 3.59251L5.02958 3.59251C4.22608 3.59251 3.4555 3.91845 2.88734 4.49863C2.31919 5.07881 2 5.8657 2 6.6862Z" fill="#0DBD8B"/>
</svg>
