<svg width="33" height="32" viewBox="0 0 33 32" fill="none" xmlns="http://www.w3.org/2000/svg">
<path fill-rule="evenodd" clip-rule="evenodd" d="M16.5001 29.3327C23.8639 29.3327 29.8334 23.3631 29.8334 15.9993C29.8334 8.63555 23.8639 2.66602 16.5001 2.66602C9.13628 2.66602 3.16675 8.63555 3.16675 15.9993C3.16675 23.3631 9.13628 29.3327 16.5001 29.3327ZM14.3976 9.35707C14.2945 8.18144 15.1608 7.15019 16.3364 7.06769C17.4914 6.98519 18.5226 7.85144 18.6464 9.02707V9.35707L17.9864 17.6071C17.9245 18.3702 17.2851 18.9477 16.522 18.9477H16.3983C15.6764 18.8858 15.1195 18.3289 15.0576 17.6071L14.3976 9.35707ZM18.3154 22.9905C18.3154 23.9929 17.5028 24.8055 16.5004 24.8055C15.498 24.8055 14.6854 23.9929 14.6854 22.9905C14.6854 21.9881 15.498 21.1755 16.5004 21.1755C17.5028 21.1755 18.3154 21.9881 18.3154 22.9905Z" fill="#FF4B55"/>
</svg>
