<?xml version="1.0" encoding="UTF-8" standalone="no"?>
<!DOCTYPE svg PUBLIC "-//W3C//DTD SVG 1.1//EN" "http://www.w3.org/Graphics/SVG/1.1/DTD/svg11.dtd">
<svg width="100%" height="100%" viewBox="0 0 70 70" version="1.1" xmlns="http://www.w3.org/2000/svg" xmlns:xlink="http://www.w3.org/1999/xlink" xml:space="preserve" xmlns:serif="http://www.serif.com/" style="fill-rule:evenodd;clip-rule:evenodd;stroke-linejoin:round;stroke-miterlimit:2;">
    <path d="M35,70C54.33,70 70,54.33 70,35C70,15.67 54.33,0 35,0C15.67,0 0,15.67 0,35C0,54.33 15.67,70 35,70ZM38,18C38,19.306 37.165,20.417 36,20.829L36,25L47,25C51.418,25 55,28.582 55,33L55,47C55,51.418 51.418,55 47,55L23,55C18.582,55 15,51.418 15,47L15,33C15,28.582 18.582,25 23,25L34,25L34,20.829C32.835,20.417 32,19.306 32,18C32,16.343 33.343,15 35,15C36.657,15 38,16.343 38,18ZM29.5,47C28.672,47 28,47.672 28,48.5C28,49.328 28.672,50 29.5,50L40.5,50C41.328,50 42,49.328 42,48.5C42,47.672 41.328,47 40.5,47L29.5,47ZM46,40C48.209,40 50,38.209 50,36C50,33.791 48.209,32 46,32C43.791,32 42,33.791 42,36C42,38.209 43.791,40 46,40ZM28,36C28,38.209 26.209,40 24,40C21.791,40 20,38.209 20,36C20,33.791 21.791,32 24,32C26.209,32 28,33.791 28,36Z" style="fill:rgb(13,189,139);"/>
</svg>
