<svg width="48" height="48" viewBox="0 0 48 48" fill="none" xmlns="http://www.w3.org/2000/svg">
<path d="M16.25 16.5C16.25 15.6716 16.8096 15 17.5 15H18.75C19.4404 15 20 15.6716 20 16.5V31.5C20 32.3284 19.4404 33 18.75 33H17.5C16.8096 33 16.25 32.3284 16.25 31.5V16.5Z" fill="#737D8C"/>
<path d="M25 16.5C25 15.6716 25.5596 15 26.25 15H27.5C28.1904 15 28.75 15.6716 28.75 16.5V31.5C28.75 32.3284 28.1904 33 27.5 33H26.25C25.5596 33 25 32.3284 25 31.5V16.5Z" fill="#737D8C"/>
<circle cx="24" cy="24" r="24" fill="#F4F6FA"/>
<circle cx="24" cy="24" r="7.5" fill="#FF5B55"/>
</svg>
