<svg width="12" height="13" viewBox="0 0 12 13" fill="none" xmlns="http://www.w3.org/2000/svg">
<path d="M0.75 6.7025V2.0375L6 0.5L11.25 2.0375V6.7025C11.25 11.4725 6 12.5 6 12.5C6 12.5 0.75 11.4725 0.75 6.7025Z" fill="#FF4B55"/>
<path fill-rule="evenodd" clip-rule="evenodd" d="M5.4261 4.53601C5.39797 4.21539 5.63423 3.93414 5.95485 3.91164C6.26985 3.88914 6.5511 4.12539 6.58485 4.44601V4.53601L6.40485 6.78601C6.38797 6.99414 6.2136 7.15164 6.00548 7.15164H5.97173C5.77485 7.13476 5.62298 6.98289 5.6061 6.78601L5.4261 4.53601ZM6.49415 8.25355C6.49415 8.52693 6.27253 8.74855 5.99915 8.74855C5.72577 8.74855 5.50415 8.52693 5.50415 8.25355C5.50415 7.98016 5.72577 7.75854 5.99915 7.75854C6.27253 7.75854 6.49415 7.98016 6.49415 8.25355Z" fill="white"/>
</svg>
