<?xml version="1.0" encoding="UTF-8" standalone="no"?>
<!DOCTYPE svg PUBLIC "-//W3C//DTD SVG 1.1//EN" "http://www.w3.org/Graphics/SVG/1.1/DTD/svg11.dtd">
<svg width="100%" height="100%" viewBox="0 0 70 70" version="1.1" xmlns="http://www.w3.org/2000/svg" xmlns:xlink="http://www.w3.org/1999/xlink" xml:space="preserve" xmlns:serif="http://www.serif.com/" style="fill-rule:evenodd;clip-rule:evenodd;stroke-linejoin:round;stroke-miterlimit:2;">
    <path d="M70,35C70,15.683 54.317,0 35,0C15.683,0 0,15.683 0,35C0,54.317 15.683,70 35,70C54.317,70 70,54.317 70,35Z" style="fill:rgb(125,200,27);"/>
    <g>
        <path d="M61.667,35C61.667,33.533 60.467,32.333 59,32.333L53.48,32.333C52.173,23.293 44.413,16.333 35,16.333C25.587,16.333 17.827,23.293 16.52,32.333L11,32.333C9.533,32.333 8.333,33.533 8.333,35C8.333,36.466 9.533,37.666 11,37.666L16.52,37.666C17.827,46.706 25.587,53.666 35,53.666C44.413,53.666 52.173,46.706 53.48,37.666L59,37.666C60.467,37.666 61.667,36.466 61.667,35ZM43,41.666C43,43.133 41.8,44.333 40.333,44.333L29.667,44.333C28.2,44.333 27,43.133 27,41.666L27,33.666C27,32.2 28.2,31 29.667,31L29.667,28.333C29.667,25.106 32.547,22.52 35.907,23.08C38.52,23.506 40.333,25.96 40.333,28.626L40.333,31C41.8,31 43,32.2 43,33.666L43,41.666ZM37,37.666C37,38.76 36.093,39.666 35,39.666C33.907,39.666 33,38.76 33,37.666C33,36.573 33.907,35.666 35,35.666C36.093,35.666 37,36.573 37,37.666ZM37.667,28.333L37.667,31L32.333,31L32.333,28.333C32.333,26.866 33.533,25.666 35,25.666C36.467,25.666 37.667,26.866 37.667,28.333Z" style="fill:white;fill-rule:nonzero;"/>
    </g>
</svg>
