<svg width="70" height="70" viewBox="0 0 70 70" fill="none" xmlns="http://www.w3.org/2000/svg">
<rect width="70" height="70" rx="35" fill="#0DBD8B"/>
<g clip-path="url(#clip0_432_24662)">
<path d="M61.6666 34.9997C61.6666 33.533 60.4666 32.333 59 32.333H53.48C52.1733 23.293 44.4133 16.333 35 16.333C25.5866 16.333 17.8266 23.293 16.52 32.333H11C9.53331 32.333 8.33331 33.533 8.33331 34.9997C8.33331 36.4663 9.53331 37.6663 11 37.6663H16.52C17.8266 46.7063 25.5866 53.6663 35 53.6663C44.4133 53.6663 52.1733 46.7063 53.48 37.6663H59C60.4666 37.6663 61.6666 36.4663 61.6666 34.9997ZM43 41.6663C43 43.133 41.8 44.333 40.3333 44.333H29.6666C28.2 44.333 27 43.133 27 41.6663V33.6663C27 32.1997 28.2 30.9997 29.6666 30.9997V28.333C29.6666 25.1063 32.5466 22.5197 35.9066 23.0797C38.52 23.5063 40.3333 25.9597 40.3333 28.6263V30.9997C41.8 30.9997 43 32.1997 43 33.6663V41.6663ZM37 37.6663C37 38.7597 36.0933 39.6663 35 39.6663C33.9066 39.6663 33 38.7597 33 37.6663C33 36.573 33.9066 35.6663 35 35.6663C36.0933 35.6663 37 36.573 37 37.6663ZM37.6666 28.333V30.9997H32.3333V28.333C32.3333 26.8663 33.5333 25.6663 35 25.6663C36.4666 25.6663 37.6666 26.8663 37.6666 28.333Z" fill="white"/>
</g>
<defs>
<clipPath id="clip0_432_24662">
<rect width="64" height="64" fill="white" transform="translate(3 3)"/>
</clipPath>
</defs>
</svg>
