<?xml version="1.0" encoding="UTF-8" standalone="no"?>
<!DOCTYPE svg PUBLIC "-//W3C//DTD SVG 1.1//EN" "http://www.w3.org/Graphics/SVG/1.1/DTD/svg11.dtd">
<svg width="100%" height="100%" viewBox="0 0 18 18" version="1.1" xmlns="http://www.w3.org/2000/svg" xmlns:xlink="http://www.w3.org/1999/xlink" xml:space="preserve" xmlns:serif="http://www.serif.com/" style="fill-rule:evenodd;clip-rule:evenodd;">
    <path d="M9.212,17.436C9.123,17.459 9.052,17.476 9,17.488C8.948,17.476 8.877,17.459 8.788,17.436C8.583,17.383 8.289,17.298 7.934,17.175C7.222,16.928 6.276,16.528 5.335,15.916C3.458,14.696 1.625,12.66 1.625,9.304L1.625,2.681L9,0.521L16.375,2.681L16.375,9.304C16.375,12.66 14.541,14.696 12.665,15.916C11.724,16.528 10.778,16.928 10.067,17.175C9.711,17.298 9.417,17.383 9.212,17.436Z" style="fill:rgb(255,75,85);fill-rule:nonzero;stroke:white;stroke-width:1px;"/>
    <path d="M1.125,9.304L1.125,2.306L9,0L16.875,2.306L16.875,9.304C16.875,16.459 9,18 9,18C9,18 1.125,16.459 1.125,9.304Z" style="fill:rgb(253,55,50);fill-rule:nonzero;"/>
    <path d="M8.14,6.054C8.097,5.573 8.452,5.151 8.933,5.117C9.405,5.084 9.827,5.438 9.878,5.919L9.878,6.054L9.608,9.429C9.582,9.741 9.321,9.977 9.009,9.977L8.958,9.977C8.663,9.952 8.435,9.724 8.41,9.429L8.14,6.054ZM9.742,11.63C9.742,12.04 9.409,12.373 8.999,12.373C8.589,12.373 8.257,12.04 8.257,11.63C8.257,11.22 8.589,10.888 8.999,10.888C9.409,10.888 9.742,11.22 9.742,11.63Z" style="fill:white;"/>
</svg>
