<svg width="18" height="18" viewBox="0 0 18 18" fill="none" xmlns="http://www.w3.org/2000/svg">
<path d="M9.21228 17.436C9.12341 17.4591 9.05182 17.4763 9 17.4883C8.94819 17.4763 8.87659 17.4591 8.78772 17.436C8.58344 17.3827 8.28861 17.2983 7.9335 17.175C7.22166 16.9279 6.27643 16.5277 5.33499 15.9158C3.45846 14.696 1.625 12.6603 1.625 9.30375V2.68082L9 0.521L16.375 2.68082V9.30375C16.375 12.6603 14.5415 14.696 12.665 15.9158C11.7236 16.5277 10.7783 16.9279 10.0665 17.175C9.71139 17.2983 9.41656 17.3827 9.21228 17.436Z" fill="#FF4B55" stroke="white"/>
<path d="M1.125 9.30375V2.30625L9 0L16.875 2.30625V9.30375C16.875 16.4587 9 18 9 18C9 18 1.125 16.4587 1.125 9.30375Z" fill="#FF4B55"/>
<path fill-rule="evenodd" clip-rule="evenodd" d="M8.13964 6.05402C8.09745 5.57308 8.45183 5.15121 8.93276 5.11746C9.40526 5.08371 9.82714 5.43808 9.87776 5.91902V6.05402L9.60776 9.42902C9.58245 9.74121 9.32089 9.97746 9.0087 9.97746H8.95808C8.66276 9.95215 8.43495 9.72433 8.40964 9.42902L8.13964 6.05402ZM9.74171 11.6303C9.74171 12.0404 9.40929 12.3728 8.99921 12.3728C8.58914 12.3728 8.25671 12.0404 8.25671 11.6303C8.25671 11.2202 8.58914 10.8878 8.99921 10.8878C9.40929 10.8878 9.74171 11.2202 9.74171 11.6303Z" fill="white"/>
</svg>
