<svg width="23" height="19" viewBox="0 0 23 19" fill="none" xmlns="http://www.w3.org/2000/svg">
<path fill-rule="evenodd" clip-rule="evenodd" d="M9.26126 0.625C7.93955 0.625 6.8205 1.56156 6.56548 2.83072C6.52727 3.02086 6.45364 3.20457 6.32574 3.35036L5.77376 3.97953C5.59971 4.17792 5.3486 4.29167 5.08469 4.29167H2.16659C1.15406 4.29167 0.333252 5.11248 0.333252 6.125V16.2083C0.333252 17.2209 1.15406 18.0417 2.16658 18.0417H20.4999C21.5124 18.0417 22.3333 17.2209 22.3333 16.2083V6.125C22.3333 5.11248 21.5124 4.29167 20.4999 4.29167H17.5818C17.3179 4.29167 17.0668 4.17792 16.8927 3.97953L16.3408 3.35036C16.2129 3.20457 16.1392 3.02086 16.101 2.83071C15.846 1.56156 14.727 0.625 13.4052 0.625H9.26126ZM14.9999 10.7083C14.9999 12.7333 13.3583 14.3749 11.3333 14.3749C9.30821 14.3749 7.66659 12.7333 7.66659 10.7083C7.66659 8.68321 9.30821 7.04159 11.3333 7.04159C13.3583 7.04159 14.9999 8.68321 14.9999 10.7083Z" fill="#737D8C"/>
<path d="M2.62492 2.91659C2.37179 2.91659 2.16659 3.12179 2.16659 3.37492C2.16659 3.62805 2.37179 3.83325 2.62492 3.83325H4.45825C4.71138 3.83325 4.91659 3.62805 4.91659 3.37492C4.91659 3.12179 4.71138 2.91659 4.45825 2.91659H2.62492Z" fill="#737D8C"/>
</svg>
