<svg width="24" height="24" viewBox="0 0 24 24" fill="none" xmlns="http://www.w3.org/2000/svg">
<mask id="mask0_2258_29320" style="mask-type:alpha" maskUnits="userSpaceOnUse" x="1" y="1" width="22" height="22">
<path d="M1.50146 1.5H22.5002V22.3716H1.50146V1.5Z" fill="white"/>
</mask>
<g mask="url(#mask0_2258_29320)">
<path fill-rule="evenodd" clip-rule="evenodd" d="M22.4999 11.999C22.4999 6.20003 17.7989 1.49902 11.9999 1.49902C6.20093 1.49902 1.49992 6.20003 1.49992 11.999C1.49992 17.2399 5.33962 21.5838 10.3593 22.3715V15.0342H7.69328V11.999H10.3593V9.68574C10.3593 7.05418 11.9269 5.60059 14.3253 5.60059C15.4741 5.60059 16.6757 5.80566 16.6757 5.80566V8.38965H15.3517C14.0473 8.38965 13.6405 9.19903 13.6405 10.0294V11.999H16.5527L16.0871 15.0342H13.6405V22.3715C18.6602 21.5838 22.4999 17.2399 22.4999 11.999Z" fill="#1877F2"/>
</g>
<path fill-rule="evenodd" clip-rule="evenodd" d="M16.0871 15.0342L16.5527 11.999H13.6405V10.0294C13.6405 9.19903 14.0473 8.38965 15.3517 8.38965H16.6757V5.80566C16.6757 5.80566 15.4741 5.60059 14.3253 5.60059C11.9269 5.60059 10.3593 7.05418 10.3593 9.68574V11.999H7.69328V15.0342H10.3593V22.3715C10.8939 22.4553 11.4418 22.499 11.9999 22.499C12.5581 22.499 13.106 22.4553 13.6405 22.3715V15.0342H16.0871Z" fill="white"/>
</svg>
